<svg id="account" xmlns="http://www.w3.org/2000/svg" width="42.718" height="42.718" viewBox="0 0 42.718 42.718">
  <path id="Path_82" data-name="Path 82" d="M42.718,21.359A21.359,21.359,0,1,0,21.359,42.718,21.347,21.347,0,0,0,42.718,21.359ZM21.359,2.5A18.859,18.859,0,0,1,36.986,31.915a21.351,21.351,0,0,0-31.254,0A18.859,18.859,0,0,1,21.359,2.5ZM7.293,33.916a18.851,18.851,0,0,1,28.131,0A18.838,18.838,0,0,1,7.293,33.916Zm0,0" fill="#2ecb77"/>
  <path id="Path_83" data-name="Path 83" d="M173.509,78.521a7.518,7.518,0,0,0,7.509-7.509v-2.5a7.509,7.509,0,1,0-15.018,0v2.5A7.518,7.518,0,0,0,173.509,78.521ZM168.5,68.509a5.006,5.006,0,0,1,10.012,0v2.5a5.006,5.006,0,0,1-10.012,0Zm0,0" transform="translate(-152.15 -55.911)" fill="#2ecb77"/>
</svg>
