<svg xmlns="http://www.w3.org/2000/svg" width="29.329" height="40.835" viewBox="0 0 29.329 40.835">
  <g id="arrow" transform="translate(29.329 40.835) rotate(180)">
    <g id="Group_49" data-name="Group 49" transform="translate(0)">
      <path id="Path_42" data-name="Path 42" d="M.129,19.218A5.84,5.84,0,0,1,1.9,16.19L18.377,1.744A6.631,6.631,0,0,1,22.914,0a6.206,6.206,0,0,1,6.416,5.955,5.722,5.722,0,0,1-1.9,4.228L15.757,20.417,27.45,30.669a5.71,5.71,0,0,1,1.88,4.211,6.206,6.206,0,0,1-6.416,5.955A6.636,6.636,0,0,1,18.386,39.1L1.88,24.629A5.815,5.815,0,0,1,.129,21.617,5.58,5.58,0,0,1,0,20.417,5.731,5.731,0,0,1,.129,19.218Z"/>
    </g>
  </g>
</svg>
