<svg xmlns="http://www.w3.org/2000/svg" width="42.797" height="59.575" viewBox="0 0 42.797 59.575">
  <g id="chef-_1_" transform="translate(-72.55 511.694)">
    <path id="Path_171" data-name="Path 171" d="M92.354-511.491a12.7,12.7,0,0,0-2.558.837,9.973,9.973,0,0,0-3.511,3.07l-.407.593-.884-.326a9.274,9.274,0,0,0-11.534,4.7,7.519,7.519,0,0,0-.86,4.023,7.519,7.519,0,0,0,.86,4.023,9.252,9.252,0,0,0,7.034,5.174l.884.14.709.919a5.885,5.885,0,0,1,.651.965c-.012.012-.953.233-2.07.477-2.186.477-2.558.663-2.558,1.267a16.256,16.256,0,0,0,1.046,2.384c.779,1.57,1.128,2.139,1.337,2.232.244.1.616.058,2.128-.291a46.605,46.605,0,0,1,13.685-1.372,52.574,52.574,0,0,1,8.918,1.372c1.512.349,1.884.4,2.128.291.209-.093.558-.663,1.337-2.232a16.987,16.987,0,0,0,1.046-2.372c0-.593-.314-.779-2.081-1.186-.919-.209-1.686-.407-1.709-.43a6.909,6.909,0,0,1,.744-1.093c.767-1.035.791-1.058,1.477-1.232a8.608,8.608,0,0,0,2.883-1.244,9.292,9.292,0,0,0,4.232-7.174c.07-.907.058-.953-.233-1.244a.863.863,0,0,0-1.3-.012.953.953,0,0,0-.291.837,7.716,7.716,0,0,1-.826,3.174,7.527,7.527,0,0,1-6.581,4.069,7.628,7.628,0,0,1-1.314-.128c-.942-.2-1.512.128-1.512.884,0,.453.465.837,1.116.93a3.028,3.028,0,0,1,.651.14,2.88,2.88,0,0,1-.558.907c-.523.7-.7.86-.907.814-.128-.023-.663-.1-1.174-.174a62.971,62.971,0,0,0-15.778-.116c-.919.116-1.674.2-1.7.174s-.314-.407-.674-.884l-.639-.86.349-.093a.891.891,0,0,0,.233-1.663c-.291-.14-.477-.151-1.314-.023a7.429,7.429,0,0,1-7.639-4.035A7.316,7.316,0,0,1,76.6-503.84a7.284,7.284,0,0,1,8.546-1.372c1.407.686,1.558.639,2.267-.674a7.591,7.591,0,0,1,6.511-3.872,7.568,7.568,0,0,1,6.511,3.883c.721,1.3.86,1.349,2.267.651a7.362,7.362,0,0,1,10.011,3.43c.453.907.639,1.186.9,1.267a.924.924,0,0,0,1.116-.419c.163-.279.151-.372-.023-.93a9.275,9.275,0,0,0-2.849-3.942,9.252,9.252,0,0,0-9-1.5l-.884.326-.407-.593a9.491,9.491,0,0,0-5.43-3.767A13.316,13.316,0,0,0,92.354-511.491Zm7.267,25.277a60.243,60.243,0,0,1,7.755,1.267,5.41,5.41,0,0,1-1.081,1.93,10.146,10.146,0,0,1-1.07-.221,54.633,54.633,0,0,0-9.069-1.314A48.49,48.49,0,0,0,82.9-483.3c-.663.151-1.279.279-1.372.279a6.52,6.52,0,0,1-1.07-1.918c.023-.023.674-.174,1.442-.337a70.753,70.753,0,0,1,9.174-1.163C92.378-486.528,97.935-486.388,99.621-486.214Z" transform="translate(0 0)" fill="#f480fd" stroke="#707070" stroke-width="0.1"/>
    <path id="Path_172" data-name="Path 172" d="M108.2-447.778a5.736,5.736,0,0,0-4.2,5.255.965.965,0,0,0,.93,1.07c.57,0,.884-.407.965-1.256a3.681,3.681,0,0,1,3.36-3.36,1.5,1.5,0,0,0,.988-.337.869.869,0,0,0-.023-1.267C109.883-448.022,109.209-448.045,108.2-447.778Z" transform="translate(-27.749 -56.214)" fill="#f480fd" stroke="#707070" stroke-width="0.1"/>
    <path id="Path_173" data-name="Path 173" d="M160.244-247.656c-.3.3-.3.3-.233,1.825a10.579,10.579,0,0,0,3.383,7.7,10.639,10.639,0,0,0,7.22,3.163,10.7,10.7,0,0,0,8.371-3.279,10.466,10.466,0,0,0,3.279-7.581l.07-1.523-.3-.3a.887.887,0,0,0-1.291-.035c-.244.244-.279.407-.337,1.721a8.836,8.836,0,0,1-1.477,4.907,9.3,9.3,0,0,1-14.3,1.593,9.129,9.129,0,0,1-2.756-6.5c-.058-1.314-.093-1.477-.337-1.721A.887.887,0,0,0,160.244-247.656Z" transform="translate(-77.215 -232.966)" fill="#f480fd" stroke="#707070" stroke-width="0.1"/>
    <path id="Path_174" data-name="Path 174" d="M136.133-151.8c-.523.512-.407.919.5,1.8a13.411,13.411,0,0,0,4.732,2.907,24.439,24.439,0,0,0,4.1,1.116c.326.047.6.1.6.151a4.059,4.059,0,0,1-.651.535,16.392,16.392,0,0,0-5.569,8.244c-.384,1.5-.384,1.965.012,2.36.36.36.756.337,2.2-.151a12.8,12.8,0,0,0,7.395-6.22,1.828,1.828,0,0,1,.337-.57,1.828,1.828,0,0,1,.337.57,12.769,12.769,0,0,0,7.395,6.22c1.442.488,1.837.512,2.2.151.384-.4.4-.86.012-2.349a16.663,16.663,0,0,0-3.465-6.313,14.6,14.6,0,0,0-2.663-2.349c-.058,0-.081-.047-.047-.1a1.446,1.446,0,0,1,.616-.186c3.3-.477,7.127-2.244,8.918-4.128.756-.791.849-1.209.36-1.686-.488-.5-.884-.4-1.756.43a12.2,12.2,0,0,1-4.976,2.825,22.829,22.829,0,0,1-13.3.174,13.4,13.4,0,0,1-5.627-3.07C137.028-152.193,136.61-152.286,136.133-151.8Zm12.453,7.569A9.537,9.537,0,0,1,144.237-138a12.164,12.164,0,0,1-2.546,1.326,10.219,10.219,0,0,1,.884-2.291,13.478,13.478,0,0,1,5.534-5.825,2.361,2.361,0,0,1,.6-.279A3.961,3.961,0,0,1,148.586-144.229Zm4.825.721a14.075,14.075,0,0,1,3.616,4.569,10.122,10.122,0,0,1,.872,2.267,13.329,13.329,0,0,1-2.546-1.3,9.806,9.806,0,0,1-4.453-6.779l-.081-.4.837.453A16.118,16.118,0,0,1,153.411-143.508Z" transform="translate(-55.871 -317.673)" fill="#f480fd" stroke="#707070" stroke-width="0.1"/>
  </g>
</svg>
