<svg xmlns="http://www.w3.org/2000/svg" width="182.26" height="157.887" viewBox="0 0 182.26 157.887">
  <g id="undraw_connecting_teams_re_hno7" transform="translate(0 0)">
    <path id="Path_1568" data-name="Path 1568" d="M627.565,254.706a17.991,17.991,0,1,1-5.247-12.777A18.037,18.037,0,0,1,627.565,254.706Z" transform="translate(-502.283 -205.903)" fill="#f2f2f2"/>
    <path id="Path_1569" data-name="Path 1569" d="M808.479,288.072l2.536-4.843c-2.274-2.746-9.736-6.077-9.736-6.077l-10.1-9.192a2.413,2.413,0,1,0-2.964,2.942l10.91,13.085Z" transform="translate(-653.178 -228.755)" fill="#9e616a"/>
    <path id="Path_1570" data-name="Path 1570" d="M878.568,334.44l3.581,1.14a12.29,12.29,0,0,0,7.975-.178h0a4.438,4.438,0,0,0,2.866-3.705h0a4.428,4.428,0,0,0-3.686-4.791c-3.358-.552-7.685-.824-9.229,1.013l-.016.019Z" transform="translate(-724.495 -275.457)" fill="#3f3d56"/>
    <circle id="Ellipse_191" data-name="Ellipse 191" cx="18.037" cy="18.037" r="18.037" transform="translate(110.278 37.734)" fill="#fff"/>
    <path id="Path_1571" data-name="Path 1571" d="M725.564,301.062a16.945,16.945,0,0,1-1.209,3.859c-3.182,6.731,5.879,4.537,9.117,4.537,3.54,0,6.928,1.862,6.411-6.411a6.562,6.562,0,0,0-6.411-6.411C730.448,296.638,726.2,297.982,725.564,301.062Z" transform="translate(-604.611 -252.347)" fill="#2f2e41"/>
    <circle id="Ellipse_192" data-name="Ellipse 192" cx="5.209" cy="5.209" r="5.209" transform="translate(123.122 46.692)" fill="#ffb6b6"/>
    <path id="Path_1572" data-name="Path 1572" d="M739.2,303.829a5.967,5.967,0,0,1,9.072,5.208c-2.654.666-5.443,1.176-8.274.159l-.669-1.636-.394,1.637a2.412,2.412,0,0,1-2.591,0A6.093,6.093,0,0,1,739.2,303.829Z" transform="translate(-614.402 -257.238)" fill="#2f2e41"/>
    <path id="Path_1573" data-name="Path 1573" d="M740.191,374.423a18.031,18.031,0,0,1-25.235,1.824l1.547-4.317a4.643,4.643,0,0,1,3.943-2.708l.984-.06,2.347-2.024s6.324-.226,6.23-.334l3.83,2.3,0-.016,1.506.092a4.64,4.64,0,0,1,3.943,2.708Z" transform="translate(-597.852 -306.659)" fill="#02dccc"/>
    <path id="Path_1574" data-name="Path 1574" d="M723.6,700.818l-.448-6.234a20.164,20.164,0,0,0-9.467-2.123c4.617,3.568,4.247,10.7,7.444,15.581a12.129,12.129,0,0,0,9.044,5.36l3.842,2.21a20.325,20.325,0,0,0-4.732-16.347,19.633,19.633,0,0,0-3.7-3.253C724.744,698.424,723.6,700.818,723.6,700.818Z" transform="translate(-596.867 -558.729)" fill="#f2f2f2"/>
    <path id="Path_1575" data-name="Path 1575" d="M206.6,211.817l-.448-6.234a20.165,20.165,0,0,0-9.467-2.123c4.617,3.568,4.247,10.7,7.444,15.582a12.129,12.129,0,0,0,9.044,5.36l3.842,2.21a20.325,20.325,0,0,0-4.732-16.347,19.633,19.633,0,0,0-3.7-3.253C207.744,209.424,206.6,211.817,206.6,211.817Z" transform="translate(-196.684 -180.22)" fill="#f2f2f2"/>
    <path id="Path_1576" data-name="Path 1576" d="M620.117,645.4h-3l-1.426-11.559h4.423Z" transform="translate(-476.577 -490.621)" fill="#9e616a"/>
    <path id="Path_1577" data-name="Path 1577" d="M802.23,780.579h-9.663v-.122a3.761,3.761,0,0,1,3.761-3.761h0l1.765-1.339,3.293,1.339h.844Z" transform="translate(-657.926 -622.898)" fill="#2f2e41"/>
    <path id="Path_1578" data-name="Path 1578" d="M737.015,645.4h-3l-1.426-11.559h4.423Z" transform="translate(-567.062 -490.621)" fill="#9e616a"/>
    <path id="Path_1579" data-name="Path 1579" d="M919.128,780.579h-9.663v-.122a3.761,3.761,0,0,1,3.761-3.761h0l1.765-1.339,3.293,1.339h.844Z" transform="translate(-748.411 -622.898)" fill="#2f2e41"/>
    <path id="Path_1580" data-name="Path 1580" d="M829.123,509.645l2.521,23.947s3.356,23.977,2.725,27.286.158,3.781.158,3.781l-5.75-.41s.158-2.048-.788-2.993-.473-3.781-.473-3.781l-11.154-39.007-6.775,20.481s-1.1,22.529-1.26,22.844-.63,4.569-.63,4.569h-5.829s.788-2.521-.315-3.308-2.048-.158-1.1-1.575a5.141,5.141,0,0,0,.945-3.939,20.271,20.271,0,0,1-.315-3.939s.473-42.537,3.151-43.954S829.123,509.645,829.123,509.645Z" transform="translate(-663.728 -416.737)" fill="#2f2e41"/>
    <circle id="Ellipse_193" data-name="Ellipse 193" cx="6.2" cy="6.2" r="6.2" transform="translate(147.258 32.023)" fill="#9e616a"/>
    <path id="Path_1581" data-name="Path 1581" d="M842.519,354.569c-12.007,2.48-27.918-1.783-27.918-1.783l4.245-18.4-1.509-19.255a5.24,5.24,0,0,1,3.243-5.344l2.881-1.079,2.381-3.409,6.8.223,2.719,3.579,2.146,1.138,4.652,2.467.021.01v.01l-1.46,14.161-.88,8.538s2.674,9.6,2.125,10.876-.072.657.061,1.337.541.723.6,2.062S842.519,354.569,842.519,354.569Z" transform="translate(-674.982 -259.051)" fill="#3f3d56"/>
    <path id="Path_1582" data-name="Path 1582" d="M683.961,797.96H591.213a.208.208,0,1,1,0-.415H683.96a.208.208,0,1,1,0,.415Z" transform="translate(-501.908 -640.073)" fill="#ccc"/>
    <path id="Path_1583" data-name="Path 1583" d="M844.067,240.523a19.1,19.1,0,0,0,3.241-.311,9.685,9.685,0,0,0,4.032-3.118h0a9.383,9.383,0,0,0,.912-2.909,8.536,8.536,0,0,0-1.667-6.736,2.7,2.7,0,0,0-1.113-.9c-.039-.014-.08-.027-.121-.037a3.328,3.328,0,0,1-1.681-.981,2.737,2.737,0,0,0-.282-.276,4.1,4.1,0,0,0-1.732-.814c-1.023-.246-2.487.062-4.35.916a4.6,4.6,0,0,1-2.776.157.261.261,0,0,0-.243.09,1.84,1.84,0,0,1-1.238.531c-.284.02-.573.422-.92.945-.079.119-.171.257-.238.342l-.013-.159-.156.182a2.233,2.233,0,0,0,1.1,3.611,4.356,4.356,0,0,0,.879.117c.18.012.365.023.544.05a3.367,3.367,0,0,1,2.557,2.119.88.88,0,0,0,1.339.393,1.455,1.455,0,0,1,1.319-.276.966.966,0,0,1,.439.473,1.258,1.258,0,0,0,.492.545c.731.353.823,2,.6,3.38-.216,1.33-.685,2.3-1.141,2.36-.351.046-.391.072-.414.134l-.021.056.041.051A1.437,1.437,0,0,0,844.067,240.523Z" transform="translate(-690.911 -196.398)" fill="#2f2e41"/>
    <path id="Path_1584" data-name="Path 1584" d="M702.006,303.143a18.263,18.263,0,1,1,18.263-18.263,18.263,18.263,0,0,1-18.263,18.263Zm0-36.074a17.811,17.811,0,1,0,17.811,17.811A17.811,17.811,0,0,0,702.006,267.069Z" transform="translate(-573.691 -229.109)" fill="#3f3d56"/>
    <circle id="Ellipse_194" data-name="Ellipse 194" cx="18.037" cy="18.037" r="18.037" transform="translate(47.237 0.226)" fill="#fff"/>
    <circle id="Ellipse_195" data-name="Ellipse 195" cx="5.882" cy="5.882" r="5.882" transform="translate(60.228 8.34)" fill="#ffb8b8"/>
    <path id="bf427902-b9bf-4946-b5d7-5c1c7e04535e" d="M470.912,130.922s1.531-2.928-1.838-3.194c0,0-2.872-2.605-5.8-.476a2.94,2.94,0,0,0-2.47,1.807,1.1,1.1,0,0,0-1.532.8,8.325,8.325,0,0,0,0,5.057,9.9,9.9,0,0,0,1.224,2.661s-.645-2.972,3.031-3.238,7.048-2.569,7.354.359.643,1.605.643,1.605S474.434,132.12,470.912,130.922Z" transform="translate(-399.624 -120.586)" fill="#2f2e41"/>
    <path id="Path_1585" data-name="Path 1585" d="M459.155,208.423a18.031,18.031,0,0,1-25.235,1.824l1.547-4.317a4.642,4.642,0,0,1,3.943-2.708l.984-.06,2.347-2.024s6.324-.226,6.23-.334l3.83,2.3,0-.016,1.506.092a4.64,4.64,0,0,1,3.943,2.708Z" transform="translate(-380.316 -178.167)" fill="#02dccc"/>
    <path id="Path_1586" data-name="Path 1586" d="M423.006,137.143a18.263,18.263,0,1,1,18.263-18.263,18.263,18.263,0,0,1-18.263,18.263Zm0-36.074a17.811,17.811,0,1,0,17.811,17.811A17.811,17.811,0,0,0,423.006,101.069Z" transform="translate(-357.732 -100.617)" fill="#3f3d56"/>
    <circle id="Ellipse_196" data-name="Ellipse 196" cx="18.037" cy="18.037" r="18.037" transform="translate(5.137 28.696)" fill="#fff"/>
    <path id="Path_1587" data-name="Path 1587" d="M261.172,262.25a8.1,8.1,0,0,1,4.787-5.361c2.346-.8,5.78.421,7.544,2.178,3.226,3.215,4.013,14.259,1.8,17.749-.441-.023-1.962-.041-2.408-.057l-.631-2.1v2.083q-1.066-.033-2.149-.046a9.353,9.353,0,0,1-9.234-9.122A21.452,21.452,0,0,1,261.172,262.25Z" transform="translate(-246.357 -221.385)" fill="#2f2e41"/>
    <circle id="Ellipse_197" data-name="Ellipse 197" cx="5.14" cy="5.14" r="5.14" transform="translate(17.766 38.462)" fill="#9e616a"/>
    <path id="Path_1588" data-name="Path 1588" d="M278.429,263.458l5.919-2.964h0a7.439,7.439,0,0,1,4.357,6.164l.148,1.767-2.478-.631-.272-2.26-.421,2.083-1.144-.291.011-3.508-1.145,3.505-4.085-.939Z" transform="translate(-259.959 -224.37)" fill="#2f2e41"/>
    <path id="Path_1589" data-name="Path 1589" d="M272.035,334.169a18.031,18.031,0,0,1-25.235,1.824l1.547-4.317a4.642,4.642,0,0,1,3.943-2.708l.984-.06,2.347-2.024s6.324-.226,6.23-.334l3.83,2.3,0-.016,1.506.092a4.64,4.64,0,0,1,3.943,2.708Z" transform="translate(-235.476 -275.5)" fill="#02dccc"/>
    <path id="Path_1590" data-name="Path 1590" d="M236.683,263.143a18.263,18.263,0,1,1,18.263-18.263A18.263,18.263,0,0,1,236.683,263.143Zm0-36.074a17.811,17.811,0,1,0,17.811,17.811A17.811,17.811,0,0,0,236.683,227.069Z" transform="translate(-213.508 -198.147)" fill="#3f3d56"/>
    <path id="Path_1591" data-name="Path 1591" d="M737.593,372.635l-2.731-4.736c-3.537.449-10.347,4.966-10.347,4.966l-13.172,3.6a2.413,2.413,0,1,0,.9,4.079l16.894-2.2Z" transform="translate(-592.619 -307.507)" fill="#9e616a"/>
    <path id="Path_1592" data-name="Path 1592" d="M817.608,342.709l6.114-5.121.889-4.122a4.438,4.438,0,0,0-1.594-4.405h0a4.427,4.427,0,0,0-6.02.546c-2.265,2.54-4.813,6.048-4.088,8.336l.007.023Z" transform="translate(-673.574 -276.722)" fill="#3f3d56"/>
    <path id="Path_1593" data-name="Path 1593" d="M332.782,407.01H309.81a2.325,2.325,0,0,1-2.322-2.322V390.539a2.325,2.325,0,0,1,2.322-2.322h22.971a2.325,2.325,0,0,1,2.322,2.322v14.148A2.325,2.325,0,0,1,332.782,407.01Z" transform="translate(-282.452 -323.234)" fill="#e6e6e6"/>
    <path id="Path_1594" data-name="Path 1594" d="M329.691,411.431h-12.23a2.177,2.177,0,0,1-2.175-2.175v-10.8a2.177,2.177,0,0,1,2.175-2.175H337.2a2.177,2.177,0,0,1,2.175,2.175v3.286A9.7,9.7,0,0,1,329.691,411.431Z" transform="translate(-288.488 -329.477)" fill="#fff"/>
    <path id="Path_1595" data-name="Path 1595" d="M347.665,418.92h-15.8a.515.515,0,0,1,0-1.031h15.8a.515.515,0,1,1,0,1.031Z" transform="translate(-300.92 -346.201)" fill="#02dccc"/>
    <path id="Path_1596" data-name="Path 1596" d="M334.334,427.934h-2.472a.515.515,0,1,1,0-1.031h2.472a.515.515,0,1,1,0,1.031Z" transform="translate(-300.92 -353.178)" fill="#02dccc"/>
    <path id="Path_1597" data-name="Path 1597" d="M338.712,436.947h-6.85a.515.515,0,1,1,0-1.031h6.85a.515.515,0,1,1,0,1.031Z" transform="translate(-300.92 -360.155)" fill="#b8e6e2"/>
    <circle id="Ellipse_198" data-name="Ellipse 198" cx="4.859" cy="4.859" r="4.859" transform="translate(19.376 59.842)" fill="#3f3d56"/>
    <path id="Path_1598" data-name="Path 1598" d="M596.782,123.01H573.81a2.325,2.325,0,0,1-2.322-2.322V106.539a2.325,2.325,0,0,1,2.322-2.322h22.971a2.325,2.325,0,0,1,2.322,2.322v14.148A2.325,2.325,0,0,1,596.782,123.01Z" transform="translate(-486.801 -103.404)" fill="#e6e6e6"/>
    <path id="Path_1599" data-name="Path 1599" d="M593.691,127.431h-12.23a2.177,2.177,0,0,1-2.175-2.175v-10.8a2.177,2.177,0,0,1,2.175-2.175H601.2a2.177,2.177,0,0,1,2.175,2.175v3.286A9.7,9.7,0,0,1,593.691,127.431Z" transform="translate(-492.837 -109.647)" fill="#fff"/>
    <path id="Path_1600" data-name="Path 1600" d="M611.666,134.92h-15.8a.515.515,0,0,1,0-1.031h15.8a.515.515,0,0,1,0,1.031Z" transform="translate(-505.268 -126.371)" fill="#02dccc"/>
    <path id="Path_1601" data-name="Path 1601" d="M598.334,143.934h-2.472a.515.515,0,1,1,0-1.031h2.472a.515.515,0,1,1,0,1.031Z" transform="translate(-505.268 -133.349)" fill="#02dccc"/>
    <path id="Path_1602" data-name="Path 1602" d="M602.712,152.947h-6.85a.515.515,0,1,1,0-1.031h6.85a.515.515,0,1,1,0,1.031Z" transform="translate(-505.268 -140.325)" fill="#b8e6e2"/>
    <circle id="Ellipse_199" data-name="Ellipse 199" cx="4.859" cy="4.859" r="4.859" transform="translate(79.027 12.618)" fill="#3f3d56"/>
  </g>
</svg>
