<svg id="Component_2_1" data-name="Component 2 – 1" xmlns="http://www.w3.org/2000/svg" width="171.183" height="239.595" viewBox="0 0 171.183 239.595">
  <g id="google-place">
    <path id="Path_1406" data-name="Path 1406" d="M161.938.05a85.654,85.654,0,0,0-88.615,85.6c0,54.8,52.589,94.57,82.065,151.764a4.047,4.047,0,0,0,7.179,0c26.665-51.463,72.24-85.972,80.686-135.551C252,50.563,213.952,1.8,161.938.05Zm-2.965,130.465a44.864,44.864,0,1,1,44.865-44.864A44.865,44.865,0,0,1,158.973,130.515Z" transform="translate(-73.323 0)" fill="#02dccc"/>
  </g>
  <g id="Group_2557" data-name="Group 2557" transform="translate(-695 -733.652)">
    <ellipse id="Ellipse_152" data-name="Ellipse 152" cx="62.988" cy="62.988" rx="62.988" ry="62.988" transform="translate(717.434 759.956)" fill="#fff"/>
  </g>
  <g id="fast-delivery-_1_" transform="translate(35.625 41.649)">
    <path id="Path_1407" data-name="Path 1407" d="M54.569-479.739a14.321,14.321,0,0,0-3.927,1.512,14.467,14.467,0,0,0-4.056,4.074,11.822,11.822,0,0,0,1.456,14.029c1.088,1.18,1.125,1.235.7,1.346a19.141,19.141,0,0,0-1.917.848c-2.784,1.383-5.438,4.59-7.024,8.517-.369.9-.7,1.678-.719,1.715a2.239,2.239,0,0,1-.737-.406,6.168,6.168,0,0,0-1.364-.664c-1.088-.295-17.458-.221-18.325.074-2.212.793-3.337,2.636-2.249,3.706a1.274,1.274,0,0,0,1.954,0C19.118-445.8,19.69-446,21.294-446h1.475v2.489c0,2.415.018,2.526.461,2.95l.442.461h8.517l.442-.461c.442-.424.461-.535.461-2.968v-2.507l1.751.074c1.512.055,1.788.111,2.157.479l.424.424v12.868L37-431.77l-.424.424L28-431.291l-8.572.055-.535-.553a1.9,1.9,0,0,1-.553-.737c0-.129.627-.2,1.751-.2,1.622,0,1.807-.037,2.212-.461a1.437,1.437,0,0,0,.461-1.014,1.437,1.437,0,0,0-.461-1.014c-.406-.424-.59-.461-2.212-.461H18.344v-2.95h1.014c1.235,0,1.936-.535,1.936-1.475a1.437,1.437,0,0,0-.461-1.014l-.442-.461H11.873l-.442.461a1.355,1.355,0,0,0,0,2.028c.406.424.59.461,2.212.461h1.751v2.95H12.168c-3.189,0-3.245,0-3.687.461a1.355,1.355,0,0,0,0,2.028c.442.461.5.461,3.632.461h3.208l.221.83a4.764,4.764,0,0,0,3.152,3.374,25.414,25.414,0,0,0,4.664.221h4.056l-.682.793c-1.9,2.194-3.632,7.706-3.89,12.333-.129,2.12-.129,2.138.35,2.618.479.461.535.479,3.023.479H28.76l.295,1.272a11.854,11.854,0,0,0,8.554,8.591,14.9,14.9,0,0,0,5.715,0,11.843,11.843,0,0,0,8.536-8.554l.313-1.309H74.5l.24,1.143a11.9,11.9,0,0,0,11.448,9.181,11.906,11.906,0,0,0,11.8-11.8,11.927,11.927,0,0,0-6.452-10.49,12.522,12.522,0,0,0-5-1.309h-.848l-2.618-6.1c-1.438-3.374-2.581-6.139-2.562-6.176a5.926,5.926,0,0,1,1.069.221c1.475.387,2.157.332,2.673-.2l.461-.443V-451l-.479-.479c-.442-.443-.553-.461-1.678-.369a7.6,7.6,0,0,0-5.844,4l-.424.9-.535-.553a6.175,6.175,0,0,0-1.456-1.051c-.9-.479-1-.5-3.835-.442-3.429.055-4.185-.166-5.531-1.6A22.112,22.112,0,0,1,62.4-454c0-.055.184-.11.424-.11a4.395,4.395,0,0,0,1.438-.516,4.925,4.925,0,0,0,2.415-2.857,2.841,2.841,0,0,1,.83-1.29,3.14,3.14,0,0,0,.627-4.461,7.015,7.015,0,0,1-.756-1.567c-.24-.848-.24-1.844,0-1.844a1.49,1.49,0,0,0,.645-.461c.553-.535.608-1.512.184-3.5A11.9,11.9,0,0,0,56.6-479.9,17.248,17.248,0,0,0,54.569-479.739Zm4.24,3.042a8.993,8.993,0,0,1,4.24,2.507,9.635,9.635,0,0,1,2.231,3.982l.111.571-2.821.074c-2.415.055-2.968.111-3.705.461a6.808,6.808,0,0,0-3.042,2.987c-.479.959-.516,1.217-.571,3.871l-.074,2.821-.572-.111a9.636,9.636,0,0,1-3.982-2.231A8.993,8.993,0,0,1,48.117-466,8.934,8.934,0,0,1,58.81-476.7Zm5.4,11.411a11.93,11.93,0,0,0,.885,2.71l.664,1.364-.442.277c-.793.516-1.254,1.088-1.254,1.567a2.765,2.765,0,0,1-1,2.028c-.553.369-2.341.295-3.89-.148l-.922-.258-.055-3.226c-.037-3.06-.018-3.245.387-4.019.645-1.235,1.585-1.659,3.724-1.659H63.99Zm-9.918,9.144c2.433.461,3.945,1.622,6.415,4.959,1.862,2.526,3.042,3.669,4.443,4.369.571.276,1.051.535,1.088.553a2.754,2.754,0,0,1-.313.793,8.051,8.051,0,0,0-.608,2.157c-.221,1.364-.221,1.4-.7,1.309-2.747-.553-5.918-2.876-7.817-5.733-.977-1.475-1.659-1.751-2.581-1.014-.885.7-.645,1.641.959,3.761l.553.719-.516.664a13.947,13.947,0,0,0-2.028,3.834l-.332,1.051-6.213.055-6.231.037.111-1.512a30.386,30.386,0,0,1,1.751-7.374C44.762-454.1,49-457.137,54.293-456.141Zm27.469,11.614c0,4.683.018,4.646-1.53,3.079a4.077,4.077,0,0,1-1.42-3.079,4.143,4.143,0,0,1,1.42-3.1C81.78-449.173,81.761-449.21,81.761-444.527Zm-8.37-1.161a4.064,4.064,0,0,1,1.051,1.53l.479,1.125-.83.35a12.435,12.435,0,0,1-4.5,1l-1.383.018-.055-.535a4.126,4.126,0,0,1,2.083-3.705A3.778,3.778,0,0,1,73.392-445.688Zm-43.249,1.161v1.475H25.718V-446h4.424Zm29.2,3.392a14.82,14.82,0,0,0,4.812,2.046l1.659.424,2.065,8.9c1.254,5.438,2.065,9.328,2.065,9.955a4.663,4.663,0,0,1-1.032,3.153l-.479.5-.313-.885a5.579,5.579,0,0,0-3.263-3.429l-.7-.24-.111-5.143c-.092-5.475-.092-5.475-1.18-7.632a10.141,10.141,0,0,0-6.047-4.682,1.363,1.363,0,0,1-.811-.387c-.221-.59,1.622-3.706,2.046-3.429C58.164-441.909,58.736-441.541,59.344-441.135Zm20.26,9.088,3.411,7.983-3.208,4.517L76.6-415.031H71.511l.608-1.253a8.146,8.146,0,0,0,.811-4.646c-.147-.866-3.742-16.481-4-17.348-.074-.24.166-.313,1.383-.424a18.514,18.514,0,0,0,5.162-1.309c.258-.129.535-.184.59-.129C76.139-440.066,77.724-436.416,79.6-432.047Zm-24.39-3.447a7.352,7.352,0,0,1,5.07,3.5c.682,1.364.83,2.544.83,6.913v4.148h-5.9v-2.12c0-3.3-.866-5.328-2.913-6.8-1.678-1.235-2.6-1.4-7.688-1.4h-4.5l.184-.59a11.919,11.919,0,0,0,.166-2.212v-1.622h6.895C51.214-435.678,54.68-435.6,55.215-435.494Zm-5.881,7.411a4.749,4.749,0,0,1,2.489,2.12c.295.59.369,1.291.442,4.5l.092,3.779.664,1.327.645,1.327H25.681l.129-1.161a24.769,24.769,0,0,1,3.042-9.255,7.009,7.009,0,0,1,3.964-2.673C33.774-428.359,48.541-428.341,49.334-428.083Zm38.972,5.955a8.9,8.9,0,0,1,6.452,10.692,9.048,9.048,0,0,1-7.19,6.6,8.89,8.89,0,0,1-9.218-4.738,10.411,10.411,0,0,1-.756-1.917l-.111-.59h2.968l.442.977a5.823,5.823,0,0,0,2.876,2.876,6.37,6.37,0,0,0,4.9.018,6.722,6.722,0,0,0,2.876-2.857,6.963,6.963,0,0,0,.037-4.922,6.807,6.807,0,0,0-2.876-2.894,6.068,6.068,0,0,0-5.733.406c-.332.221-.479.277-.387.111.24-.406,2.323-3.355,2.636-3.724C85.578-422.5,86.813-422.515,88.306-422.128Zm-24.242,4.48c.719.387,1.6,1.825,1.42,2.3-.111.276-.5.313-3.281.313-3.558,0-4.259-.129-5.328-1.069a3.861,3.861,0,0,1-1.29-1.788c0-.055,1.77-.092,3.927-.092C62.957-417.98,63.511-417.943,64.064-417.649Zm23.745,1.641a2.6,2.6,0,0,1,1.235,2.452,2.6,2.6,0,0,1-1.272,2.47,3.1,3.1,0,0,1-3.3-.129c-.369-.276-.682-.59-.682-.7a3.424,3.424,0,0,1,1.475-.166c1.346,0,1.53-.055,1.936-.461a1.355,1.355,0,0,0,0-2.028c-.406-.406-.59-.461-1.936-.461a4.016,4.016,0,0,1-1.475-.147c0-.221.535-.682,1.2-1.051A3.176,3.176,0,0,1,87.808-416.008Zm-7.319.848c-.184.166-.2.148-.092-.111.055-.184.166-.276.221-.221S80.618-415.289,80.489-415.16Zm-45.351,4a6.009,6.009,0,0,0,5.328,3.392,6.009,6.009,0,0,0,5.328-3.392l.406-.922h2.987l-.129.59a9.617,9.617,0,0,1-2.268,4.037,8.763,8.763,0,0,1-12.647,0,9.617,9.617,0,0,1-2.268-4.037l-.111-.59h2.968Zm7.724-.756c0,.295-.94.922-1.678,1.161a2.392,2.392,0,0,1-1.438,0c-.737-.24-1.678-.866-1.678-1.161a8.644,8.644,0,0,1,2.4-.166A8.644,8.644,0,0,1,42.863-411.915Z" transform="translate(-8.025 479.905)" fill="#02dccc"/>
  </g>
</svg>
