<svg xmlns="http://www.w3.org/2000/svg" xmlns:xlink="http://www.w3.org/1999/xlink" width="164.511" height="150.826" viewBox="0 0 164.511 150.826">
  <defs>
    <linearGradient id="linear-gradient" x1="0.5" x2="0.5" y2="1" gradientUnits="objectBoundingBox">
      <stop offset="0" stop-color="#02dccc"/>
      <stop offset="1" stop-color="#00aca0"/>
    </linearGradient>
  </defs>
  <g id="Group_585" data-name="Group 585" transform="translate(-459.744 -856)">
    <path id="Path_1769" data-name="Path 1769" d="M50.845-490.372a16.966,16.966,0,0,0-11.724,11.049c-.578,1.863-.675,3.116-.835,10.375l-.128,8.223-12.27.128c-11.5.128-12.366.193-14.358.835A17.3,17.3,0,0,0,1.862-451.6C-.065-447.813,0-448.873,0-415.4c0,33.854-.064,32.794,2.024,36.777a18.486,18.486,0,0,0,6.649,6.617c3.469,1.734,4.85,1.927,14.9,1.927h9.186v13.715c0,12.463.064,13.844.578,14.872a2.327,2.327,0,0,0,3.18,1.317c.578-.225,6.263-6.231,14.358-15.128l13.394-14.743,24.154-.128c23.062-.1,24.218-.128,25.921-.739,5.685-2.056,9.54-5.91,11.049-11.114a13.352,13.352,0,0,0,.514-2.923,2.44,2.44,0,0,1,.257-1.317c.161-.1,3.212,3.116,6.842,7.1,3.6,3.983,7.034,7.645,7.612,8.158,1.317,1.188,2.7,1.221,3.758.128l.8-.771v-28.619h2.666a16.345,16.345,0,0,0,16.124-12.591c.739-3.116.707-62.377-.032-65.236a16.487,16.487,0,0,0-10.889-11.724l-2.248-.739-49.144-.161C58.875-490.854,52.291-490.789,50.845-490.372Zm100.792,5.782a11.516,11.516,0,0,1,7.034,8c.225,1.124.321,11.435.257,32.152l-.1,30.514-.835,1.8a11.362,11.362,0,0,1-5.4,5.364c-1.606.771-2.281.867-6.52,1.028-6.809.225-6.167-1.188-6.36,13.619l-.161,12.013-6.585-7.259-6.585-7.259-.161-26.338c-.193-25.76-.193-26.4-.867-28.137a34.4,34.4,0,0,0-1.381-3.212,20.387,20.387,0,0,0-6.745-6.488c-3.919-1.927-2.505-1.863-39.411-1.863H44v-8.03c0-7.259.064-8.158.642-9.764a11.215,11.215,0,0,1,7.612-6.617c.771-.193,18.919-.257,49.593-.161C143.961-485.1,150.385-485.008,151.638-484.59ZM112.58-454.751a10.618,10.618,0,0,1,7.195,6.424c.675,1.831.675,1.863.61,33.373l-.1,31.542-.8,1.574a11.374,11.374,0,0,1-4.882,4.882c-1.51.8-2.184.9-6.36,1.124-2.57.128-13.908.257-25.246.257l-20.589.032-1,.707c-.546.418-5.942,6.231-12.013,12.912L38.383-349.719l-.161-12.366c-.1-6.777-.225-12.366-.257-12.4-.8-.8-2.184-.9-12.912-1.06l-11.4-.161-1.831-.867a11.5,11.5,0,0,1-5.364-5.4l-.835-1.767v-62.955l.835-1.8a11.037,11.037,0,0,1,5.043-5.332c1.767-.867,2.024-.9,8.415-1.06,3.63-.128,25.6-.225,48.822-.257C103.2-455.168,111.263-455.1,112.58-454.751Z" transform="translate(459.745 1346.784)" fill="url(#linear-gradient)"/>
    <path id="Path_1770" data-name="Path 1770" d="M78.845-311.628a2.678,2.678,0,0,0-.931,4.336l.771.8H97.571c15-.032,19.015-.1,19.433-.45a2.747,2.747,0,0,0,.867-3.148c-.771-1.9-.514-1.863-20.268-1.831C87.646-311.918,79.2-311.789,78.845-311.628Z" transform="translate(407.366 1225.375)" fill="url(#linear-gradient)"/>
    <path id="Path_1771" data-name="Path 1771" d="M79.024-260.713a3.1,3.1,0,0,0-2.024,2.7,3.386,3.386,0,0,0,.771,1.8l.771.9,35.878.1c24.925.064,36.263-.032,37.131-.257a2.129,2.129,0,0,0,1.767-1.478,2.207,2.207,0,0,0,0-2.184,2.093,2.093,0,0,0-1.7-1.445C150.426-260.938,80.694-261.035,79.024-260.713Z" transform="translate(407.477 1190.745)" fill="url(#linear-gradient)"/>
    <path id="Path_1772" data-name="Path 1772" d="M77.862-208.2a2.508,2.508,0,0,0-.032,3.6l.771.9,35.942.1c25.632.064,36.263,0,37.131-.257a2.25,2.25,0,0,0,1.7-1.445,2.417,2.417,0,0,0-.61-2.987l-.642-.707H78.633Z" transform="translate(407.417 1155.509)" fill="url(#linear-gradient)"/>
  </g>
</svg>
