<svg xmlns="http://www.w3.org/2000/svg" xmlns:xlink="http://www.w3.org/1999/xlink" width="109" height="109" viewBox="0 0 109 109">
  <defs>
    <filter id="Ellipse_416" x="0" y="0" width="109" height="109" filterUnits="userSpaceOnUse">
      <feOffset dy="3" input="SourceAlpha"/>
      <feGaussianBlur stdDeviation="3" result="blur"/>
      <feFlood flood-opacity="0.161"/>
      <feComposite operator="in" in2="blur"/>
      <feComposite in="SourceGraphic"/>
    </filter>
  </defs>
  <g id="Group_2566" data-name="Group 2566" transform="translate(-922 -1793)">
    <g transform="matrix(1, 0, 0, 1, 922, 1793)" filter="url(#Ellipse_416)">
      <circle id="Ellipse_416-2" data-name="Ellipse 416" cx="45.5" cy="45.5" r="45.5" transform="translate(9 6)" fill="#02dccc"/>
    </g>
    <g id="information_5_" data-name="information (5)" transform="translate(950.383 2330.462)">
      <path id="Path_1995" data-name="Path 1995" d="M23.819-511.558a26.1,26.1,0,0,0-13.553,5.4A29.6,29.6,0,0,0,4.3-499.511a35.017,35.017,0,0,0-2.309,4.729,31.2,31.2,0,0,0-1.285,5.01,31.292,31.292,0,0,0,0,7.63,25.335,25.335,0,0,0,2.379,7.479A23.83,23.83,0,0,0,8-467.827a23.831,23.831,0,0,0,6.837,4.909,25.338,25.338,0,0,0,7.479,2.379,31.293,31.293,0,0,0,7.63,0,25.338,25.338,0,0,0,7.479-2.379,23.832,23.832,0,0,0,6.837-4.909,23.83,23.83,0,0,0,4.909-6.837,23.006,23.006,0,0,0,1.807-4.779,21.415,21.415,0,0,0,.783-6.516,21.416,21.416,0,0,0-.783-6.516,23.008,23.008,0,0,0-1.807-4.779,23.828,23.828,0,0,0-4.909-6.837A23.827,23.827,0,0,0,37.422-509a24.948,24.948,0,0,0-7.429-2.359A34.534,34.534,0,0,0,23.819-511.558Zm5.1,4.769a21.085,21.085,0,0,1,16.2,11.877,19.885,19.885,0,0,1,1.988,8.955,19.67,19.67,0,0,1-.592,5.08,21.177,21.177,0,0,1-15.31,15.31,19.672,19.672,0,0,1-5.08.592,19.672,19.672,0,0,1-5.08-.592,21.177,21.177,0,0,1-15.31-15.31,19.67,19.67,0,0,1-.592-5.08,19.669,19.669,0,0,1,.592-5.08,21.138,21.138,0,0,1,15.33-15.31c.673-.161,1.646-.361,2.158-.432A28.379,28.379,0,0,1,28.919-506.789Z" transform="translate(0 0)" fill="#fff"/>
      <path id="Path_1996" data-name="Path 1996" d="M227.107-402.8a3.211,3.211,0,0,0-1.918,2.59,3.088,3.088,0,0,0,3.082,3.353,3.074,3.074,0,0,0,2.63-4.688A3.133,3.133,0,0,0,227.107-402.8Z" transform="translate(-202.143 -97.7)" fill="#fff"/>
      <path id="Path_1997" data-name="Path 1997" d="M234.626-294.726a2.194,2.194,0,0,0-1.385,1.195l-.241.512v7.529c0,7.118.01,7.55.191,7.931a2.331,2.331,0,0,0,3.715.723,3.006,3.006,0,0,0,.522-.723c.181-.382.191-.813.191-7.931v-7.529l-.241-.512a2.207,2.207,0,0,0-1.426-1.2A1.731,1.731,0,0,0,234.626-294.726Z" transform="translate(-209.181 -194.997)" fill="#fff"/>
    </g>
  </g>
</svg>
