<svg xmlns="http://www.w3.org/2000/svg" xmlns:xlink="http://www.w3.org/1999/xlink" width="76.106" height="77.38" viewBox="0 0 76.106 77.38">
  <defs>
    <filter id="Ellipse_331" x="0" y="0" width="76.106" height="77.38" filterUnits="userSpaceOnUse">
      <feOffset dy="3" input="SourceAlpha"/>
      <feGaussianBlur stdDeviation="3" result="blur"/>
      <feFlood flood-opacity="0.161"/>
      <feComposite operator="in" in2="blur"/>
      <feComposite in="SourceGraphic"/>
    </filter>
  </defs>
  <g id="Group_2566" data-name="Group 2566" transform="translate(-94 -272.62)">
    <g transform="matrix(1, 0, 0, 1, 94, 272.62)" filter="url(#Ellipse_331)">
      <path id="Ellipse_331-2" data-name="Ellipse 331" d="M37.867,6.19A28.58,28.58,0,0,1,49.2,8.44a29.072,29.072,0,0,1,9.3,6.3,29.77,29.77,0,0,1,0,41.909,29.072,29.072,0,0,1-9.3,6.3A28.741,28.741,0,0,1,26.587,62.8a29.087,29.087,0,0,1-9.17-6.349,29.773,29.773,0,0,1,0-41.531,29.087,29.087,0,0,1,9.17-6.349A28.586,28.586,0,0,1,37.867,6.19Z" fill="#b8e6e2"/>
    </g>
    <g id="share_2_" data-name="share (2)" transform="translate(117.763 295.039)">
      <g id="Path_44" data-name="Path 44" transform="translate(15.6 0)" fill="#0a1f30">
        <path d="M4.546,8.739a3.982,3.982,0,0,1-1.576-.322,4.059,4.059,0,0,1-1.288-.88,4.142,4.142,0,0,1,0-5.809A4.081,4.081,0,0,1,2.969.843,4,4,0,0,1,6.124.834a4.059,4.059,0,0,1,1.291.879,4.142,4.142,0,0,1,0,5.816,4.081,4.081,0,0,1-1.291.884A3.991,3.991,0,0,1,4.546,8.739Zm0-6.579a2.4,2.4,0,0,0-.946.2,2.449,2.449,0,0,0-.773.531,2.483,2.483,0,0,0,0,3.487A2.436,2.436,0,0,0,3.6,6.9a2.4,2.4,0,0,0,1.892,0,2.449,2.449,0,0,0,.774-.53,2.483,2.483,0,0,0,0-3.489,2.435,2.435,0,0,0-.774-.527A2.389,2.389,0,0,0,4.546,2.159Z" stroke="none"/>
        <path d="M 4.545977592468262 9.239411354064941 C 3.918777942657471 9.240024566650391 3.320988893508911 9.111309051513672 2.777080535888672 8.878204345703125 C 2.233333349227905 8.645156860351562 1.743475914001465 8.307757377624512 1.332011580467224 7.890903472900391 C 0.9206519722938538 7.474124908447266 0.5875980257987976 6.977890968322754 0.3574337959289551 6.427055358886719 C 0.1272928714752197 5.876275062561035 -3.053966065635905e-05 5.270853996276855 -3.053966065635905e-05 4.635604381561279 C -3.053966065635905e-05 4.000355243682861 0.1272928714752197 3.394427299499512 0.3574337959289551 2.84273099899292 C 0.5875980257987976 2.29097843170166 0.9206519722938538 1.793418884277344 1.332011580467224 1.375002503395081 C 1.743475914001465 0.9565101861953735 2.233333349227905 0.6171607971191406 2.777080535888672 0.3819479644298553 C 3.320988893508911 0.1466787308454514 3.918777942657471 0.0155847305431962 4.545977592468262 0.01369976531714201 C 5.173381805419922 0.01181416120380163 5.771688461303711 0.1393830478191376 6.316283226013184 0.3715939819812775 C 6.861008644104004 0.6038603782653809 7.351970672607422 0.9408081769943237 7.764526844024658 1.357584595680237 C 8.177158355712891 1.774436712265015 8.511296272277832 2.271117687225342 8.742287635803223 2.822731733322144 C 8.973333358764648 3.374402284622192 9.101160049438477 3.980966091156006 9.101160049438477 4.617488861083984 C 9.101160049438477 5.254011154174805 8.973333358764648 5.861085414886475 8.742287635803223 6.413675308227539 C 8.511296272277832 6.966208934783936 8.177158355712891 7.464219570159912 7.764526844024658 7.882713794708252 C 7.351970672607422 8.301132202148438 6.861008644104004 8.640034675598145 6.316283226013184 8.874469757080078 C 5.771688461303711 9.108848571777344 5.173381805419922 9.238799095153809 4.545977592468262 9.239411354064941 Z M 4.545977592468262 1.015425324440002 C 4.054948329925537 1.016792893409729 3.586935520172119 1.119321823120117 3.161099433898926 1.303424954414368 C 2.735373973846436 1.487493634223938 2.351794004440308 1.75311291217804 2.029595375061035 2.080719709396362 C 1.707442402839661 2.408280372619629 1.446635961532593 2.797828912734985 1.26640522480011 3.229828596115112 C 1.086158514022827 3.661794662475586 0.9864315390586853 4.13623571395874 0.9864315390586853 4.633641242980957 C 0.9864315390586853 5.131046772003174 1.086158514022827 5.605090618133545 1.26640522480011 6.036337852478027 C 1.446635961532593 6.467620849609375 1.707442402839661 6.856131076812744 2.029595375061035 7.182408809661865 C 2.351794004440308 7.508732795715332 2.735373973846436 7.772824764251709 3.161099433898926 7.955198764801025 C 3.586935520172119 8.137608528137207 4.054948329925537 8.238273620605469 4.545977592468262 8.237685203552246 C 5.037113189697266 8.237098693847656 5.505486011505127 8.135271072387695 5.931731224060059 7.951712608337402 C 6.358087062835693 7.768121242523193 6.742343425750732 7.5027756690979 7.065180778503418 7.175213813781738 C 7.388093948364258 6.84760570526123 7.64958381652832 6.457780361175537 7.830351829528809 6.025300979614258 C 8.011164665222168 5.592788219451904 8.111200332641602 5.117645263671875 8.111200332641602 4.619459629058838 C 8.111200332641602 4.121273517608643 8.011164665222168 3.646528959274292 7.830351829528809 3.214735269546509 C 7.64958381652832 2.782976150512695 7.388093948364258 2.394191980361938 7.065180778503418 2.067868947982788 C 6.742343425750732 1.741592288017273 6.358087062835693 1.477776885032654 5.931731224060059 1.295882105827332 C 5.505486011505127 1.114021420478821 5.037113189697266 1.014057517051697 4.545977592468262 1.015425324440002 Z M 4.545977592468262 7.594608783721924 C 4.142388343811035 7.59514856338501 3.757683992385864 7.512461185455322 3.407635927200317 7.362576484680176 C 3.05767297744751 7.212715148925781 2.742376089096069 6.995673179626465 2.477506875991821 6.727466106414795 C 2.212668418884277 6.459288597106934 1.998264312744141 6.139945030212402 1.850082755088806 5.7854323387146 C 1.701910614967346 5.430941581726074 1.619882106781006 5.041263580322266 1.619882106781006 4.63238000869751 C 1.619882106781006 4.223495960235596 1.701910614967346 3.833492994308472 1.850082755088806 3.478412389755249 C 1.998264312744141 3.123308420181274 2.212668418884277 2.803111553192139 2.477506875991821 2.533880472183228 C 2.742376089096069 2.264617681503296 3.05767297744751 2.046320915222168 3.407635927200317 1.895066618919373 C 3.757683992385864 1.743789076805115 4.142388343811035 1.659570097923279 4.545977592468262 1.65850293636322 C 4.949639320373535 1.65743613243103 5.33457612991333 1.739649415016174 5.684890270233154 1.889163732528687 C 6.03528881072998 2.038701057434082 6.351104259490967 2.255556106567383 6.616425037384033 2.523731708526611 C 6.881747245788574 2.79193902015686 7.096611976623535 3.111467599868774 7.245136737823486 3.466303586959839 C 7.39370059967041 3.821162223815918 7.475907325744629 4.211312770843506 7.475907325744629 4.620723724365234 C 7.475907325744629 5.030135154724121 7.39370059967041 5.420612812042236 7.245136737823486 5.776063442230225 C 7.096611976623535 6.131490707397461 6.881747245788574 6.451874256134033 6.616425037384033 6.721137523651123 C 6.351104259490967 6.990370273590088 6.03528881072998 7.208481788635254 5.684890270233154 7.359414100646973 C 5.33457612991333 7.510323047637939 4.949639320373535 7.594069480895996 4.545977592468262 7.594608783721924 Z M 4.545977592468262 2.660228490829468 C 4.278603553771973 2.660876750946045 4.023712158203125 2.716618776321411 3.79176139831543 2.816797971725464 C 3.559865474700928 2.916967868804932 3.350900411605835 3.061568021774292 3.175381660461426 3.23995041847229 C 2.999906778335571 3.4183189868927 2.857805728912354 3.63046932220459 2.759590864181519 3.865760564804077 C 2.661349534988403 4.101041793823242 2.607048273086548 4.359471321105957 2.607048273086548 4.630414962768555 C 2.607048273086548 4.901359081268311 2.661349534988403 5.159571647644043 2.759590864181519 5.394462585449219 C 2.857805728912354 5.629363059997559 2.999906778335571 5.840948104858398 3.175381660461426 6.018617630004883 C 3.350900411605835 6.196300983428955 3.559865474700928 6.340069770812988 3.79176139831543 6.439315795898438 C 4.023712158203125 6.538573265075684 4.278603553771973 6.593299865722656 4.545977592468262 6.592883110046387 C 4.813414573669434 6.592466831207275 5.068363666534424 6.536932468414307 5.300444602966309 6.436914443969727 C 5.532548904418945 6.336886405944824 5.741683959960938 6.192367076873779 5.917431831359863 6.013998031616211 C 6.093193531036377 5.835615634918213 6.235466480255127 5.623383045196533 6.333831787109375 5.387949466705322 C 6.432230949401855 5.152505397796631 6.486654758453369 4.893868446350098 6.486654758453369 4.622693061828613 C 6.486654758453369 4.351517677307129 6.432230949401855 4.093096733093262 6.333831787109375 3.858044862747192 C 6.235466480255127 3.623003005981445 6.093193531036377 3.41133713722229 5.917431831359863 3.233654022216797 C 5.741683959960938 3.055984735488892 5.532548904418945 2.912298202514648 5.300444602966309 2.813194036483765 C 5.068363666534424 2.714100122451782 4.813414573669434 2.659580945968628 4.545977592468262 2.660228490829468 Z" stroke="none" fill="#0a1f30"/>
      </g>
      <g id="Path_45" data-name="Path 45" transform="translate(15.6 18.102)" fill="#0a1f30">
        <path d="M4.546,8.729A3.992,3.992,0,0,1,2.969,8.4a4.081,4.081,0,0,1-1.288-.885,4.138,4.138,0,0,1,0-5.809A4.059,4.059,0,0,1,2.969.827a4.005,4.005,0,0,1,3.154,0,4.082,4.082,0,0,1,1.291.884,4.138,4.138,0,0,1,0,5.816,4.058,4.058,0,0,1-1.291.879A3.982,3.982,0,0,1,4.546,8.729Zm0-6.579a2.389,2.389,0,0,0-.946.193,2.436,2.436,0,0,0-.773.528A2.481,2.481,0,0,0,3.6,6.888a2.4,2.4,0,0,0,1.892,0,2.435,2.435,0,0,0,.774-.527,2.481,2.481,0,0,0-.774-4.02A2.4,2.4,0,0,0,4.546,2.15Z" stroke="none"/>
        <path d="M 4.545977592468262 9.2301025390625 C 3.918777942657471 9.228218078613281 3.320988893508911 9.097145080566406 2.777080535888672 8.86188793182373 C 2.233333349227905 8.626656532287598 1.743475914001465 8.287307739257812 1.332011580467224 7.868835926055908 C 0.9206519722938538 7.450438976287842 0.5875980257987976 6.952856063842773 0.3574337959289551 6.40112829208374 C 0.1272928714752197 5.84939432144165 -3.053966065635905e-05 5.243476390838623 -3.053966065635905e-05 4.608251571655273 C -3.053966065635905e-05 3.97299599647522 0.1272928714752197 3.367580413818359 0.3574337959289551 2.81683349609375 C 0.5875980257987976 2.265969514846802 0.9206519722938538 1.769765615463257 1.332011580467224 1.352967858314514 C 1.743475914001465 0.9360944628715515 2.233333349227905 0.5986884236335754 2.777080535888672 0.365661084651947 C 3.320988893508911 0.1325473785400391 3.918777942657471 0.00382075272500515 4.545977592468262 0.004432684276252985 C 5.173381805419922 0.0050447853282094 5.771688461303711 0.135003998875618 6.316283226013184 0.3694017231464386 C 6.861008644104004 0.6038250327110291 7.351970672607422 0.9427258372306824 7.764526844024658 1.361155390739441 C 8.177158355712891 1.779660940170288 8.511296272277832 2.277634143829346 8.742287635803223 2.830204963684082 C 8.973333358764648 3.382770776748657 9.101160049438477 3.989834070205688 9.101160049438477 4.626362800598145 C 9.101160049438477 5.262861251831055 8.973333358764648 5.869420051574707 8.742287635803223 6.421118259429932 C 8.511296272277832 6.972699642181396 8.177158355712891 7.469411849975586 7.764526844024658 7.886251926422119 C 7.351970672607422 8.303016662597656 6.861008644104004 8.639970779418945 6.316283226013184 8.872247695922852 C 5.771688461303711 9.104436874389648 5.173381805419922 9.231987953186035 4.545977592468262 9.2301025390625 Z M 4.545977592468262 1.006158232688904 C 4.054948329925537 1.005591034889221 3.586935520172119 1.106256246566772 3.161099433898926 1.288662314414978 C 2.735373973846436 1.471034407615662 2.351794004440308 1.7351233959198 2.029595375061035 2.06146240234375 C 1.707442402839661 2.387724876403809 1.446635961532593 2.776206493377686 1.26640522480011 3.207528114318848 C 1.086158514022827 3.638754606246948 0.9864315390586853 4.112814426422119 0.9864315390586853 4.610230445861816 C 0.9864315390586853 5.107645988464355 1.086158514022827 5.582060813903809 1.26640522480011 6.01401948928833 C 1.446635961532593 6.445982933044434 1.707442402839661 6.835544109344482 2.029595375061035 7.163101196289062 C 2.351794004440308 7.490705966949463 2.735373973846436 7.756307601928711 3.161099433898926 7.940369129180908 C 3.586935520172119 8.124496459960938 4.054948329925537 8.227028846740723 4.545977592468262 8.228377342224121 C 5.037113189697266 8.229755401611328 5.505486011505127 8.129792213439941 5.931731224060059 7.947902202606201 C 6.358087062835693 7.766040802001953 6.742343425750732 7.502228260040283 7.065180778503418 7.175936698913574 C 7.388093948364258 6.849629878997803 7.64958381652832 6.460843563079834 7.830351829528809 6.029106140136719 C 8.011164665222168 5.597333908081055 8.111200332641602 5.122604370117188 8.111200332641602 4.62440824508667 C 8.111200332641602 4.126211643218994 8.011164665222168 3.651064395904541 7.830351829528809 3.218558073043823 C 7.64958381652832 2.786055326461792 7.388093948364258 2.396247863769531 7.065180778503418 2.068641901016235 C 6.742343425750732 1.741082429885864 6.358087062835693 1.475755095481873 5.931731224060059 1.292139291763306 C 5.505486011505127 1.108588576316833 5.037113189697266 1.006756186485291 4.545977592468262 1.006158232688904 Z M 4.545977592468262 7.585331916809082 C 4.142388343811035 7.584261417388916 3.757683992385864 7.500024318695068 3.407635927200317 7.348742008209229 C 3.05767297744751 7.197514057159424 2.742376089096069 6.979226589202881 2.477506875991821 6.709955215454102 C 2.212668418884277 6.440744876861572 1.998264312744141 6.12054967880249 1.850082755088806 5.765457630157471 C 1.701910614967346 5.410356998443604 1.619882106781006 5.020372867584229 1.619882106781006 4.611484050750732 C 1.619882106781006 4.202595710754395 1.701910614967346 3.812900543212891 1.850082755088806 3.458406686782837 C 1.998264312744141 3.103889465332031 2.212668418884277 2.78452730178833 2.477506875991821 2.51634407043457 C 2.742376089096069 2.248159885406494 3.05767297744751 2.031124353408813 3.407635927200317 1.881279587745667 C 3.757683992385864 1.731381416320801 4.142388343811035 1.648659348487854 4.545977592468262 1.649203181266785 C 4.949639320373535 1.649747252464294 5.33457612991333 1.733510971069336 5.684890270233154 1.884424209594727 C 6.03528881072998 2.035360813140869 6.351104259490967 2.253462791442871 6.616425037384033 2.522673606872559 C 6.881747245788574 2.791946649551392 7.096611976623535 3.11232852935791 7.245136737823486 3.467775821685791 C 7.39370059967041 3.823245763778687 7.475907325744629 4.213734149932861 7.475907325744629 4.62315034866333 C 7.475907325744629 5.032566070556641 7.39370059967041 5.422703742980957 7.245136737823486 5.777566432952881 C 7.096611976623535 6.13237476348877 6.881747245788574 6.45192289352417 6.616425037384033 6.720105648040771 C 6.351104259490967 6.988288402557373 6.03528881072998 7.205136775970459 5.684890270233154 7.354627132415771 C 5.33457612991333 7.504155158996582 4.949639320373535 7.586403846740723 4.545977592468262 7.585331916809082 Z M 4.545977592468262 2.650928735733032 C 4.278603553771973 2.650528430938721 4.023712158203125 2.705247163772583 3.79176139831543 2.804506540298462 C 3.559865474700928 2.903756618499756 3.350900411605835 3.047509670257568 3.175381660461426 3.225196123123169 C 2.999906778335571 3.402899265289307 2.857805728912354 3.614474296569824 2.759590864181519 3.849388599395752 C 2.661349534988403 4.084292888641357 2.607048273086548 4.342483043670654 2.607048273086548 4.613433837890625 C 2.607048273086548 4.884384155273438 2.661349534988403 5.142806529998779 2.759590864181519 5.37809419631958 C 2.857805728912354 5.613391876220703 2.999906778335571 5.825561046600342 3.175381660461426 6.00389575958252 C 3.350900411605835 6.182274341583252 3.559865474700928 6.32688045501709 3.79176139831543 6.427028656005859 C 4.023712158203125 6.527249336242676 4.278603553771973 6.582974910736084 4.545977592468262 6.583606243133545 C 4.813414573669434 6.584269523620605 5.068363666534424 6.529758453369141 5.300444602966309 6.430630207061768 C 5.532548904418945 6.331552982330322 5.741683959960938 6.187851428985596 5.917431831359863 6.010210037231445 C 6.093193531036377 5.832524299621582 6.235466480255127 5.62086820602417 6.333831787109375 5.385812282562256 C 6.432230949401855 5.150745391845703 6.486654758453369 4.892347812652588 6.486654758453369 4.621165752410889 C 6.486654758453369 4.349983692169189 6.432230949401855 4.091352939605713 6.333831787109375 3.855903625488281 C 6.235466480255127 3.620464324951172 6.093193531036377 3.408212900161743 5.917431831359863 3.229833602905273 C 5.741683959960938 3.051437377929688 5.532548904418945 2.906943321228027 5.300444602966309 2.806905508041382 C 5.068363666534424 2.706877708435059 4.813414573669434 2.651360034942627 4.545977592468262 2.650928735733032 Z" stroke="none" fill="#0a1f30"/>
      </g>
      <g id="Path_46" data-name="Path 46" transform="translate(0 9.071)" fill="#0a1f30">
        <path d="M4.515,8.7a3.948,3.948,0,0,1-1.566-.324A4.041,4.041,0,0,1,1.67,7.5a4.135,4.135,0,0,1,0-5.789A4.041,4.041,0,0,1,2.949.828a3.965,3.965,0,0,1,3.133,0A4.041,4.041,0,0,1,7.364,1.7a4.135,4.135,0,0,1,0,5.8,4.041,4.041,0,0,1-1.282.878A3.948,3.948,0,0,1,4.515,8.7Zm0-6.557a2.369,2.369,0,0,0-.939.194,2.425,2.425,0,0,0-.768.528,2.481,2.481,0,0,0,0,3.475,2.425,2.425,0,0,0,.768.528,2.379,2.379,0,0,0,1.879,0,2.425,2.425,0,0,0,.769-.527,2.481,2.481,0,0,0,0-3.477,2.425,2.425,0,0,0-.769-.527A2.368,2.368,0,0,0,4.515,2.143Z" stroke="none"/>
        <path d="M 4.514856338500977 9.198554992675781 C 3.891944885253906 9.197930335998535 3.298226833343506 9.068454742431641 2.758078813552856 8.835090637207031 C 2.218059301376343 8.601766586303711 1.73155951499939 8.264547348022461 1.322927832603455 7.848306179046631 C 0.9143697619438171 7.432155609130859 0.5836237668991089 6.93696928024292 0.35502889752388 6.387564182281494 C 0.1264570951461792 5.838213920593262 -4.933755008096341e-06 5.234636783599854 -4.933755008096341e-06 4.601563930511475 C -4.933755008096341e-06 3.968506336212158 0.1264570951461792 3.364896774291992 0.3550289273262024 2.81557035446167 C 0.5836237668991089 2.266173124313354 0.9143698215484619 1.770989418029785 1.322927832603455 1.354817509651184 C 1.73155951499939 0.938585638999939 2.218059301376343 0.6013805270195007 2.758078813552856 0.3680583834648132 C 3.298226833343506 0.1346652507781982 3.891944885253906 0.0052240458317101 4.514856338500977 0.004584996961057186 C 5.137939929962158 0.003961007576435804 5.732141017913818 0.1322692930698395 6.272998809814453 0.3647630512714386 C 6.813986301422119 0.5973123908042908 7.301578521728516 0.9340858459472656 7.711290836334229 1.350236177444458 C 8.121076583862305 1.766476988792419 8.452925682067871 2.262109756469727 8.682338714599609 2.812289714813232 C 8.911776542663574 3.362494945526123 9.038737297058105 3.967239379882812 9.038737297058105 4.601561546325684 C 9.038737297058105 5.235898971557617 8.911776542663574 5.840613842010498 8.682338714599609 6.390856742858887 C 8.452925682067871 6.941028118133545 8.121076583862305 7.436658382415771 7.711290836334229 7.852890491485596 C 7.301578521728516 8.269062042236328 6.813986301422119 8.60582160949707 6.272998809814453 8.83836841583252 C 5.732141017913818 9.070860862731934 5.137939929962158 9.199195861816406 4.514856338500977 9.198554992675781 Z M 4.514856338500977 1.002865314483643 C 4.027203559875488 1.003260016441345 3.562376499176025 1.104508280754089 3.139466762542725 1.287124991416931 C 2.716636180877686 1.469707608222961 2.335691213607788 1.733649969100952 2.015705585479736 2.059491634368896 C 1.695765256881714 2.385287284851074 1.436749815940857 2.772982120513916 1.257726430892944 3.2031409740448 C 1.078717231750488 3.633265972137451 0.9796749353408813 4.10586404800415 0.9796749353408813 4.601555347442627 C 0.9796749353408813 5.097261428833008 1.078717231750488 5.569878101348877 1.257726430892944 6.000002384185791 C 1.436749815940857 6.430160522460938 1.695765256881714 6.817848682403564 2.015705585479736 7.143640041351318 C 2.335691213607788 7.46947717666626 2.716636180877686 7.733417987823486 3.139466762542725 7.916007518768311 C 3.562376499176025 8.09864616394043 4.027203559875488 8.199894905090332 4.514856338500977 8.200274467468262 C 5.002615451812744 8.20067024230957 5.467737674713135 8.100118637084961 5.891082286834717 7.91802978515625 C 6.314505577087402 7.73590612411499 6.696120738983154 7.472237110137939 7.016768932342529 7.146457672119141 C 7.337461471557617 6.820615291595459 7.597153186798096 6.432647228240967 7.776678085327148 6.002013683319092 C 7.956217765808105 5.571345806121826 8.055564880371094 5.09803581237793 8.055564880371094 4.601554393768311 C 8.055564880371094 4.105088233947754 7.956217765808105 3.631790161132812 7.776678085327148 3.201123952865601 C 7.597153186798096 2.770491123199463 7.337461471557617 2.382529258728027 7.016768932342529 2.056691884994507 C 6.696120738983154 1.730885148048401 6.314505577087402 1.467218279838562 5.891082286834717 1.285118818283081 C 5.467737674713135 1.10303807258606 5.002615451812744 1.002485752105713 4.514856338500977 1.002865314483643 Z M 4.514856338500977 7.559395790100098 C 4.11403751373291 7.559138774871826 3.731966018676758 7.475969791412354 3.384336709976196 7.325910091400146 C 3.036761283874512 7.175873756408691 2.723607063293457 6.958963394165039 2.460556745529175 6.691135406494141 C 2.197537422180176 6.423355102539062 1.984598636627197 6.104687213897705 1.837419867515564 5.751104831695557 C 1.690250515937805 5.397545337677002 1.608823776245117 5.009038925170898 1.608823776245117 4.601555824279785 C 1.608823776245117 4.194072246551514 1.690250515937805 3.805579662322998 1.837419867515564 3.451999664306641 C 1.984598636627197 3.098411560058594 2.197537422180176 2.779735803604126 2.460556745529175 2.511956453323364 C 2.723607063293457 2.244161367416382 3.036761283874512 2.02723217010498 3.384336709976196 1.877201795578003 C 3.731966018676758 1.727133393287659 4.11403751373291 1.643964529037476 4.514856338500977 1.643698573112488 C 4.915747165679932 1.643447995185852 5.298018455505371 1.726130962371826 5.645941257476807 1.87583863735199 C 5.993918418884277 2.025554656982422 6.30752420425415 2.242295742034912 6.57102108001709 2.510061502456665 C 6.834549903869629 2.777873992919922 7.047945022583008 3.096725940704346 7.195462703704834 3.450644493103027 C 7.342990398406982 3.804585695266724 7.424623489379883 4.193547248840332 7.424623489379883 4.601553916931152 C 7.424623489379883 5.009561061859131 7.342990398406982 5.398539543151855 7.195462703704834 5.752470970153809 C 7.047945022583008 6.106364250183105 6.834549903869629 6.425225257873535 6.57102108001709 6.693035125732422 C 6.30752420425415 6.960829734802246 5.993918418884277 7.177559375762939 5.645941257476807 7.327268123626709 C 5.298018455505371 7.476954936981201 4.915747165679932 7.559669017791748 4.514856338500977 7.559395790100098 Z M 4.514856338500977 2.641978979110718 C 4.249306678771973 2.642098188400269 3.996162414550781 2.697147130966187 3.765826225280762 2.796522617340088 C 3.535513639450073 2.895888566970825 3.327999353408813 3.039559125900269 3.153679609298706 3.216984987258911 C 2.979373216629028 3.394397258758545 2.838251113891602 3.605534315109253 2.740707635879517 3.839839220046997 C 2.643168449401855 4.074103832244873 2.589200496673584 4.331543445587158 2.589200496673584 4.6015625 C 2.589200496673584 4.871581554412842 2.643168449401855 5.129008769989014 2.740707635879517 5.363289356231689 C 2.838251113891602 5.597579956054688 2.979373216629028 5.808714389801025 3.153679609298706 5.986115455627441 C 3.327999353408813 6.163530349731445 3.535513639450073 6.307241439819336 3.765826225280762 6.406588077545166 C 3.996162414550781 6.505959987640381 4.249306678771973 6.561005592346191 4.514856338500977 6.561115741729736 C 4.78043794631958 6.561241149902344 5.033669471740723 6.506399154663086 5.264134883880615 6.40718412399292 C 5.49462366104126 6.307974815368652 5.70233678817749 6.164354801177979 5.876852512359619 5.986942291259766 C 6.051382064819336 5.809531688690186 6.192705154418945 5.598313331604004 6.290397167205811 5.363883018493652 C 6.3880934715271 5.12944221496582 6.442152500152588 4.871811389923096 6.442152500152588 4.6015625 C 6.442152500152588 4.331313610076904 6.3880934715271 4.07366418838501 6.290397167205811 3.839238405227661 C 6.192705154418945 3.604792356491089 6.051382064819336 3.393576622009277 5.876852512359619 3.216146469116211 C 5.70233678817749 3.038745641708374 5.49462366104126 2.895145654678345 5.264134883880615 2.795924425125122 C 5.033669471740723 2.69671368598938 4.78043794631958 2.64187479019165 4.514856338500977 2.641978979110718 Z" stroke="none" fill="#0a1f30"/>
      </g>
      <g id="Path_47" data-name="Path 47" transform="translate(6.02 4.925)" fill="#0a1f30">
        <path d="M1.3,7.95a.8.8,0,0,1-.7-.413.832.832,0,0,1,.06-.9A.807.807,0,0,1,.9,6.418l10-5.8A.8.8,0,0,1,11.8.675a.811.811,0,0,1,.211.246.833.833,0,0,1-.06.907.813.813,0,0,1-.243.215l-10,5.8a.828.828,0,0,1-.1.047.8.8,0,0,1-.1.033.788.788,0,0,1-.2.027Z" stroke="none"/>
        <path d="M 1.301597237586975 8.449259757995605 L 1.30150580406189 8.449259757995605 C 1.184691190719604 8.449247360229492 1.070054888725281 8.433274269104004 0.9602339863777161 8.40289306640625 C 0.8504106998443604 8.372520446777344 0.7454017996788025 8.327749252319336 0.6478435397148132 8.270139694213867 C 0.5502893924713135 8.212523460388184 0.4601845443248749 8.142069816589355 0.3801569640636444 8.060337066650391 C 0.3001398742198944 7.978606700897217 0.2302062958478928 7.885582447052002 0.1729763597249985 7.782838821411133 C 0.1302548497915268 7.706597805023193 0.09545041620731354 7.627180099487305 0.06870743632316589 7.545642852783203 C 0.04196476936340332 7.464106559753418 0.02327557280659676 7.380444049835205 0.01279201079159975 7.295681953430176 C 0.002308499300852418 7.210929393768311 2.285641858179588e-05 7.125092506408691 0.006056958809494972 7.039199352264404 C 0.01209869608283043 6.953314304351807 0.02646788768470287 6.867372989654541 0.04930945113301277 6.782426357269287 C 0.07217409461736679 6.697387218475342 0.1028409749269485 6.615901947021484 0.1406932324171066 6.538768768310547 C 0.1785385310649872 6.461635112762451 0.2235696464776993 6.388859272003174 0.2751546800136566 6.321258068084717 C 0.3267408013343811 6.253661632537842 0.3848890662193298 6.191232681274414 0.4489750266075134 6.134790420532227 C 0.5130627751350403 6.078354835510254 0.5830813646316528 6.027899265289307 0.6584214568138123 5.9842529296875 L 10.65822315216064 0.1820214241743088 C 10.70692253112793 0.1534387916326523 10.75743865966797 0.1281700283288956 10.80937767028809 0.10633734613657 C 10.86129570007324 0.08450417965650558 10.91463947296143 0.06610725820064545 10.96894836425781 0.05127650126814842 C 11.02325916290283 0.03643012419342995 11.07858085632324 0.02515007555484772 11.13448715209961 0.01755104400217533 C 11.19037914276123 0.00995946116745472 11.2468376159668 0.006049072835594416 11.30348300933838 0.005934581160545349 C 11.42057609558105 0.005713232327252626 11.53554439544678 0.02154737338423729 11.64570999145508 0.05188757926225662 C 11.75589656829834 0.08222925662994385 11.86129379272461 0.1270782798528671 11.95923614501953 0.1848617941141129 C 12.05719757080078 0.2426554262638092 12.14771842956543 0.3133842647075653 12.22816181182861 0.3955053985118866 C 12.30859279632568 0.4776217639446259 12.37894630432129 0.5711228847503662 12.43655395507812 0.6744496822357178 C 12.47945499420166 0.7507241368293762 12.51438808441162 0.8302148580551147 12.54126167297363 0.9118748903274536 C 12.56810665130615 0.9935283660888672 12.5868616104126 1.077358245849609 12.59740257263184 1.162302136421204 C 12.60793018341064 1.247246503829956 12.61024284362793 1.333304166793823 12.60414505004883 1.419428110122681 C 12.59807777404785 1.505551934242249 12.58362865447998 1.59174120426178 12.56065940856934 1.676933526992798 C 12.53767681121826 1.762201547622681 12.50683403015137 1.843928217887878 12.46879100799561 1.92128849029541 C 12.43074607849121 1.998654842376709 12.3855037689209 2.071654796600342 12.33365821838379 2.139485597610474 C 12.28181266784668 2.207307100296021 12.22336673736572 2.269952058792114 12.15897846221924 2.326610803604126 C 12.09457588195801 2.383260250091553 12.02419948577881 2.433907985687256 11.9484977722168 2.477745532989502 L 1.942873954772949 8.276511192321777 C 1.893363356590271 8.304867744445801 1.842412352561951 8.329841613769531 1.790372490882874 8.351354598999023 C 1.738333463668823 8.372858047485352 1.685205459594727 8.390907287597656 1.631308794021606 8.405410766601562 C 1.577413201332092 8.419919967651367 1.522756695747375 8.430877685546875 1.467689752578735 8.438205718994141 C 1.412631630897522 8.445541381835938 1.357148170471191 8.449256896972656 1.301597237586975 8.449259757995605 Z M 11.30348300933838 1.007038116455078 C 11.28983879089355 1.007065653800964 11.27637767791748 1.007971525192261 11.26308631896973 1.009763598442078 C 11.24977874755859 1.011563062667847 11.23668479919434 1.014233231544495 11.22379207611084 1.017781972885132 C 11.21088314056396 1.021338224411011 11.19818782806396 1.025765061378479 11.18572330474854 1.031055212020874 C 11.17324352264404 1.036352872848511 11.16102409362793 1.042521238327026 11.14904975891113 1.049552798271179 L 1.144717574119568 6.851882934570312 C 1.126400470733643 6.862494468688965 1.109371662139893 6.874752521514893 1.093806505203247 6.888453483581543 C 1.07823371887207 6.902139186859131 1.064117074012756 6.917283058166504 1.05160117149353 6.93367862701416 C 1.039085388183594 6.950074672698975 1.028162598609924 6.967713832855225 1.018977761268616 6.986423492431641 C 1.009800553321838 7.005117416381836 1.002369046211243 7.024874210357666 0.9968199729919434 7.045485973358154 C 0.9912558794021606 7.066159725189209 0.9877649545669556 7.087072849273682 0.9863014817237854 7.107995986938477 C 0.9848380088806152 7.128903865814209 0.9854020476341248 7.149815559387207 0.9879783391952515 7.17047119140625 C 0.9905394315719604 7.191134452819824 0.9951126575469971 7.211534023284912 1.001644849777222 7.231425762176514 C 1.008192300796509 7.251326084136963 1.016698718070984 7.270718574523926 1.027148842811584 7.289360523223877 C 1.041036605834961 7.314301490783691 1.058019161224365 7.336832523345947 1.077448725700378 7.356594085693359 C 1.096878409385681 7.376363277435303 1.118762612342834 7.393362045288086 1.142468929290771 7.407247543334961 C 1.166182994842529 7.421133041381836 1.19171941280365 7.431905746459961 1.21845281124115 7.439204216003418 C 1.245178937911987 7.44649600982666 1.273109674453735 7.450313568115234 1.301597237586975 7.45030689239502 L 1.301597237586975 7.450360298156738 C 1.315189361572266 7.450352191925049 1.328674912452698 7.449444770812988 1.342031002044678 7.447652816772461 C 1.35540246963501 7.445853710174561 1.36863648891449 7.443161964416504 1.381726145744324 7.439587116241455 C 1.394815564155579 7.435996055603027 1.407752752304077 7.431528091430664 1.420522212982178 7.426176071166992 C 1.433291554450989 7.420831203460693 1.445878386497498 7.414595603942871 1.458281993865967 7.407496929168701 L 11.45973491668701 1.608624696731567 C 11.47812747955322 1.597960829734802 11.49520492553711 1.585661888122559 11.51084136962891 1.571910977363586 C 11.52647686004639 1.558152198791504 11.54065990447998 1.542941927909851 11.55326461791992 1.526485800743103 C 11.56583786010742 1.510029554367065 11.57681846618652 1.492319941520691 11.5860538482666 1.473563313484192 C 11.59527397155762 1.454799056053162 11.60274791717529 1.434980034828186 11.608323097229 1.414297103881836 C 11.61389827728271 1.39358377456665 11.61740684509277 1.372625350952148 11.61886024475098 1.351673722267151 C 11.62034702301025 1.330714583396912 11.61976432800293 1.309770107269287 11.61719131469727 1.289077043533325 C 11.61461925506592 1.268384099006653 11.61002349853516 1.247942566871643 11.60343742370605 1.228012323379517 C 11.59688186645508 1.208074569702148 11.58832168579102 1.188648223876953 11.57782936096191 1.169977426528931 C 11.5637092590332 1.144653081893921 11.54657173156738 1.121795296669006 11.52702808380127 1.101755380630493 C 11.50750160217285 1.08172333240509 11.48557090759277 1.064501881599426 11.46187877655029 1.050449848175049 C 11.43818664550781 1.03639805316925 11.41271877288818 1.02552330493927 11.3861026763916 1.018169641494751 C 11.35951614379883 1.010823607444763 11.33175182342529 1.006990909576416 11.30348300933838 1.007038116455078 Z" stroke="none" fill="#0a1f30"/>
      </g>
      <g id="Path_48" data-name="Path 48" transform="translate(5.962 13.967)" fill="#0a1f30">
        <path d="M11.362,7.947a.789.789,0,0,1-.2-.027.8.8,0,0,1-.1-.034.817.817,0,0,1-.1-.048l-10-5.8A.807.807,0,0,1,.72,1.822.827.827,0,0,1,.583,1.54.831.831,0,0,1,.66.917.809.809,0,0,1,.87.671a.793.793,0,0,1,.889-.06l10,5.8a.813.813,0,0,1,.243.215.832.832,0,0,1,.06.907.818.818,0,0,1-.134.177.8.8,0,0,1-.571.237Z" stroke="none"/>
        <path d="M 11.36191082000732 8.447146415710449 L 11.36180400848389 8.447146415710449 L 11.36169719696045 8.447146415710449 C 11.30546474456787 8.44701099395752 11.24935626983643 8.443118095397949 11.19375610351562 8.435591697692871 C 11.13815593719482 8.428033828735352 11.0830774307251 8.416811943054199 11.02888774871826 8.402047157287598 C 10.97468566894531 8.387283325195312 10.92137241363525 8.368978500366211 10.86931610107422 8.347164154052734 C 10.81728267669678 8.32537841796875 10.76649856567383 8.300175666809082 10.71735572814941 8.271586418151855 L 0.7177121043205261 2.469461679458618 C 0.5623989105224609 2.379495620727539 0.432334303855896 2.261569976806641 0.330119788646698 2.12540864944458 C 0.2279174774885178 1.989253044128418 0.1535602360963821 1.83486008644104 0.109681561589241 1.671950578689575 C 0.06580372899770737 1.509013533592224 0.05239445343613625 1.337586164474487 0.07208935171365738 1.167387247085571 C 0.09177681058645248 0.9971566200256348 0.1445543467998505 0.8281494379043579 0.2330682575702667 0.6700540781021118 C 0.2901618182659149 0.567355751991272 0.3599744141101837 0.4743479192256927 0.4398554265499115 0.3925843834877014 C 0.5197468400001526 0.3108179569244385 0.6097081303596497 0.2403263598680496 0.7070882320404053 0.1826336681842804 C 0.8044801950454712 0.124938502907753 0.909299910068512 0.08010391891002655 1.018911123275757 0.04971561953425407 C 1.128527641296387 0.01929537020623684 1.242929100990295 0.00329218409024179 1.359463095664978 0.00329226884059608 C 1.415716171264648 0.003292310051620007 1.471810340881348 0.007072457112371922 1.527379870414734 0.01454139407724142 C 1.582958221435547 0.02198002673685551 1.638012170791626 0.03307714313268661 1.692167639732361 0.04774140566587448 C 1.74631667137146 0.0624060146510601 1.799575090408325 0.08063793927431107 1.851561307907104 0.102345809340477 C 1.903540968894958 0.1240541711449623 1.954248547554016 0.1492691189050674 2.003302335739136 0.1777772903442383 L 12.00822162628174 5.976248264312744 C 12.16430473327637 6.066625595092773 12.29505920410156 6.184997081756592 12.39781475067139 6.321671009063721 C 12.50055694580078 6.458319664001465 12.57531356811523 6.613210201263428 12.61945629119873 6.776615619659424 C 12.6635856628418 6.939994335174561 12.67708492279053 7.111885070800781 12.65732002258301 7.282501697540283 C 12.63755321502686 7.453145980834961 12.58450698852539 7.622511386871338 12.49556255340576 7.78087043762207 C 12.43781757354736 7.883846282958984 12.36734008789062 7.977016925811768 12.28680038452148 8.058830261230469 C 12.20624828338623 8.140671730041504 12.11566638946533 8.211186408996582 12.01765727996826 8.268820762634277 C 11.91965293884277 8.326422691345215 11.81422328948975 8.371082305908203 11.70405101776123 8.401341438293457 C 11.5938835144043 8.431598663330078 11.47894382476807 8.447394371032715 11.36191082000732 8.447146415710449 Z M 1.359463095664978 1.002191066741943 C 1.331325888633728 1.002184867858887 1.303707242012024 1.006019711494446 1.277247667312622 1.013360261917114 C 1.250788331031799 1.020700812339783 1.225487947463989 1.0314861536026 1.201979517936707 1.045411586761475 C 1.178470969200134 1.05933666229248 1.15675413608551 1.076340913772583 1.137468934059143 1.096058487892151 C 1.118176341056824 1.11577582359314 1.101323246955872 1.138237237930298 1.08751904964447 1.16304612159729 C 1.065787792205811 1.201844215393066 1.052784204483032 1.243204712867737 1.047845005989075 1.28481113910675 C 1.042913436889648 1.32638692855835 1.046046137809753 1.368209004402161 1.056618213653564 1.407899618148804 C 1.067182660102844 1.447590589523315 1.085171341896057 1.485150218009949 1.109959363937378 1.518262028694153 C 1.134732484817505 1.551374316215515 1.166297554969788 1.580038785934448 1.204014658927917 1.601847290992737 L 11.2065258026123 7.403079032897949 C 11.21877670288086 7.410186767578125 11.23121166229248 7.416409015655518 11.24382877349854 7.421775341033936 C 11.25644683837891 7.427111625671387 11.26924896240234 7.431593418121338 11.28221893310547 7.435158252716064 C 11.29520511627197 7.438723564147949 11.30832862854004 7.441433429718018 11.32162094116211 7.443227291107178 C 11.3349142074585 7.445052146911621 11.34835815429688 7.445959568023682 11.36192607879639 7.445981502532959 L 11.36191082000732 7.446042537689209 C 11.39037990570068 7.446120262145996 11.41832828521729 7.442285537719727 11.44511318206787 7.434966564178467 C 11.47188377380371 7.42761754989624 11.49750518798828 7.416782379150391 11.52131938934326 7.402797698974609 C 11.54514980316162 7.388813018798828 11.56714344024658 7.371708869934082 11.58671569824219 7.351850509643555 C 11.60625839233398 7.332022666931152 11.623366355896 7.30941104888916 11.63736534118652 7.284440994262695 C 11.65903568267822 7.245825290679932 11.67197895050049 7.204599857330322 11.67684936523438 7.163054943084717 C 11.68168926239014 7.121510028839111 11.67845821380615 7.079707622528076 11.66778182983398 7.039971351623535 C 11.65709114074707 7.000235557556152 11.63897228240967 6.962565898895264 11.61403846740723 6.929347038269043 C 11.58908939361572 6.896129131317139 11.55735683441162 6.867331504821777 11.51945209503174 6.845367908477783 L 1.515875458717346 1.045148611068726 C 1.503578186035156 1.037981748580933 1.491090536117554 1.031729459762573 1.478404760360718 1.026361346244812 C 1.465718984603882 1.020993113517761 1.452850341796875 1.016508936882019 1.439791202545166 1.01293933391571 C 1.426739692687988 1.009339332580566 1.41351306438446 1.006653785705566 1.400118589401245 1.00488269329071 C 1.386731863021851 1.003081202507019 1.373177528381348 1.002194166183472 1.359463095664978 1.002191066741943 Z" stroke="none" fill="#0a1f30"/>
      </g>
    </g>
  </g>
</svg>
