<svg xmlns="http://www.w3.org/2000/svg" width="57.027" height="57.103" viewBox="0 0 57.027 57.103">
  <g id="Group_2569" data-name="Group 2569" transform="translate(-963.473 -246.448)">
    <g id="plus_3_" data-name="plus (3)" transform="translate(963.473 246.448)">
      <path id="Path_534" data-name="Path 534" d="M51.1,52.343c-8.738,7.133-36.021,7.133-44.58,0-8.738-7.133-7.846-37.626,0-45.65s36.734-8.024,44.58,0S59.842,45.211,51.1,52.343Z" transform="translate(-0.301 -0.59)" fill="#2ae78b"/>
      <g id="Group_215" data-name="Group 215" transform="translate(0.026 0)" opacity="0.2">
        <path id="Path_535" data-name="Path 535" d="M29.175,39.271C21.329,45.512,12.591,48.722,4.389,48.9-1.674,38.558-.426,13.415,6.707,6.1c6.42-6.6,26.57-7.846,38.161-3.745C47.721,14.128,41.836,29.107,29.175,39.271Z" transform="translate(-0.509 0)" fill="#fff"/>
      </g>
    </g>
    <g id="check-mark-_2_" transform="translate(941.067 729.377)">
      <path id="Path_2115" data-name="Path 2115" d="M68.482-474.776c-.144.085-5.015,5.524-10.827,12.1S47-450.648,46.87-450.546a.922.922,0,0,1-.974.093c-.1-.051-1.8-1.567-3.779-3.363s-3.745-3.372-3.939-3.507a3.977,3.977,0,0,0-3.846-.254,4.471,4.471,0,0,0-1.855,1.864,2.635,2.635,0,0,0-.347,1.44,3.741,3.741,0,0,0,.508,2.279c.466.737,10.683,13.182,11.031,13.437a3.684,3.684,0,0,0,4.854-.432c.347-.356,3.058-4.668,11.005-17.461,9.4-15.156,10.539-17.02,10.539-17.325a1.092,1.092,0,0,0-.618-1A.921.921,0,0,0,68.482-474.776Z" transform="translate(0)" fill="#fff"/>
    </g>
  </g>
</svg>
