<svg xmlns="http://www.w3.org/2000/svg" xmlns:xlink="http://www.w3.org/1999/xlink" width="99" height="99" viewBox="0 0 99 99">
  <defs>
    <filter id="Ellipse_48" x="0" y="0" width="99" height="99" filterUnits="userSpaceOnUse">
      <feOffset dy="3" input="SourceAlpha"/>
      <feGaussianBlur stdDeviation="3" result="blur"/>
      <feFlood flood-opacity="0.161"/>
      <feComposite operator="in" in2="blur"/>
      <feComposite in="SourceGraphic"/>
    </filter>
  </defs>
  <g id="Group_2568" data-name="Group 2568" transform="translate(-876 -1558)">
    <g transform="matrix(1, 0, 0, 1, 876, 1558)" filter="url(#Ellipse_48)">
      <circle id="Ellipse_48-2" data-name="Ellipse 48" cx="40.5" cy="40.5" r="40.5" transform="translate(9 6)" fill="#02dccc"/>
    </g>
    <g id="clock_2_" data-name="clock (2)" transform="translate(904.277 1580.828)">
      <path id="Path_1914" data-name="Path 1914" d="M22.586,0A22.586,22.586,0,1,0,45.172,22.586,22.612,22.612,0,0,0,22.586,0Zm0,42.349A19.763,19.763,0,1,1,42.349,22.586,19.785,19.785,0,0,1,22.586,42.349Z" fill="#fff"/>
      <path id="Path_1915" data-name="Path 1915" d="M210.617,83.118h-2.823v14.7l8.883,8.883,2-2-8.056-8.056Z" transform="translate(-186.62 -74.648)" fill="#fff"/>
    </g>
  </g>
</svg>
