<svg xmlns="http://www.w3.org/2000/svg" width="77" height="73" viewBox="0 0 77 73">
  <g id="Group_2568" data-name="Group 2568" transform="translate(-68 -638)">
    <g id="Rectangle_540" data-name="Rectangle 540" transform="translate(68 638)" fill="#d4f5f3" stroke="#02dccc" stroke-width="1">
      <rect width="77" height="73" rx="17" stroke="none"/>
      <rect x="0.5" y="0.5" width="76" height="72" rx="16.5" fill="none"/>
    </g>
    <g id="settings" transform="translate(82.399 650.735)">
      <path id="Path_1766" data-name="Path 1766" d="M25.387,47.775h-3a4.4,4.4,0,0,1-4.4-4.4V42.363A19.287,19.287,0,0,1,15,41.119l-.719.719a4.4,4.4,0,0,1-6.221,0L5.937,39.719a4.4,4.4,0,0,1,0-6.221l.718-.718a19.288,19.288,0,0,1-1.243-2.995H4.4a4.4,4.4,0,0,1-4.4-4.4v-3a4.4,4.4,0,0,1,4.4-4.4H5.412A19.292,19.292,0,0,1,6.656,15l-.719-.719a4.4,4.4,0,0,1,0-6.221L8.057,5.937a4.4,4.4,0,0,1,6.22,0L15,6.655A19.305,19.305,0,0,1,17.99,5.412V4.4a4.4,4.4,0,0,1,4.4-4.4h3a4.4,4.4,0,0,1,4.4,4.4V5.412A19.287,19.287,0,0,1,32.78,6.656l.719-.719a4.4,4.4,0,0,1,6.221,0l2.119,2.119a4.4,4.4,0,0,1,0,6.221L41.119,15a19.289,19.289,0,0,1,1.243,2.995h1.014a4.4,4.4,0,0,1,4.4,4.4v3a4.4,4.4,0,0,1-4.4,4.4H42.363a19.292,19.292,0,0,1-1.243,2.995l.719.719a4.4,4.4,0,0,1,0,6.221l-2.119,2.119a4.4,4.4,0,0,1-6.22,0l-.718-.718a19.305,19.305,0,0,1-2.995,1.243v1.014A4.4,4.4,0,0,1,25.387,47.775Zm-9.923-9.6a16.5,16.5,0,0,0,4.277,1.775,1.4,1.4,0,0,1,1.05,1.355v2.067a1.6,1.6,0,0,0,1.6,1.6h3a1.6,1.6,0,0,0,1.6-1.6V41.31a1.4,1.4,0,0,1,1.05-1.355,16.5,16.5,0,0,0,4.277-1.775,1.4,1.4,0,0,1,1.7.215l1.464,1.464a1.6,1.6,0,0,0,2.26,0l2.121-2.121a1.6,1.6,0,0,0,0-2.26L38.4,34.014a1.4,1.4,0,0,1-.215-1.7,16.5,16.5,0,0,0,1.775-4.277,1.4,1.4,0,0,1,1.355-1.05h2.067a1.6,1.6,0,0,0,1.6-1.6v-3a1.6,1.6,0,0,0-1.6-1.6H41.31a1.4,1.4,0,0,1-1.355-1.05,16.5,16.5,0,0,0-1.775-4.277,1.4,1.4,0,0,1,.215-1.7L39.859,12.3a1.6,1.6,0,0,0,0-2.26l-2.12-2.12a1.6,1.6,0,0,0-2.26,0L34.014,9.38a1.4,1.4,0,0,1-1.7.215A16.5,16.5,0,0,0,28.036,7.82a1.4,1.4,0,0,1-1.05-1.355V4.4a1.6,1.6,0,0,0-1.6-1.6h-3a1.6,1.6,0,0,0-1.6,1.6V6.465A1.4,1.4,0,0,1,19.74,7.82,16.5,16.5,0,0,0,15.463,9.6a1.4,1.4,0,0,1-1.7-.215L12.3,7.916a1.6,1.6,0,0,0-2.26,0L7.916,10.036a1.6,1.6,0,0,0,0,2.26L9.38,13.761a1.4,1.4,0,0,1,.215,1.7A16.5,16.5,0,0,0,7.82,19.74a1.4,1.4,0,0,1-1.355,1.05H4.4a1.6,1.6,0,0,0-1.6,1.6v3a1.6,1.6,0,0,0,1.6,1.6H6.465a1.4,1.4,0,0,1,1.355,1.05A16.5,16.5,0,0,0,9.6,32.312a1.4,1.4,0,0,1-.215,1.7L7.916,35.478a1.6,1.6,0,0,0,0,2.26l2.12,2.12a1.6,1.6,0,0,0,2.26,0l1.464-1.465a1.406,1.406,0,0,1,1.7-.215Z" transform="translate(0 0)"/>
      <path id="Path_1767" data-name="Path 1767" d="M154.995,165.39a10.395,10.395,0,1,1,10.395-10.395A10.407,10.407,0,0,1,154.995,165.39Zm0-17.99a7.6,7.6,0,1,0,7.6,7.6A7.6,7.6,0,0,0,154.995,147.4Z" transform="translate(-131.107 -131.107)"/>
    </g>
  </g>
</svg>
