<svg xmlns="http://www.w3.org/2000/svg" width="50" height="53" viewBox="0 0 50 53">
  <g id="Group_2472" data-name="Group 2472" transform="translate(-9774 15736)">
    <g id="Rectangle_669" data-name="Rectangle 669" transform="translate(9774 -15736)" fill="#02dccc" stroke="#02dccc" stroke-width="5">
      <rect width="50" height="53" rx="10" stroke="none"/>
      <rect x="2.5" y="2.5" width="45" height="48" rx="7.5" fill="none"/>
    </g>
    <g id="check-mark-_2_" transform="translate(9749.903 -15251.087)">
      <path id="Path_1855" data-name="Path 1855" d="M65.637-474.787c-.133.078-4.623,5.092-9.98,11.151s-9.824,11.089-9.941,11.183a.85.85,0,0,1-.9.086c-.094-.047-1.663-1.445-3.483-3.1s-3.452-3.108-3.631-3.233a3.666,3.666,0,0,0-3.545-.234,4.121,4.121,0,0,0-1.71,1.718,2.429,2.429,0,0,0-.32,1.328,3.448,3.448,0,0,0,.469,2.1c.43.679,9.847,12.151,10.168,12.385a3.4,3.4,0,0,0,4.475-.4c.32-.328,2.819-4.3,10.144-16.095,8.668-13.971,9.715-15.689,9.715-15.97a1.006,1.006,0,0,0-.57-.922A.849.849,0,0,0,65.637-474.787Z" transform="translate(0 0)" fill="#fff"/>
    </g>
  </g>
</svg>
