<svg xmlns="http://www.w3.org/2000/svg" width="52" height="52" viewBox="0 0 52 52">
  <g id="Group_2567" data-name="Group 2567" transform="translate(-908 -1493)">
    <circle id="Ellipse_427" data-name="Ellipse 427" cx="26" cy="26" r="26" transform="translate(908 1493)" fill="#b8e6e2"/>
    <path id="add_2_" data-name="add (2)" d="M23.957,10.8H15.971a.47.47,0,0,1-.47-.47V2.349a2.349,2.349,0,1,0-4.7,0v7.986a.47.47,0,0,1-.47.47H2.349a2.349,2.349,0,1,0,0,4.7h7.986a.47.47,0,0,1,.47.47v7.986a2.349,2.349,0,0,0,4.7,0V15.971a.47.47,0,0,1,.47-.47h7.986a2.349,2.349,0,0,0,0-4.7Zm0,0" transform="translate(920.847 1505.848)" fill="#02dccc"/>
  </g>
</svg>
