<svg xmlns="http://www.w3.org/2000/svg" width="280.895" height="141.698" viewBox="0 0 280.895 141.698">
  <g id="undraw_personal_info_re_ur1n" transform="translate(0 0.246)">
    <path id="Path_1504" data-name="Path 1504" d="M539.535,404.36H325.96a10.31,10.31,0,0,1-10.3-10.3V313.02a10.31,10.31,0,0,1,10.3-10.3H539.535a10.31,10.31,0,0,1,10.3,10.3v81.042a10.31,10.31,0,0,1-10.3,10.3Z" transform="translate(-285.767 -289.334)" fill="#fff"/>
    <path id="Path_1505" data-name="Path 1505" d="M539.535,404.36H325.96a10.31,10.31,0,0,1-10.3-10.3V313.02a10.31,10.31,0,0,1,10.3-10.3H539.535a10.31,10.31,0,0,1,10.3,10.3v81.042a10.31,10.31,0,0,1-10.3,10.3ZM325.96,303.617a9.4,9.4,0,0,0-9.4,9.4v81.042a9.4,9.4,0,0,0,9.4,9.4H539.535a9.4,9.4,0,0,0,9.4-9.4V363.5a59.888,59.888,0,0,0-59.887-59.888Z" transform="translate(-285.767 -289.334)" fill="#e6e6e6"/>
    <ellipse id="Ellipse_172" data-name="Ellipse 172" cx="1.098" cy="1.579" rx="1.098" ry="1.579" transform="matrix(0.144, -0.99, 0.99, 0.144, 20.01, 132.911)" fill="#fff"/>
    <ellipse id="Ellipse_173" data-name="Ellipse 173" cx="1.098" cy="1.579" rx="1.098" ry="1.579" transform="matrix(0.144, -0.99, 0.99, 0.144, 30.285, 131.909)" fill="#3f3d56"/>
    <ellipse id="Ellipse_174" data-name="Ellipse 174" cx="1.098" cy="1.579" rx="1.098" ry="1.579" transform="matrix(0.144, -0.99, 0.99, 0.144, 17.197, 124.593)" fill="#ff6584"/>
    <ellipse id="Ellipse_175" data-name="Ellipse 175" cx="0.998" cy="0.694" rx="0.998" ry="0.694" transform="matrix(0.008, -1, 1, 0.008, 14.619, 121.541)" fill="#e6e6e6"/>
    <ellipse id="Ellipse_176" data-name="Ellipse 176" cx="0.998" cy="0.694" rx="0.998" ry="0.694" transform="matrix(0.008, -1, 1, 0.008, 13.105, 115.195)" fill="#3f3d56"/>
    <ellipse id="Ellipse_177" data-name="Ellipse 177" cx="0.998" cy="0.694" rx="0.998" ry="0.694" transform="matrix(0.008, -1, 1, 0.008, 24.879, 126.364)" fill="#e6e6e6"/>
    <ellipse id="Ellipse_178" data-name="Ellipse 178" cx="0.998" cy="0.694" rx="0.998" ry="0.694" transform="matrix(0.008, -1, 1, 0.008, 19.913, 128.843)" fill="#ff6584"/>
    <ellipse id="Ellipse_179" data-name="Ellipse 179" cx="0.998" cy="0.694" rx="0.998" ry="0.694" transform="matrix(0.008, -1, 1, 0.008, 26.825, 133.425)" fill="#3f3d56"/>
    <ellipse id="Ellipse_180" data-name="Ellipse 180" cx="1.4" cy="2.013" rx="1.4" ry="2.013" transform="translate(267.27 3.227) rotate(-75.779)" fill="#fff"/>
    <ellipse id="Ellipse_181" data-name="Ellipse 181" cx="1.4" cy="2.013" rx="1.4" ry="2.013" transform="translate(254.111 3.142) rotate(-75.779)" fill="#3f3d56"/>
    <ellipse id="Ellipse_182" data-name="Ellipse 182" cx="1.4" cy="2.013" rx="1.4" ry="2.013" transform="translate(269.739 14.144) rotate(-75.779)" fill="#ff6584"/>
    <ellipse id="Ellipse_183" data-name="Ellipse 183" cx="1.272" cy="0.885" rx="1.272" ry="0.885" transform="translate(275.153 18.959) rotate(-83.624)" fill="#e6e6e6"/>
    <ellipse id="Ellipse_184" data-name="Ellipse 184" cx="1.272" cy="0.885" rx="1.272" ry="0.885" transform="translate(276.235 27.205) rotate(-83.624)" fill="#3f3d56"/>
    <ellipse id="Ellipse_185" data-name="Ellipse 185" cx="1.272" cy="0.885" rx="1.272" ry="0.885" transform="translate(262.782 11.491) rotate(-83.624)" fill="#e6e6e6"/>
    <ellipse id="Ellipse_186" data-name="Ellipse 186" cx="1.272" cy="0.885" rx="1.272" ry="0.885" transform="translate(269.404 9.003) rotate(-83.624)" fill="#ff6584"/>
    <ellipse id="Ellipse_187" data-name="Ellipse 187" cx="1.272" cy="0.885" rx="1.272" ry="0.885" transform="translate(261.246 2.282) rotate(-83.624)" fill="#3f3d56"/>
    <path id="Path_1506" data-name="Path 1506" d="M431.935,377.462a32.773,32.773,0,0,1-8.409,21.966v0a33.64,33.64,0,0,1-2.427,2.436,32.434,32.434,0,0,1-2.731,2.216q-.994.725-2.042,1.37-1.243.772-2.557,1.428-.974.49-1.988.913a33.033,33.033,0,0,1-20.095,1.742,31.54,31.54,0,0,1-3.3-.94c-.416-.139-.833-.291-1.245-.452a32.467,32.467,0,0,1-7.052-3.783,32.9,32.9,0,1,1,51.84-26.9Z" transform="translate(-316.614 -314.904)" fill="#f2f2f2"/>
    <path id="Path_1507" data-name="Path 1507" d="M696.429,360.653H639.566a1.791,1.791,0,1,1,0-3.582h56.864a1.791,1.791,0,1,1,0,3.582Z" transform="translate(-482.64 -322.552)" fill="#00aca0"/>
    <path id="Path_1508" data-name="Path 1508" d="M696.429,422.839H639.566a1.791,1.791,0,1,1,0-3.582h56.864a1.791,1.791,0,1,1,0,3.582Z" transform="translate(-482.64 -360.559)" fill="#e6e6e6"/>
    <path id="Path_1509" data-name="Path 1509" d="M696.429,485.025H639.566a1.791,1.791,0,1,1,0-3.582h56.864a1.791,1.791,0,1,1,0,3.582Z" transform="translate(-482.64 -398.567)" fill="#e6e6e6"/>
    <path id="Path_1510" data-name="Path 1510" d="M406.669,565.443c-6.419-8.539-10.13-18.087-10.251-28.973a2.349,2.349,0,0,1,1.429-2.995l21.881-7.742a2.349,2.349,0,0,1,2.994,1.429l10.251,28.973a2.349,2.349,0,0,1-1.429,2.995l-21.881,7.742a2.349,2.349,0,0,1-2.994-1.429Z" transform="translate(-335.043 -425.555)" fill="#e6e6e6"/>
    <path id="Path_1511" data-name="Path 1511" d="M408.79,559.7c-3.861-3.9-5.514-10.866-6.591-18.627a2.2,2.2,0,0,1,1.339-2.8l18.8-6.654a2.2,2.2,0,0,1,2.8,1.338l9.122,25.782a2.2,2.2,0,0,1-1.339,2.8l-11.65,4.122A9.8,9.8,0,0,1,408.79,559.7Z" transform="translate(-338.582 -429.152)" fill="#fff"/>
    <path id="Path_1512" data-name="Path 1512" d="M437.078,568.124l-14.649,5.229a.933.933,0,0,1-.627-1.758l14.649-5.229a.933.933,0,1,1,.627,1.758Z" transform="translate(-350.261 -450.438)" fill="#02dccc"/>
    <path id="Path_1513" data-name="Path 1513" d="M421.227,566.217,418,567.367a.933.933,0,0,1-.627-1.758l3.223-1.15a.933.933,0,1,1,.627,1.758Z" transform="translate(-347.556 -449.272)" fill="#ffe7a5"/>
    <path id="Path_1514" data-name="Path 1514" d="M444.172,588l-14.649,5.229a.933.933,0,0,1-.627-1.758l14.649-5.229a.933.933,0,0,1,.627,1.758Z" transform="translate(-354.597 -462.586)" fill="#02dccc"/>
    <path id="Path_1515" data-name="Path 1515" d="M440.625,578.062l-14.648,5.229a.933.933,0,0,1-.628-1.758L440,576.3a.933.933,0,1,1,.627,1.758Z" transform="translate(-352.429 -456.512)" fill="#ffe7a5"/>
    <path id="Path_1516" data-name="Path 1516" d="M431.293,379.8c.477,3.849,3.144,7.022,7.022,7.022a7.022,7.022,0,0,0,7.022-7.022c0-3.878-3.161-6.664-7.022-7.022C434.218,372.4,430.68,374.862,431.293,379.8Z" transform="translate(-356.398 -332.13)" fill="#2f2e41"/>
    <path id="Path_1517" data-name="Path 1517" d="M444.816,511.11a33.139,33.139,0,0,1-12.958-.345C433.877,509.651,440,510.336,444.816,511.11Z" transform="translate(-356.786 -416.131)" fill="#2f2e41"/>
    <path id="Path_1518" data-name="Path 1518" d="M392.766,531.526l3.373-8.152,2.658,1.476-1.6,8.292a2.953,2.953,0,1,1-4.426-1.617Z" transform="translate(-332.067 -424.195)" fill="#ffb6b6"/>
    <path id="Path_1519" data-name="Path 1519" d="M430.911,443.088v0c-.121,2.839-.287,5.539-.425,7.616a33.032,33.032,0,0,1-20.095,1.742,31.548,31.548,0,0,1-3.3-.94,2.033,2.033,0,0,1,.484-.228c1.612-.546.018-1.043.031-1.563a25.081,25.081,0,0,1,1.249-6.362l-3.009,7.7-1.567,4s.054,3.457-.94,2.4-.927,2.364-.927,2.364a3.116,3.116,0,0,0-.788.815.691.691,0,0,0-.094.479v0a.6.6,0,0,0,.251.313c.676.457-.3,1.666-.725,2.145-.116.13-.193.206-.193.206l-4.133-.3v-.081c.018-.488.13-3.058.77-3.672a1.826,1.826,0,0,0,.358-1.746s1.836-1.625.6-2.946c-.492-.533-.273-3.689.331-7.773,1.321-9.009,4.486-22.531,5.857-22.338a7.6,7.6,0,0,1,5.422-5.794l4.464-1.227.8-3.148h6.286l1.092,2.069,4.58,2.069.058.027.143.063.054.17s0,0,0,0l2.548,8C431.247,428.486,431.2,436.179,430.911,443.088Z" transform="translate(-335.318 -357.815)" fill="#02dccc"/>
    <path id="Path_1520" data-name="Path 1520" d="M505.477,515.115l-4.257-7.727,2.813-1.152,5.471,6.434a2.953,2.953,0,1,1-4.028,2.445Z" transform="translate(-399.179 -413.72)" fill="#ffb6b6"/>
    <path id="Path_1521" data-name="Path 1521" d="M475.344,425.25c.757,1.361,7.682,4.86,6.482,8.372,0,0,6.506,20.353,7.352,20.22s1.672,1.97,1.672,1.97-.179,1.372.348.8.4.924.4.924-.253,1.319.417.961-.211,2.166-.211,2.166l-4.026,1.9-.765-1.139s-1.635-.311-.866-.558-.723-1.077-.723-1.077a3.2,3.2,0,0,1-1.344-2.819c.218-1.758-4.052-5.213-4.052-5.213a39.2,39.2,0,0,1-4.536-17.884Z" transform="translate(-383.364 -364.222)" fill="#02dccc"/>
    <circle id="Ellipse_188" data-name="Ellipse 188" cx="6.227" cy="6.227" r="6.227" transform="translate(76.467 42.658)" fill="#ffb6b6"/>
    <path id="Path_1522" data-name="Path 1522" d="M434.459,381.123c.2,1.353,1.35,3.241,1.08,3.241s-2.19-5.578-.27-5.942c1.393-.264,1.7-.032,3.006-.6l-.184.173c.862.627,2.061.24,3.044-.167s2.182-.791,3.047-.167a4.856,4.856,0,0,1,1.11,1.65c.338.581.961,1.129,1.6.951a1.27,1.27,0,0,0,.81-1.256c0-.535-.7-1.044-.465-1.523.7-1.422.07-2.391-1.445-3.06q-.826-.126-1.653-.257a4.688,4.688,0,0,1,1.037-1.043,2.37,2.37,0,0,0-.837-1.072,2.628,2.628,0,0,0-1.5-.216l-3.417.178a6.027,6.027,0,0,0-2.469.481,4.869,4.869,0,0,0-2,2.385C433.954,377.037,434.113,378.771,434.459,381.123Z" transform="translate(-358.213 -331.56)" fill="#2f2e41"/>
    <path id="Path_1523" data-name="Path 1523" d="M687.683,384.038H594.039a.389.389,0,0,1,0-.778h93.645a.389.389,0,1,1,0,.778Z" transform="translate(-455.672 -338.558)" fill="#e6e6e6"/>
    <path id="Path_1524" data-name="Path 1524" d="M687.683,446.038H594.039a.389.389,0,0,1,0-.778h93.645a.389.389,0,1,1,0,.778Z" transform="translate(-455.672 -376.452)" fill="#e6e6e6"/>
    <path id="Path_1525" data-name="Path 1525" d="M687.683,508.038H594.039a.389.389,0,0,1,0-.778h93.645a.389.389,0,1,1,0,.778Z" transform="translate(-455.672 -414.346)" fill="#e6e6e6"/>
    <path id="Path_1526" data-name="Path 1526" d="M843.359,405.356a14.385,14.385,0,0,1-9.349-3.452,13.439,13.439,0,0,1-2.753-3.844,8.791,8.791,0,0,1-.279-7.59,10.088,10.088,0,0,1-1.666,1.366l-.3.2-.018-.365c-.012-.238-.017-.474-.017-.7,0-1.352,1.022-2.723.551-3.972-1.987-5.265-8.289-10.5.845-18.647.845-.754-.284-2.261-.284-3.4,0-11.177,15.8-30.515,20.275-20.271,5.522,12.633,15.035,11.282,19.249,13.891l.061.185-.18.073a10.864,10.864,0,0,1-2.887.768,13.766,13.766,0,0,0,3.219.27l.167-.006.041.163a20.368,20.368,0,0,1,.6,4.928v.18a8.979,8.979,0,0,0,2.966,6.695,14.419,14.419,0,0,1,4.7,10.639c0,2.37-1.61,5.48-2.962,7.672a4.338,4.338,0,0,1-3.185,2.04,4.237,4.237,0,0,1-3.419-1.1,14.01,14.01,0,0,0,2.471,3.5l.184.19-.229.133a14.374,14.374,0,0,1-7.246,1.957h-.149a14.032,14.032,0,0,0-10.067,4.109A14.5,14.5,0,0,1,843.359,405.356Z" transform="translate(-597.409 -313.206)" fill="#e6e6e6"/>
    <path id="Path_1527" data-name="Path 1527" d="M857.37,480.549a.259.259,0,0,1-.256-.222,86.628,86.628,0,0,1-.121-18.161c.893-9.53,3.761-23.257,12.351-34.531a.259.259,0,1,1,.412.314c-8.516,11.176-11.361,24.8-12.247,34.266a86.029,86.029,0,0,0,.118,18.04.259.259,0,0,1-.256.3Z" transform="translate(-616.369 -365.617)" fill="#3f3d56"/>
    <path id="Path_1528" data-name="Path 1528" d="M876.243,458.572a.259.259,0,0,1-.152-.468,35.654,35.654,0,0,1,7.872-4.007c4.343-1.59,10.947-3.031,17.746-.868a.259.259,0,1,1-.157.493c-6.66-2.119-13.144-.7-17.411.861a35.07,35.07,0,0,0-7.746,3.94A.258.258,0,0,1,876.243,458.572Z" transform="translate(-628.232 -380.653)" fill="#3f3d56"/>
    <path id="Path_1529" data-name="Path 1529" d="M846.195,392.409a.259.259,0,0,1,.456-.186,35.656,35.656,0,0,1,4.564,7.563c1.9,4.217,3.812,10.7,2.143,17.638a.259.259,0,0,1-.5-.121c1.634-6.795-.247-13.161-2.112-17.3a35.07,35.07,0,0,0-4.487-7.442A.258.258,0,0,1,846.195,392.409Z" transform="translate(-610.025 -343.98)" fill="#3f3d56"/>
    <path id="Path_1530" data-name="Path 1530" d="M263.375,398.959a14.032,14.032,0,0,0-10.067-4.109h-.149a14.374,14.374,0,0,1-7.246-1.957l-.229-.133.184-.19a14.01,14.01,0,0,0,2.471-3.5,4.237,4.237,0,0,1-3.419,1.1,4.338,4.338,0,0,1-3.185-2.04c-1.351-2.192-2.962-5.3-2.962-7.672a14.418,14.418,0,0,1,4.7-10.639,8.979,8.979,0,0,0,2.966-6.695v-.18a20.369,20.369,0,0,1,.605-4.931l.04-.16.167.006a13.766,13.766,0,0,0,3.219-.27,10.865,10.865,0,0,1-2.887-.768l-.18-.073.061-.185c4.214-2.609,13.727-1.258,19.249-13.891,4.477-10.244,20.275,9.093,20.275,20.271,0,1.141-1.129,2.648-.284,3.4,9.134,8.149,2.832,13.382.845,18.647-.471,1.249.551,2.621.551,3.972,0,.229-.006.466-.017.7l-.018.365-.3-.2a10.087,10.087,0,0,1-1.666-1.366,8.791,8.791,0,0,1-.279,7.59,13.439,13.439,0,0,1-2.752,3.844,14.372,14.372,0,0,1-19.692-.946Z" transform="translate(-238.774 -311.984)" fill="#e6e6e6"/>
    <path id="Path_1531" data-name="Path 1531" d="M321.826,478.55a.259.259,0,0,0,.256-.222,86.619,86.619,0,0,0,.121-18.161c-.893-9.53-3.761-23.257-12.351-34.531a.259.259,0,1,0-.412.314c8.516,11.176,11.361,24.8,12.247,34.266a86.031,86.031,0,0,1-.118,18.04.259.259,0,0,0,.257.3Z" transform="translate(-281.932 -364.395)" fill="#3f3d56"/>
    <path id="Path_1532" data-name="Path 1532" d="M283.035,456.574a.259.259,0,0,0,.152-.468,35.656,35.656,0,0,0-7.872-4.007c-4.343-1.59-10.947-3.031-17.746-.868a.259.259,0,1,0,.157.493c6.66-2.119,13.144-.7,17.411.861a35.07,35.07,0,0,1,7.746,3.94A.258.258,0,0,0,283.035,456.574Z" transform="translate(-250.151 -379.431)" fill="#3f3d56"/>
    <path id="Path_1533" data-name="Path 1533" d="M341.54,390.41a.259.259,0,0,0-.456-.186,35.658,35.658,0,0,0-4.564,7.563c-1.9,4.217-3.812,10.7-2.143,17.638a.259.259,0,1,0,.5-.121c-1.634-6.8.247-13.161,2.112-17.3a35.069,35.069,0,0,1,4.487-7.442A.258.258,0,0,0,341.54,390.41Z" transform="translate(-296.815 -342.758)" fill="#3f3d56"/>
  </g>
</svg>
