<svg xmlns="http://www.w3.org/2000/svg" width="45.244" height="53.486" viewBox="0 0 45.244 53.486">
  <g id="location_3_" data-name="location (3)" transform="translate(-39.451)">
    <g id="Group_339" data-name="Group 339" transform="translate(39.451)">
      <g id="Group_338" data-name="Group 338" transform="translate(0)">
        <path id="Path_1908" data-name="Path 1908" d="M78.069,6.626a22.622,22.622,0,0,0-38.618,16c0,12.224,11.558,22.391,17.767,27.853.863.759,1.608,1.415,2.2,1.969a3.9,3.9,0,0,0,5.306,0c.594-.555,1.339-1.21,2.2-1.969,6.209-5.462,17.767-15.629,17.767-27.853A22.474,22.474,0,0,0,78.069,6.626Zm-13.211,41.5c-.882.776-1.643,1.446-2.271,2.032a.756.756,0,0,1-1.029,0c-.628-.587-1.389-1.256-2.271-2.032-5.837-5.135-16.7-14.693-16.7-25.5a19.489,19.489,0,0,1,38.977,0C81.561,33.429,70.7,42.987,64.858,48.122Z" transform="translate(-39.451)" fill="#ff8d8d"/>
      </g>
    </g>
    <g id="Group_341" data-name="Group 341" transform="translate(52.104 11.798)">
      <g id="Group_340" data-name="Group 340">
        <path id="Path_1909" data-name="Path 1909" d="M170.539,112.938a9.969,9.969,0,1,0,9.969,9.969A9.98,9.98,0,0,0,170.539,112.938Zm0,16.8a6.836,6.836,0,1,1,6.836-6.836A6.844,6.844,0,0,1,170.539,129.743Z" transform="translate(-160.57 -112.938)" fill="#ff8d8d"/>
      </g>
    </g>
  </g>
</svg>
