<svg xmlns="http://www.w3.org/2000/svg" width="41.384" height="41.376" viewBox="0 0 41.384 41.376">
  <g id="login" transform="translate(-0.5 511.764)">
    <path id="Path_1906" data-name="Path 1906" d="M17.123-511.662a9.7,9.7,0,0,0-7.891,6.879c-.3,1.02-.356,1.8-.356,5.026v3.172l-1.513.032a6.775,6.775,0,0,0-2.25.259,6.617,6.617,0,0,0-4.386,4.378l-.227.728v15.457L.727-475a6.645,6.645,0,0,0,4.386,4.386l.728.227H20.255l.332-.219a1.455,1.455,0,0,0,.712-1.36,1.455,1.455,0,0,0-.712-1.36l-.332-.219-7-.04-7.008-.04-.469-.186A3.29,3.29,0,0,1,3.883-475.8c-.138-.388-.146-.9-.146-7.7v-7.284l.186-.469a3.29,3.29,0,0,1,1.991-1.894c.388-.138,1.084-.146,12.674-.146s12.285.008,12.674.146a3.257,3.257,0,0,1,1.983,1.894c.17.437.186.631.227,2.695.049,2.161.057,2.234.243,2.533a2.128,2.128,0,0,0,.518.526,1.259,1.259,0,0,0,.858.219,1.445,1.445,0,0,0,1.368-.712l.219-.332v-2.428c-.008-2.428-.008-2.436-.227-3.164a6.633,6.633,0,0,0-4.386-4.378,6.751,6.751,0,0,0-2.242-.259l-1.513-.032-.032-3.5a23.7,23.7,0,0,0-.17-4.095,9.756,9.756,0,0,0-4.54-6.248A10.018,10.018,0,0,0,17.123-511.662Zm3.124,3.326a6.615,6.615,0,0,1,4.322,3.7c.453,1.1.494,1.513.494,4.953v3.116H12.105l.024-3.423.032-3.415.219-.647a6.424,6.424,0,0,1,3.488-3.885,7.627,7.627,0,0,1,1.789-.558A10.8,10.8,0,0,1,20.247-508.335Z" fill="#fff"/>
    <path id="Path_1907" data-name="Path 1907" d="M281.007-189.749c-.13.057-.324.146-.421.2s-2.039,2.7-4.314,5.884c-3.876,5.414-4.168,5.795-4.451,5.875a1.213,1.213,0,0,1-.526.04,35.765,35.765,0,0,1-2.986-2.752c-2.25-2.193-2.841-2.719-3.148-2.841a1.555,1.555,0,0,0-1.95.785,2.034,2.034,0,0,0-.21.712c0,.607.291.971,2.557,3.189,3.707,3.609,3.828,3.715,4.929,4.022a4.92,4.92,0,0,0,2.428-.089,4.5,4.5,0,0,0,1.627-1.06c.445-.477,8.271-11.427,8.457-11.848a1.517,1.517,0,0,0-.769-2.031A1.49,1.49,0,0,0,281.007-189.749Z" transform="translate(-241.256 -295.869)" fill="#fff"/>
    <path id="Path_1908" data-name="Path 1908" d="M93.254-185.6a1.814,1.814,0,0,0-1,1.06,1.674,1.674,0,0,0,.712,1.853,1.741,1.741,0,0,0,1.7-.024,1.455,1.455,0,0,0,.712-1.36,1.449,1.449,0,0,0-.688-1.343A1.962,1.962,0,0,0,93.254-185.6Z" transform="translate(-84.281 -299.712)" fill="#fff"/>
    <path id="Path_1909" data-name="Path 1909" d="M168.254-185.6a1.814,1.814,0,0,0-1,1.06,1.674,1.674,0,0,0,.712,1.853,1.741,1.741,0,0,0,1.7-.024,1.455,1.455,0,0,0,.712-1.36,1.449,1.449,0,0,0-.688-1.343A1.962,1.962,0,0,0,168.254-185.6Z" transform="translate(-153.211 -299.712)" fill="#fff"/>
    <path id="Path_1910" data-name="Path 1910" d="M243.254-185.6a1.814,1.814,0,0,0-1,1.06,1.674,1.674,0,0,0,.712,1.853,1.741,1.741,0,0,0,1.7-.024,1.455,1.455,0,0,0,.712-1.36,1.449,1.449,0,0,0-.688-1.343A1.962,1.962,0,0,0,243.254-185.6Z" transform="translate(-222.141 -299.712)" fill="#fff"/>
    <path id="Path_1911" data-name="Path 1911" d="M319.254-185.6a1.814,1.814,0,0,0-1,1.06,1.674,1.674,0,0,0,.712,1.853,1.741,1.741,0,0,0,1.7-.024,1.455,1.455,0,0,0,.712-1.36,1.449,1.449,0,0,0-.688-1.343A1.962,1.962,0,0,0,319.254-185.6Z" transform="translate(-291.991 -299.712)" fill="#fff"/>
  </g>
</svg>
