<svg xmlns="http://www.w3.org/2000/svg" width="18.003" height="17.667" viewBox="0 0 18.003 17.667">
  <g id="multiply-mathematical-sign" transform="translate(0 -0.86)">
    <g id="Group_302" data-name="Group 302" transform="translate(0 0.86)">
      <path id="Path_1816" data-name="Path 1816" d="M.418,18.108a1.427,1.427,0,0,0,2.019,0L9,11.544l6.564,6.564a1.428,1.428,0,0,0,2.019-2.019L11.02,9.525,17.248,3.3a1.428,1.428,0,0,0-2.019-2.019L9,7.506,2.774,1.278A1.428,1.428,0,0,0,.755,3.3L6.982,9.525.419,16.089A1.427,1.427,0,0,0,.418,18.108Z" transform="translate(0 -0.86)" fill="#02dccc"/>
    </g>
  </g>
</svg>
