<svg xmlns="http://www.w3.org/2000/svg" width="29.499" height="28.949" viewBox="0 0 29.499 28.949">
  <g id="multiply-mathematical-sign" transform="translate(0 -0.86)">
    <g id="Group_260" data-name="Group 260" transform="translate(0 0.86)">
      <path id="Path_1414" data-name="Path 1414" d="M.686,29.123a2.338,2.338,0,0,0,3.309,0L14.75,18.367,25.505,29.123a2.34,2.34,0,1,0,3.309-3.309L18.058,15.059l10.2-10.2a2.34,2.34,0,0,0-3.309-3.309l-10.2,10.2-10.2-10.2A2.34,2.34,0,0,0,1.238,4.854l10.2,10.2L.686,25.814A2.339,2.339,0,0,0,.686,29.123Z" transform="translate(0 -0.86)" fill="#02dccc"/>
    </g>
  </g>
</svg>
