<svg xmlns="http://www.w3.org/2000/svg" width="221.711" height="172.465" viewBox="0 0 221.711 172.465">
  <g id="undraw_edit_photo_re_ton4" transform="translate(0 0)">
    <path id="Path_2342" data-name="Path 2342" d="M223.679,245.165V158.687a1.421,1.421,0,0,1,1.419-1.419H349.14a1.421,1.421,0,0,1,1.419,1.419v86.478a1.421,1.421,0,0,1-1.419,1.419H225.1A1.421,1.421,0,0,1,223.679,245.165Z" transform="translate(-223.679 -157.268)" fill="#fff"/>
    <path id="Path_2343" data-name="Path 2343" d="M223.679,245.165V158.687a1.421,1.421,0,0,1,1.419-1.419H349.14a1.421,1.421,0,0,1,1.419,1.419v86.478a1.421,1.421,0,0,1-1.419,1.419H225.1A1.421,1.421,0,0,1,223.679,245.165Zm1.419-87.329a.852.852,0,0,0-.852.852v86.478a.852.852,0,0,0,.852.852H349.14a.853.853,0,0,0,.852-.852V158.687a.853.853,0,0,0-.852-.852Z" transform="translate(-223.679 -157.268)" fill="#e6e6e6"/>
    <path id="feda1070-6288-4949-b833-330f4749d65f" d="M332.106,187.137a1.125,1.125,0,1,1,0,2.25H303.9a1.125,1.125,0,1,1-.037-2.25h28.248Z" transform="translate(-279.459 -178.338)" fill="#e4e4e4"/>
    <path id="Path_2344" data-name="Path 2344" d="M280.83,185.919a.221.221,0,0,1,0,.313h0l-.95.95h2.344a.221.221,0,0,1,0,.443h-2.345l.95.95a.221.221,0,1,1-.313.313h0l-1.328-1.328a.221.221,0,0,1,0-.313l1.328-1.328a.221.221,0,0,1,.313,0Z" transform="translate(-262.791 -177.433)" fill="#e6e6e6"/>
    <path id="Path_2345" data-name="Path 2345" d="M420.293,185.919a.221.221,0,0,0,0,.313h0l.95.95H418.9a.221.221,0,0,0,0,.443h2.345l-.95.95a.221.221,0,0,0,.313.313h0l1.328-1.328a.221.221,0,0,0,0-.313l-1.328-1.328a.221.221,0,0,0-.313,0Z" transform="translate(-361.236 -177.433)" fill="#e6e6e6"/>
    <path id="feda1070-6288-4949-b833-330f4749d65f-2" data-name="feda1070-6288-4949-b833-330f4749d65f" d="M332.106,411.822a1.125,1.125,0,1,1,0,2.25H303.895a1.125,1.125,0,0,1-.037-2.25h28.248Z" transform="translate(-279.459 -336.835)" fill="#e4e4e4"/>
    <path id="feda1070-6288-4949-b833-330f4749d65f-3" data-name="feda1070-6288-4949-b833-330f4749d65f" d="M540.106,266.807a1.125,1.125,0,1,1,0,2.25H511.895a1.125,1.125,0,1,1-.037-2.25h28.248Z" transform="translate(-426.187 -234.539)" fill="#e4e4e4"/>
    <path id="feda1070-6288-4949-b833-330f4749d65f-4" data-name="feda1070-6288-4949-b833-330f4749d65f" d="M540.106,293.807a1.125,1.125,0,1,1,0,2.25H511.895a1.125,1.125,0,1,1-.037-2.25h28.248Z" transform="translate(-426.187 -253.585)" fill="#e4e4e4"/>
    <path id="feda1070-6288-4949-b833-330f4749d65f-5" data-name="feda1070-6288-4949-b833-330f4749d65f" d="M540.106,320.807a1.125,1.125,0,1,1,0,2.25H511.895a1.125,1.125,0,1,1-.037-2.25h28.248Z" transform="translate(-426.187 -272.631)" fill="#e4e4e4"/>
    <path id="Path_2346" data-name="Path 2346" d="M547.3,353.321a3.852,3.852,0,1,1,3.852,3.852A3.852,3.852,0,0,1,547.3,353.321Z" transform="translate(-451.969 -292.85)" fill="#02dccc"/>
    <path id="Path_2347" data-name="Path 2347" d="M554.305,357.614h1.14v-1.14a.38.38,0,1,1,.76,0v1.141h1.14a.38.38,0,1,1,0,.76h-1.14v1.14a.38.38,0,1,1-.76,0v-1.14h-1.14a.38.38,0,1,1,0-.76Z" transform="translate(-456.642 -297.524)" fill="#fff"/>
    <rect id="Rectangle_1416" data-name="Rectangle 1416" width="59.842" height="0.378" transform="matrix(0.773, -0.634, 0.634, 0.773, 17.74, 60.218)" fill="#e6e6e6"/>
    <rect id="Rectangle_1417" data-name="Rectangle 1417" width="0.378" height="59.962" transform="matrix(0.636, -0.772, 0.772, 0.636, 17.745, 22.575)" fill="#e6e6e6"/>
    <path id="Path_2348" data-name="Path 2348" d="M281.73,268.986V232.465a1.326,1.326,0,0,1,1.325-1.325h45.037a1.326,1.326,0,0,1,1.325,1.325v36.521a1.326,1.326,0,0,1-1.325,1.325H283.055A1.326,1.326,0,0,1,281.73,268.986Zm1.325-37.467a.947.947,0,0,0-.946.946v36.521a.947.947,0,0,0,.946.946h45.037a.947.947,0,0,0,.946-.946V232.465a.947.947,0,0,0-.946-.946Z" transform="translate(-264.63 -209.379)" fill="#3f3d56"/>
    <path id="Path_2349" data-name="Path 2349" d="M265.468,291.47V254.949a1.326,1.326,0,0,1,1.325-1.325h45.037a1.326,1.326,0,0,1,1.325,1.325V291.47a1.326,1.326,0,0,1-1.325,1.325H266.793A1.326,1.326,0,0,1,265.468,291.47Z" transform="translate(-253.158 -225.24)" fill="#02dccc"/>
    <path id="Path_2350" data-name="Path 2350" d="M328.965,310.035h22.992a.471.471,0,0,0,.086-.007l-10.874-18.836a.761.761,0,0,0-1.325,0l-7.3,12.64-.35.6Z" transform="translate(-297.95 -251.468)" fill="#fff"/>
    <path id="Path_2351" data-name="Path 2351" d="M105.286,183.962h7.85l-3.854-5.6-.277-.4-.139-.2-.35.6Z" transform="translate(-74.271 -125.396)" opacity="0.2"/>
    <path id="Path_2352" data-name="Path 2352" d="M285.506,323.328h19.887l-3.854-5.6-.277-.4-5.022-7.295a1.016,1.016,0,0,0-1.508-.09.9.9,0,0,0-.072.09Z" transform="translate(-267.294 -264.761)" fill="#fff"/>
    <circle id="Ellipse_421" data-name="Ellipse 421" cx="3.406" cy="3.406" r="3.406" transform="translate(29.795 37.373)" fill="#fff"/>
    <rect id="Rectangle_1418" data-name="Rectangle 1418" width="4.163" height="4.163" transform="translate(53.372 31.034)" fill="#3f3d56"/>
    <path id="Path_2353" data-name="Path 2353" d="M580.011,542.3h-3.3l-1.572-12.742h4.876Z" transform="translate(-405.714 -373.565)" fill="#a0616a"/>
    <path id="Path_2354" data-name="Path 2354" d="M792.717,730.7H782.065v-.135a4.146,4.146,0,0,1,4.146-4.146h6.506Z" transform="translate(-617.578 -558.762)" fill="#2f2e41"/>
    <path id="Path_2355" data-name="Path 2355" d="M660.762,534.414l-3.161.96-5.207-11.735,4.665-1.417Z" transform="translate(-460.214 -368.387)" fill="#a0616a"/>
    <path id="Path_2356" data-name="Path 2356" d="M885.445,720.638l-10.192,3.1-.039-.129a4.146,4.146,0,0,1,2.762-5.172h0l6.225-1.891Z" transform="translate(-683.16 -551.793)" fill="#2f2e41"/>
    <rect id="Rectangle_1419" data-name="Rectangle 1419" width="87.31" height="0.604" transform="translate(134.401 171.861)" fill="#cacaca"/>
    <circle id="Ellipse_422" data-name="Ellipse 422" cx="6.872" cy="6.872" r="6.872" transform="translate(160.819 34.957)" fill="#a0616a"/>
    <path id="Path_2357" data-name="Path 2357" d="M584.823,381.53l-6.781,2.906-15.693-37L561.09,388.6l-6.781-.387L546.753,323.7l.581-3.681L573,325.732l.387,20.73Z" transform="translate(-385.692 -225.747)" fill="#2f2e41"/>
    <path id="Path_2358" data-name="Path 2358" d="M765.7,276.256s4.456-4.069,5.812-2.325,1.744,2.131,2.519,2.131,2.712,2.131,2.712,2.131.969-1.937,2.131-.387a8.644,8.644,0,0,1,1.356,3.875s4.262-9.881-3.294-11.818S763.957,273.931,765.7,276.256Z" transform="translate(-605.803 -236.427)" fill="#2f2e41"/>
    <path id="Path_2359" data-name="Path 2359" d="M806.349,374.984c-3.681-1.612-3.79-.347-9.106,1.744-6.7.831-10.952.938-13.078-1.841-.87-5.516-1.583-10.8-2.023-15.834q-.137-1.555-.236-3.079c-.775-11.832.174-22.117,4.487-30.394l7.75-5.812,2.528,1.835c6.039,4.382,5.1,11.115,5.9,18.533Z" transform="translate(-617.293 -271.899)" fill="#e6e6e6"/>
    <path id="Path_2360" data-name="Path 2360" d="M799.641,382.577s11.446,14.918,3.27,21.7-12.749,11.043-12.749,11.043S790.648,386.064,799.641,382.577Z" transform="translate(-623.289 -316.206)" opacity="0.2"/>
    <path id="Path_2361" data-name="Path 2361" d="M789.791,388.68l-7.06,5.865q-.137-1.555-.236-3.079l4.778-21.385Z" transform="translate(-617.88 -307.39)" opacity="0.2"/>
    <path id="Path_2362" data-name="Path 2362" d="M768.289,475.053a3.11,3.11,0,0,0,1.069-4.648l3.593-6.133-3.194-3.092-4.952,8.732a3.127,3.127,0,0,0,3.485,5.141Z" transform="translate(-604.64 -371.654)" fill="#a0616a"/>
    <path id="Path_2363" data-name="Path 2363" d="M776.379,381.282l-5.618-4.456,7.362-18.6.167-19.387a4.414,4.414,0,0,1,2.935-4.121h0a4.414,4.414,0,0,1,5.893,4.1l.3,22.508Z" transform="translate(-609.603 -282.265)" fill="#e6e6e6"/>
  </g>
</svg>
