<svg id="open-menu_2_" data-name="open-menu (2)" xmlns="http://www.w3.org/2000/svg" width="30.462" height="22" viewBox="0 0 30.462 22">
  <path id="Path_2338" data-name="Path 2338" d="M29.192,125.206H1.269a1.269,1.269,0,0,1,0-2.538H29.192a1.269,1.269,0,0,1,0,2.538Zm0,0" transform="translate(0 -112.937)" fill="#8f8f8f"/>
  <path id="Path_2339" data-name="Path 2339" d="M29.192,2.538H1.269A1.269,1.269,0,0,1,1.269,0H29.192a1.269,1.269,0,0,1,0,2.538Zm0,0" fill="#8f8f8f"/>
  <path id="Path_2340" data-name="Path 2340" d="M29.192,247.87H1.269a1.269,1.269,0,1,1,0-2.538H29.192a1.269,1.269,0,1,1,0,2.538Zm0,0" transform="translate(0 -225.87)" fill="#8f8f8f"/>
</svg>
