<svg xmlns="http://www.w3.org/2000/svg" width="225.074" height="157.887" viewBox="0 0 225.074 157.887">
  <g id="undraw_product_teardown_re_m1pc" transform="translate(0 0)">
    <path id="Path_1432" data-name="Path 1432" d="M803.979,658.269l0-.209a24.13,24.13,0,0,1,9.023-18.172,23.412,23.412,0,0,1,5.03-3.031l.171-.076.029.185c.348,2.211.9,4.469,1.156,5.47l1.721-6.716.191-.055a4.576,4.576,0,0,1,4.885,1.561,4.655,4.655,0,0,1,.483,5.193c-.4.747-.8,1.527-1.177,2.282a30.387,30.387,0,0,1-4.641,7.354,14.585,14.585,0,0,1-11.764,4.389Z" transform="translate(-630.218 -500.88)" fill="#f2f2f2"/>
    <path id="Path_1433" data-name="Path 1433" d="M511.405,282.343H466.973a6.034,6.034,0,0,1-6.027-6.027V213.81a27.554,27.554,0,0,1,27.523-27.523h22.936a6.034,6.034,0,0,1,6.027,6.027v84a6.034,6.034,0,0,1-6.028,6.027Z" transform="translate(-389.974 -186.287)" fill="#f2f2f2"/>
    <path id="Path_1434" data-name="Path 1434" d="M480.313,367.571a2.542,2.542,0,0,0-2.539,2.539v14.267a2.542,2.542,0,0,0,2.539,2.539h43.18a2.542,2.542,0,0,0,2.539-2.539V370.11a2.541,2.541,0,0,0-2.539-2.539Z" transform="translate(-401.76 -313.25)" fill="#fff"/>
    <path id="Path_1435" data-name="Path 1435" d="M523.353,290.5H480.173a2.75,2.75,0,0,1-2.747-2.747,17.033,17.033,0,0,1,17.014-17.014h28.913a2.75,2.75,0,0,1,2.747,2.747v14.267A2.75,2.75,0,0,1,523.353,290.5Z" transform="translate(-401.516 -245.43)" fill="#fff"/>
    <path id="Path_1436" data-name="Path 1436" d="M573.983,389.06H524.276a1.1,1.1,0,0,1-1.1-1.1v-13.1a1.1,1.1,0,0,1,1.1-1.1h49.707a1.1,1.1,0,0,1,1.1,1.1v13.1A1.1,1.1,0,0,1,573.983,389.06Z" transform="translate(-433.556 -317.584)" fill="#fff"/>
    <path id="Path_1437" data-name="Path 1437" d="M573.5,388.782H523.79a1.311,1.311,0,0,1-1.31-1.31v-13.1a1.311,1.311,0,0,1,1.31-1.31H573.5a1.311,1.311,0,0,1,1.31,1.31v13.1A1.312,1.312,0,0,1,573.5,388.782Zm-49.707-15.3a.9.9,0,0,0-.894.894v13.1a.9.9,0,0,0,.894.894H573.5a.9.9,0,0,0,.894-.894v-13.1a.9.9,0,0,0-.894-.894Z" transform="translate(-433.07 -317.098)" fill="#ccc"/>
    <circle id="Ellipse_163" data-name="Ellipse 163" cx="1.788" cy="1.788" r="1.788" transform="translate(93.159 58.807)" fill="#e6e6e6"/>
    <path id="Path_1438" data-name="Path 1438" d="M579.287,401.059H535.522a.533.533,0,1,1,0-1.065h43.764a.533.533,0,0,1,0,1.065Z" transform="translate(-441.831 -335.957)" fill="#e6e6e6"/>
    <path id="Path_1439" data-name="Path 1439" d="M574.938,408.081H535.522a.533.533,0,0,1,0-1.065h39.416a.533.533,0,0,1,0,1.065Z" transform="translate(-441.831 -340.875)" fill="#e6e6e6"/>
    <path id="Path_1440" data-name="Path 1440" d="M490.344,585.674l-12.166-4.849a1.1,1.1,0,0,1-.616-1.432l18.4-46.174a1.1,1.1,0,0,1,1.432-.616l12.166,4.849a1.1,1.1,0,0,1,.616,1.432l-18.4,46.174A1.1,1.1,0,0,1,490.344,585.674Z" transform="translate(-401.556 -428.776)" fill="#fff"/>
    <path id="Path_1441" data-name="Path 1441" d="M489.78,585.382l-12.166-4.849a1.311,1.311,0,0,1-.732-1.7l18.4-46.174a1.311,1.311,0,0,1,1.7-.732l12.166,4.849a1.311,1.311,0,0,1,.732,1.7l-18.4,46.174A1.311,1.311,0,0,1,489.78,585.382Zm-12.512-6.4a.9.9,0,0,0,.5,1.161L489.934,585a.9.9,0,0,0,1.161-.5l18.4-46.174a.9.9,0,0,0-.5-1.161l-12.166-4.849a.9.9,0,0,0-1.161.5Z" transform="translate(-401.07 -428.29)" fill="#ccc"/>
    <circle id="Ellipse_164" data-name="Ellipse 164" cx="1.788" cy="1.788" r="1.788" transform="translate(95.162 108.218)" fill="#e6e6e6"/>
    <path id="Path_1442" data-name="Path 1442" d="M505.994,594.327a.533.533,0,0,1-.3-.692l16.2-40.654a.532.532,0,1,1,.989.394l-16.2,40.654A.533.533,0,0,1,505.994,594.327Z" transform="translate(-421.289 -442.867)" fill="#e6e6e6"/>
    <path id="Path_1443" data-name="Path 1443" d="M517.89,592.887a.533.533,0,0,1-.3-.692l14.594-36.614a.533.533,0,1,1,.989.394L518.582,592.59A.533.533,0,0,1,517.89,592.887Z" transform="translate(-429.62 -444.688)" fill="#e6e6e6"/>
    <circle id="Ellipse_165" data-name="Ellipse 165" cx="4.707" cy="4.707" r="4.707" transform="translate(114.025 2.943)" fill="#fff"/>
    <path id="Path_1444" data-name="Path 1444" d="M616.766,205.777h-2.117V203.66a.2.2,0,0,0-.4,0v2.117h-2.118a.2.2,0,1,0,0,.4h2.117V208.3a.2.2,0,1,0,.4,0v-2.117h2.117a.2.2,0,1,0,0-.4Z" transform="translate(-495.717 -198.314)" fill="#e6e6e6"/>
    <path id="Path_1445" data-name="Path 1445" d="M767.69,206.55H751.808a3.9,3.9,0,1,1,0-7.791H767.69a3.9,3.9,0,1,1,0,7.791Z" transform="translate(-590.952 -195.022)" fill="#0a1f30"/>
    <rect id="Rectangle_422" data-name="Rectangle 422" width="0.599" height="30.693" transform="translate(122.464 6.627) rotate(-89.173)" fill="#3f3d56"/>
    <path id="Path_1446" data-name="Path 1446" d="M625.006,205.815a1.5,1.5,0,1,1,.655-.152A1.5,1.5,0,0,1,625.006,205.815Zm0-2.4a.9.9,0,1,0,.809.505h0a.9.9,0,0,0-.809-.505Z" transform="translate(-503.82 -197.861)" fill="#3f3d56"/>
    <path id="Path_1447" data-name="Path 1447" d="M321.686,232.654a3.9,3.9,0,0,1,3.9-3.9h15.881a3.9,3.9,0,1,1,0,7.791H325.581a3.9,3.9,0,0,1-3.9-3.9Z" transform="translate(-292.443 -216.032)" fill="#02dccc"/>
    <rect id="Rectangle_423" data-name="Rectangle 423" width="30.693" height="0.599" transform="translate(56.713 15.462) rotate(-0.827)" fill="#3f3d56"/>
    <path id="Path_1448" data-name="Path 1448" d="M515.944,235.721a1.488,1.488,0,1,1,.655.152A1.488,1.488,0,0,1,515.944,235.721Zm.364-2.2a.893.893,0,0,0-.515.456h0a.9.9,0,1,0,.515-.456Z" transform="translate(-427.909 -218.93)" fill="#3f3d56"/>
    <path id="Path_1449" data-name="Path 1449" d="M317.686,625.654a3.9,3.9,0,0,1,3.9-3.9h15.881a3.9,3.9,0,1,1,0,7.791H321.581A3.9,3.9,0,0,1,317.686,625.654Z" transform="translate(-289.641 -491.271)" fill="#02dccc"/>
    <rect id="Rectangle_424" data-name="Rectangle 424" width="30.693" height="0.599" transform="translate(55.514 133.224) rotate(-0.827)" fill="#3f3d56"/>
    <path id="Path_1450" data-name="Path 1450" d="M511.944,628.721a1.488,1.488,0,1,1,.655.152A1.488,1.488,0,0,1,511.944,628.721Zm.364-2.2a.893.893,0,0,0-.515.456h0a.9.9,0,1,0,.515-.456Z" transform="translate(-425.107 -494.169)" fill="#3f3d56"/>
    <path id="Path_1451" data-name="Path 1451" d="M331.686,377.654a3.9,3.9,0,0,1,3.9-3.9h15.881a3.9,3.9,0,1,1,0,7.791H335.581A3.9,3.9,0,0,1,331.686,377.654Z" transform="translate(-299.446 -317.583)" fill="#0a1f30"/>
    <rect id="Rectangle_425" data-name="Rectangle 425" width="30.693" height="0.599" transform="translate(59.709 58.911) rotate(-0.827)" fill="#3f3d56"/>
    <path id="Path_1452" data-name="Path 1452" d="M525.944,380.721a1.488,1.488,0,1,1,.655.152A1.488,1.488,0,0,1,525.944,380.721Zm.364-2.2a.893.893,0,0,0-.515.456h0a.9.9,0,1,0,.515-.456Z" transform="translate(-434.912 -320.481)" fill="#3f3d56"/>
    <path id="Path_1453" data-name="Path 1453" d="M753.69,289.55H737.808a3.9,3.9,0,0,1,0-7.791H753.69a3.9,3.9,0,0,1,0,7.791Z" transform="translate(-581.147 -253.151)" fill="#02dccc"/>
    <rect id="Rectangle_426" data-name="Rectangle 426" width="0.599" height="30.693" transform="translate(118.27 31.498) rotate(-89.173)" fill="#3f3d56"/>
    <path id="Path_1454" data-name="Path 1454" d="M611.006,288.815a1.5,1.5,0,1,1,.655-.152A1.5,1.5,0,0,1,611.006,288.815Zm0-2.4a.9.9,0,1,0,.809.506h0a.9.9,0,0,0-.809-.505Z" transform="translate(-494.015 -255.99)" fill="#3f3d56"/>
    <path id="Path_1455" data-name="Path 1455" d="M809.7,455.835l-4.613.2c-1.039,2.827-.3,9.689-.3,9.689l-2.423,11.277a2.039,2.039,0,1,0,3.407.915L810.69,464.4Z" transform="translate(-628.665 -375.066)" fill="#9e616a"/>
    <path id="Path_1456" data-name="Path 1456" d="M807,414.668h0a4.872,4.872,0,0,1,4.975,5.609l-.443,2.881s1.267,9.809-.278,12.478l-2.947,7.98-4.808-.246,1.329-8.715s.335-4.313-.892-6.138c-.751-1.117-1.515-5.323-1.646-8.836A4.859,4.859,0,0,1,807,414.668Z" transform="translate(-629.037 -346.232)" fill="#3f3d56"/>
    <path id="Path_1457" data-name="Path 1457" d="M572.467,487.589h-2.995l-1.425-11.553h4.421Z" transform="translate(-397.833 -333.393)" fill="#9e616a"/>
    <path id="Path_1458" data-name="Path 1458" d="M785.717,699.671h-9.211v-.117a3.585,3.585,0,0,1,3.585-3.585h0l1.682-1.276,3.139,1.277h.8Z" transform="translate(-610.978 -542.351)" fill="#2f2e41"/>
    <path id="Path_1459" data-name="Path 1459" d="M536.35,487.589h-2.995l-1.425-11.553h4.421Z" transform="translate(-372.539 -333.393)" fill="#9e616a"/>
    <path id="Path_1460" data-name="Path 1460" d="M749.6,699.671h-9.211v-.117a3.585,3.585,0,0,1,3.585-3.585h0l1.682-1.276,3.139,1.277h.8Z" transform="translate(-585.683 -542.351)" fill="#2f2e41"/>
    <path id="Path_1461" data-name="Path 1461" d="M734.479,525.2c1.779,5.667,2.462,10.112,3.817,15.724.535.985,2.84,9.17,2.84,9.17s3.454.379,4.675-.588-.037-5.751-.037-5.751c.805-3.617-1.18-9.315-1.3-12.822.244-1.472-1.051-2.735-1.169-4.138.856-.652,5.022-10.876,5.871-13.733-.437,8.706,3.393,28.583,1.375,35.187-1.172,3.837,1.553,2.984,5.588,3.169,1.8-.534,1.067-3.614,1.067-3.614a9.818,9.818,0,0,0,1.222-2.823c.875-3.691,1.926-11.72,1.639-13.524.131-1.915.2-21.049,1.659-27.751.975-5.339-10.973-6.514-14.409-7.787-5.733-2.762-4.766,1.165-7.785,4.783C736.624,506.934,734.91,518.07,734.479,525.2Z" transform="translate(-581.544 -402.484)" fill="#2f2e41"/>
    <path id="Path_1462" data-name="Path 1462" d="M763.766,399.345l3.483-3.922,5.5.612,3.524,4.931h0c3.894.9,4.612,4.08,3.929,8.018-1.367,7.874-4.743,13.377-3.208,17.262,2.329,5.9,1.2,10.435-4.376,9.608s-18.423-6.287-14.8-9.908.384-5.52.384-5.52l2.542-13.845c-.651-3.531-.551-6.867,3.021-7.236Z" transform="translate(-597.447 -332.756)" fill="#3f3d56"/>
    <path id="Path_1463" data-name="Path 1463" d="M744.361,446.644l-4.39-1.432c-1.968,2.28-3.694,8.963-3.694,8.963l-6.237,9.7a2.038,2.038,0,1,0,2.867,2.055l9.365-10.925Z" transform="translate(-577.595 -367.626)" fill="#9e616a"/>
    <path id="Path_1464" data-name="Path 1464" d="M754.27,407.249h0a4.872,4.872,0,0,1,2.683,7l-1.429,2.541s-2.266,9.627-4.651,11.582l-5.567,6.433-4.414-1.922,4.311-7.689s1.832-3.919,1.326-6.059c-.31-1.31.455-5.516,1.569-8.85a4.859,4.859,0,0,1,6.173-3.036Z" transform="translate(-586.035 -340.855)" fill="#3f3d56"/>
    <circle id="ab6171fa-7d69-4734-b81c-8dff60f9761b" cx="5.689" cy="5.689" r="5.689" transform="translate(168.201 50.453)" fill="#a0616a"/>
    <path id="Path_1465" data-name="Path 1465" d="M787.229,348.444a3.2,3.2,0,0,1,.557-1.309,1.566,1.566,0,0,1,2.333-.071,1.716,1.716,0,0,1-.076-.805,4.361,4.361,0,0,0,1.317.392l-1.01-1.054c2.074-.922,3.788-.872,5.025.462.354.382,1.08.115,1.46.509s.4,1.235-.079,1.455a2.392,2.392,0,0,1,2.664,1.03,5.734,5.734,0,0,1,.9,3.126,6.009,6.009,0,0,1-1.094,4.038,25.352,25.352,0,0,1-2,1.751l-.019.019a5.661,5.661,0,0,1-5.479,1.526c-.109-.03-.216-.063-.325-.094a1.318,1.318,0,0,1-1.558-.635,3.988,3.988,0,0,1-.452-2.032,16.66,16.66,0,0,1,.171-2.768c.151-1.032.287-2.353-.531-2.871-.636-.4-1.427-.005-2.067.39a10.634,10.634,0,0,1,.261-3.059Z" transform="translate(-618.292 -297.422)" fill="#2f2e41"/>
    <path id="Path_1466" data-name="Path 1466" d="M448.812,711.223l-224.36.092a.357.357,0,1,1,0-.714l224.36-.092a.357.357,0,0,1,0,.714Z" transform="translate(-224.094 -553.428)" fill="#cacaca"/>
  </g>
</svg>
