<svg id="plus_3_" data-name="plus (3)" xmlns="http://www.w3.org/2000/svg" width="57.027" height="57.103" viewBox="0 0 57.027 57.103">
  <path id="Path_534" data-name="Path 534" d="M51.1,52.343c-8.738,7.133-36.021,7.133-44.58,0-8.738-7.133-7.846-37.626,0-45.65s36.734-8.024,44.58,0S59.842,45.211,51.1,52.343Z" transform="translate(-0.301 -0.59)" fill="#2ae78b"/>
  <g id="Group_215" data-name="Group 215" transform="translate(0.026 0)" opacity="0.2">
    <path id="Path_535" data-name="Path 535" d="M29.175,39.271C21.329,45.512,12.591,48.722,4.389,48.9-1.674,38.558-.426,13.415,6.707,6.1c6.42-6.6,26.57-7.846,38.161-3.745C47.721,14.128,41.836,29.107,29.175,39.271Z" transform="translate(-0.509 0)" fill="#fff"/>
  </g>
  <path id="Path_536" data-name="Path 536" d="M124,108.462a3.2,3.2,0,0,1-3.21,3.21h-10.7v10.7a3.21,3.21,0,0,1-6.42,0v-10.7H92.97a3.21,3.21,0,0,1,0-6.42h10.7v-10.7a3.21,3.21,0,1,1,6.42,0v10.7h10.7A3.2,3.2,0,0,1,124,108.462Z" transform="translate(-78.543 -79.89)" fill="#fff"/>
</svg>
