<svg xmlns="http://www.w3.org/2000/svg" xmlns:xlink="http://www.w3.org/1999/xlink" width="242" height="242" viewBox="0 0 242 242">
  <defs>
    <filter id="Path_2324" x="0" y="0" width="242" height="242" filterUnits="userSpaceOnUse">
      <feOffset dy="12" input="SourceAlpha"/>
      <feGaussianBlur stdDeviation="10" result="blur"/>
      <feFlood flood-opacity="0.161"/>
      <feComposite operator="in" in2="blur"/>
      <feComposite in="SourceGraphic"/>
    </filter>
    <filter id="add_2_" x="79.617" y="72.242" width="77.515" height="77.515" filterUnits="userSpaceOnUse">
      <feOffset dy="3" input="SourceAlpha"/>
      <feGaussianBlur stdDeviation="3" result="blur-2"/>
      <feFlood flood-opacity="0.161"/>
      <feComposite operator="in" in2="blur-2"/>
      <feComposite in="SourceGraphic"/>
    </filter>
  </defs>
  <g id="Component_3_1" data-name="Component 3 – 1" transform="translate(30 18)">
    <g transform="matrix(1, 0, 0, 1, -30, -18)" filter="url(#Path_2324)">
      <path id="Path_2324-2" data-name="Path 2324" d="M91,0A91,91,0,1,1,0,91,91,91,0,0,1,91,0Z" transform="translate(30 18)" fill="#02dccc"/>
    </g>
    <g transform="matrix(1, 0, 0, 1, -30, -18)" filter="url(#add_2_)">
      <path id="add_2_2" data-name="add (2)" d="M54.2,24.444H36.134a1.063,1.063,0,0,1-1.063-1.063V5.314a5.314,5.314,0,1,0-10.628,0V23.381a1.063,1.063,0,0,1-1.063,1.063H5.314a5.314,5.314,0,1,0,0,10.628H23.381a1.063,1.063,0,0,1,1.063,1.063V54.2a5.314,5.314,0,1,0,10.628,0V36.134a1.063,1.063,0,0,1,1.063-1.063H54.2a5.314,5.314,0,1,0,0-10.628Zm0,0" transform="translate(88.62 78.24)" fill="#fff"/>
    </g>
  </g>
</svg>
