<svg xmlns="http://www.w3.org/2000/svg" width="67" height="58" viewBox="0 0 67 58">
  <g id="Polygon_20" data-name="Polygon 20" fill="none">
    <path d="M24.841,14.992a10,10,0,0,1,17.319,0L58.335,43a10,10,0,0,1-8.659,15H17.324A10,10,0,0,1,8.665,43Z" stroke="none"/>
    <path d="M 33.5 14.99386978149414 C 32.6322135925293 14.99386978149414 30.47316360473633 15.23739624023438 29.17030715942383 17.49310302734375 L 12.99435424804688 45.49923324584961 C 11.69109344482422 47.75563049316406 12.55974197387695 49.74782180786133 12.99369430541992 50.4996223449707 C 13.42765808105469 51.25141143798828 14.71831893920898 53 17.32404708862305 53 L 49.67595291137695 53 C 52.28168106079102 53 53.57234191894531 51.25141143798828 54.00629425048828 50.4996223449707 C 54.44025802612305 49.74782180786133 55.30889511108398 47.75563049316406 54.00563430786133 45.49923324584961 L 37.82966995239258 17.49310302734375 C 36.52682495117188 15.23739624023438 34.3677864074707 14.99386978149414 33.5 14.99386978149414 M 33.5 9.993869781494141 C 36.86733245849609 9.993869781494141 40.23467254638672 11.66002655029297 42.15936279296875 14.99234008789062 L 58.33531951904297 42.99846649169922 C 62.18589401245117 49.66513824462891 57.37474060058594 58 49.67595291137695 58 L 17.32404708862305 58 C 9.625259399414062 58 4.814105987548828 49.66513824462891 8.664669036865234 42.99846649169922 L 24.84062194824219 14.99234008789062 C 26.76532363891602 11.66002655029297 30.13265991210938 9.993869781494141 33.5 9.993869781494141 Z" stroke="none" fill="#02dccc"/>
  </g>
</svg>
