<svg xmlns="http://www.w3.org/2000/svg" width="149.374" height="120.122" viewBox="0 0 149.374 120.122">
  <g id="undraw_pie_graph_re_fvol" transform="translate(0.001)">
    <path id="Path_1640" data-name="Path 1640" d="M465.145,500.886H462.38l-1.315-10.665h4.081Z" transform="translate(-361.131 -383.967)" fill="#ffb6b6"/>
    <path id="Path_1641" data-name="Path 1641" d="M665.077,685.085l-2.952-1.2-.085-.035-1.63,1.235a3.471,3.471,0,0,0-3.47,3.47v.113h8.915v-3.583Z" transform="translate(-561.136 -569.07)" fill="#2f2e41"/>
    <path id="Path_1642" data-name="Path 1642" d="M564.764,488.347l-2.475,1.233-5.935-8.958,3.652-1.82Z" transform="translate(-435.767 -375.023)" fill="#ffb6b6"/>
    <path id="Path_1643" data-name="Path 1643" d="M786.578,671.95l-.633.314-.065.033-3.173.245-.1.007-.908,1.832a3.468,3.468,0,0,0-1.556,4.654l.05.1,7.978-3.975Z" transform="translate(-657.352 -559.749)" fill="#2f2e41"/>
    <path id="Path_1644" data-name="Path 1644" d="M674.167,429.25l15.246.534.106-.154a17.142,17.142,0,0,1,1.3,5.635c0,.865-.6,6.521-.3,7.591a3.251,3.251,0,0,0-.138,1.079c.056.4.363.093.433.65.051.4-.49.621-.433,1.084.062.506.806,2.143.873,2.706.713,5.988,1.662,14.662,1.662,14.662s3.812,10.21,4.618,10.375c1.354.278,2.267,2.739,1.517,3.251-.357.244-4.973,1.883-4.973,1.883-.254.046-1.047-.352-.542-1.293.093-.173-.462.268-.554.06s.094-1.1-.018-1.343a29.171,29.171,0,0,0-4.025-6.81,14.87,14.87,0,0,1-3.92-8.4l-3.367-18.667-1.154,5.235-.955.943.262,2.2-.045,2.135-2.384,8.887s-.358,16.6.217,17.123c.311.285,1.631,3.8-.867,4.118l-4.538-.35s-.611-1.289-.306-1.747.287-.333-.086-1.084a4.426,4.426,0,0,1-.22-2.022,149.82,149.82,0,0,1-.7-17.988c.228-9.863,1.606-21.193,1.606-21.424a1.525,1.525,0,0,0-.127-.688v-.623l.586-2.206Z" transform="translate(-572.028 -369.654)" fill="#2f2e41"/>
    <circle id="Ellipse_202" data-name="Ellipse 202" cx="6.021" cy="6.021" r="6.021" transform="translate(117.573 49.418)" fill="#02dccc"/>
    <path id="Path_1645" data-name="Path 1645" d="M773.01,401.88a.67.67,0,0,1-.536-.268l-1.643-2.19a.67.67,0,0,1,1.072-.8l1.075,1.433,2.76-4.14a.67.67,0,1,1,1.115.743l-3.285,4.928a.67.67,0,0,1-.539.3Z" transform="translate(-650.237 -343.307)" fill="#fff"/>
    <path id="Path_1646" data-name="Path 1646" d="M774.474,393.757a1.731,1.731,0,0,0-1.585-2.13L769.8,381.115l-2.087,2.422,3.321,9.842a1.741,1.741,0,0,0,3.437.377Z" transform="translate(-647.902 -331.952)" fill="#ffb8b8"/>
    <path id="Path_1647" data-name="Path 1647" d="M732,324.383l-.4-1.47.459-.878-.035-.1-.139-.394-.72-.577.258-.735-.91-2.586-.223-.449L725.059,306.7l-1.253-2.516-.29-.455-.9-1.418-1.235-1.936a2.763,2.763,0,0,0-1.751-1.22,2.806,2.806,0,0,0-.351-.054l-.085-.007a2.788,2.788,0,0,0-.631.037h0a2.7,2.7,0,0,0-1.027.408,2.761,2.761,0,0,0-.646.581,2.8,2.8,0,0,0-.618,1.853l.039,1.058.039.962,1.834,3.316.119.217,0,.007,5.642,10.209,1.7,3.078.258.468,1.144.759-.306.763.089,1.188.973.735,1.411,1.433.056.117.433-.219.041-.022.1-.028,1.342-.405.815-.245.026-.009.223-.056Z" transform="translate(-607.6 -267.706)" fill="#e6e6e6"/>
    <path id="Path_1648" data-name="Path 1648" d="M837.8,631.374a3.309,3.309,0,0,0-3.533-1.129l-.139.041-1.244,4.857c-.186-.724-.585-2.358-.837-3.958l-.022-.132-.123.054a16.869,16.869,0,0,0-3.639,2.193,17.453,17.453,0,0,0-6.526,13.144l0,.093,0,.059.165-.059,3.535-1.264a10.553,10.553,0,0,0,8.509-3.173,21.956,21.956,0,0,0,3.355-5.319c.277-.546.561-1.11.852-1.652A3.363,3.363,0,0,0,837.8,631.374Z" transform="translate(-690.208 -526.978)" fill="#f2f2f2"/>
    <path id="Path_1649" data-name="Path 1649" d="M260.819,49.3h-.434V32.6h31.354v.433H260.819Z" transform="translate(-203.948 -25.532)" fill="#3f3d56"/>
    <circle id="Ellipse_203" data-name="Ellipse 203" cx="6.021" cy="6.021" r="6.021" transform="translate(86.578 0)" fill="#ffe7a5"/>
    <path id="Path_1650" data-name="Path 1650" d="M630.01,173.88a.67.67,0,0,1-.536-.268l-1.643-2.19a.67.67,0,1,1,1.072-.8l1.075,1.433,2.76-4.14a.67.67,0,1,1,1.115.743l-3.285,4.928a.67.67,0,0,1-.539.3Z" transform="translate(-538.232 -164.725)" fill="#fff"/>
    <path id="Path_1651" data-name="Path 1651" d="M162.818,296.685h-.433v16.7h31.354v-.433H162.818Z" transform="translate(-127.189 -232.379)" fill="#3f3d56"/>
    <circle id="Ellipse_204" data-name="Ellipse 204" cx="6.021" cy="6.021" r="6.021" transform="translate(65.337 74.995)" fill="#ffe7a5"/>
    <path id="Path_1652" data-name="Path 1652" d="M532.01,519.88a.67.67,0,0,1-.536-.268l-1.643-2.19a.67.67,0,1,1,1.072-.8l1.075,1.433,2.76-4.14a.67.67,0,1,1,1.115.743l-3.285,4.928a.67.67,0,0,1-.539.3Z" transform="translate(-461.473 -435.731)" fill="#fff"/>
    <path id="Path_1653" data-name="Path 1653" d="M698.074,317.132a3.928,3.928,0,0,1-.217,1.342l-.033-.006c-3.849.666-7.284.775-8.872-1.588-2.073-2.639-4.923-2.609-8.1-1.451l-.377-.407-.642-.691.59-.668-.59-1.287.492-1.589.629-.115-.169-1.368-.264-.8.776-.852.659-2.126-.475-4.45a29.643,29.643,0,0,1,3.6-17.6l1.8-1.617.748-.672,1-1.873,1.06.124,2.87.332.1.234.7,1.7,3.711,3.986-.167,1.682-.074.741-.054.533-.256,2.566-1.043,10.484-.078.557-.839,6.028a14.049,14.049,0,0,1,3.147,6.175c.065.258-.119.52-.072.772.067.355.36.694.392,1.025A7.9,7.9,0,0,1,698.074,317.132Z" transform="translate(-579.065 -252.213)" fill="#e6e6e6"/>
    <circle id="Ellipse_205" data-name="Ellipse 205" cx="4.984" cy="4.984" r="4.984" transform="translate(106.675 16.457)" fill="#ffb6b6"/>
    <path id="Path_1654" data-name="Path 1654" d="M718.384,226.853a2.57,2.57,0,0,0-2.065-1.8,3.362,3.362,0,0,0-4.928-3.36,1.046,1.046,0,0,0-.961-.365,2.155,2.155,0,0,0-.976.427,4.838,4.838,0,0,0-1.935,4.576c0-.44.193.411.751.486a3.682,3.682,0,0,1,1.3.538,3.8,3.8,0,0,0,1.3.546c.468.069.589,1.946.255,3.156-.063.229-.1.537.116.646.26.135.523-.2.814-.237a.5.5,0,0,1,.511.478.821.821,0,0,1-.343.67,2.428,2.428,0,0,1-.7.34l.084.119a.668.668,0,0,0,.786.321c.333.4,3.768-.714,3.936-1.448a8.107,8.107,0,0,0,1.764-2.279,3.874,3.874,0,0,0,.286-2.814Z" transform="translate(-600.716 -206.771)" fill="#2f2e41"/>
    <path id="Path_1655" data-name="Path 1655" d="M732.641,288.1a1.449,1.449,0,0,1-1.186,1.136,2.563,2.563,0,0,1-.882.015,6.018,6.018,0,0,1-.845-.189q-.514-.146-1.016-.329a16.115,16.115,0,0,1-2.757-1.29,16.307,16.307,0,0,1-1.9-1.3q-.468-.371-.908-.774l.366.173-.982-1.32-.947-1.274c-.02-.026-.035-.043-.041-.052v0c-.145-.193-.288-.386-.431-.579-.431-.579-.856-1.428-.36-1.951a.93.93,0,0,1,.809-.245,1.287,1.287,0,0,1,.444.143,3.135,3.135,0,0,1,.943.952,1.65,1.65,0,0,1,1.589-.594c.033,0,.063.007.093.011.618.106.884-.228,1.42.1.249.152.4.932.65,1.084.141.087.663.217.806.306.282.173.21.821.494.995.21.128.774-.217.984-.089s.529,1.038.75,1.173c.44.271.793-.223,1.233.046a3.094,3.094,0,0,1,1.407,1.357,1.14,1.14,0,0,1-.583,1.45A.968.968,0,0,1,732.641,288.1Z" transform="translate(-610.942 -252.841)" fill="#e6e6e6"/>
    <path id="Path_1656" data-name="Path 1656" d="M732.354,298.8l-.054.533a7.362,7.362,0,0,1-1.8-.405,3.8,3.8,0,0,1-1.892-1.407c-.295-.442-.6-.882-.91-1.307-.511-.711-1.019-1.374-1.439-1.914-.514-.652-.9-1.125-1.032-1.281-.019-.026-.035-.043-.041-.052l-.006-.007.006,0c2.575,3.26,5.008,5.139,7.242,5.094C732.428,298.058,732.69,298.921,732.354,298.8Z" transform="translate(-614.585 -262.904)" opacity="0.2"/>
    <path id="Path_1657" data-name="Path 1657" d="M649.345,194.718a1.731,1.731,0,0,0,1.543,2.16l2.881,10.57,2.134-2.381-3.129-9.9a1.741,1.741,0,0,0-3.429-.444Z" transform="translate(-555.144 -184.925)" fill="#ffb8b8"/>
    <path id="Path_1658" data-name="Path 1658" d="M670.391,238.725l-.019-.962-1.816-3.444-.067-.126,0-.007-1.394-2.64-6.725-12.75-.722-.265.036-1.036-.036-1.132-.868-.582-.37-.7-.525.15h0l-.015,0-2.293.644h0l-.477.269-.434,1.3-.095.616.095,1.118,1.084.217-.359,1.147,1.089,3.3c1.363,5.765,3.225,10.742,6.44,13.584l.264.433,2.092,3.422a2.776,2.776,0,0,0,2.794,1.3h0a2.749,2.749,0,0,0,1.036-.386,2.708,2.708,0,0,0,.75-.687,2.792,2.792,0,0,0,.561-1.723Z" transform="translate(-559.274 -201.904)" fill="#e6e6e6"/>
    <path id="Path_1659" data-name="Path 1659" d="M689.121,706.323l-58.9.067a.258.258,0,0,1,0-.516l58.9-.067a.258.258,0,0,1,0,.516Z" transform="translate(-540.005 -586.267)" fill="#cacaca"/>
    <path id="Path_1660" data-name="Path 1660" d="M233.056,232.566a12.74,12.74,0,0,1,3.478-8.762l-7.678-10.568a3.744,3.744,0,0,0-5.649-.476,27.413,27.413,0,0,0-8.278,19.714,27.913,27.913,0,0,0,.309,4.143,3.77,3.77,0,0,0,1.746,2.651,3.728,3.728,0,0,0,3.117.375l13.257-4.308A12.822,12.822,0,0,1,233.056,232.566Z" transform="translate(-214.931 -199.25)" fill="#f2f2f2"/>
    <path id="Path_1661" data-name="Path 1661" d="M242.646,327.319,228.863,331.8a3.74,3.74,0,0,0-2.209,5.2,27.632,27.632,0,0,0,20.561,15.091,3.747,3.747,0,0,0,4.317-3.7V335.517a12.813,12.813,0,0,1-8.885-8.2Z" transform="translate(-223.815 -289.816)" fill="#e6e6e6"/>
    <path id="Path_1662" data-name="Path 1662" d="M392.609,338.283a4.176,4.176,0,0,0-2.559-2.351l-15.032-4.884a12.8,12.8,0,0,1-10.2,7.693V354.4a4.171,4.171,0,0,0,4.805,4.121,30.761,30.761,0,0,0,22.888-16.8A4.138,4.138,0,0,0,392.609,338.283Z" transform="translate(-332.329 -292.737)" fill="#3f3d56"/>
    <path id="Path_1663" data-name="Path 1663" d="M415.95,194.386a4.168,4.168,0,0,0-6.289.53l-10.277,14.145a12.747,12.747,0,0,1,3.723,9.019c0,.311-.015.619-.037.925l16.336,5.308a4.176,4.176,0,0,0,5.414-3.368,31.063,31.063,0,0,0,.344-4.613A30.516,30.516,0,0,0,415.95,194.386Z" transform="translate(-359.405 -184.764)" fill="#02dccc"/>
    <path id="Path_1664" data-name="Path 1664" d="M300.379,192.961a12.724,12.724,0,0,1,6.278,1.649l6.273-8.634a3.758,3.758,0,0,0,.615-3.088,3.683,3.683,0,0,0-1.905-2.428,27.663,27.663,0,0,0-25.008-.036,3.779,3.779,0,0,0-1.971,2.486,3.725,3.725,0,0,0,.609,3.068l7.116,9.794A12.73,12.73,0,0,1,300.379,192.961Z" transform="translate(-269.465 -172.434)" fill="#e6e6e6"/>
  </g>
</svg>
