<svg id="search_1_" data-name="search (1)" xmlns="http://www.w3.org/2000/svg" width="25.52" height="25.52" viewBox="0 0 25.52 25.52">
  <g id="Group_304" data-name="Group 304" transform="translate(3.837 5.531)">
    <g id="Group_303" data-name="Group 303">
      <path id="Path_1817" data-name="Path 1817" d="M80.187,111.252a.942.942,0,0,0-1.333,0,6.444,6.444,0,0,0-1.843,5.223.943.943,0,0,0,.937.849c.031,0,.063,0,.095,0a.943.943,0,0,0,.844-1.032,4.565,4.565,0,0,1,1.3-3.7A.942.942,0,0,0,80.187,111.252Z" transform="translate(-76.978 -110.975)" fill="#02dccc"/>
    </g>
  </g>
  <g id="Group_306" data-name="Group 306">
    <g id="Group_305" data-name="Group 305">
      <path id="Path_1818" data-name="Path 1818" d="M10.78,0A10.78,10.78,0,1,0,21.56,10.78,10.792,10.792,0,0,0,10.78,0Zm0,19.674a8.894,8.894,0,1,1,8.894-8.894A8.9,8.9,0,0,1,10.78,19.674Z" fill="#02dccc"/>
    </g>
  </g>
  <g id="Group_308" data-name="Group 308" transform="translate(16.783 16.783)">
    <g id="Group_307" data-name="Group 307">
      <path id="Path_1819" data-name="Path 1819" d="M345.169,343.837l-6.851-6.851a.943.943,0,0,0-1.333,1.333l6.851,6.851a.943.943,0,0,0,1.333-1.333Z" transform="translate(-336.708 -336.709)" fill="#02dccc"/>
    </g>
  </g>
</svg>
