<svg id="search_2_" data-name="search (2)" xmlns="http://www.w3.org/2000/svg" width="52.333" height="52.333" viewBox="0 0 52.333 52.333">
  <g id="Group_2" data-name="Group 2" transform="translate(7.868 11.343)">
    <g id="Group_1" data-name="Group 1">
      <path id="Path_3" data-name="Path 3" d="M83.559,111.542a1.933,1.933,0,0,0-2.734,0,13.214,13.214,0,0,0-3.779,10.711,1.934,1.934,0,0,0,1.922,1.741c.064,0,.13,0,.194-.01a1.934,1.934,0,0,0,1.732-2.117,9.361,9.361,0,0,1,2.666-7.592A1.932,1.932,0,0,0,83.559,111.542Z" transform="translate(-76.978 -110.975)" fill="#02dccc"/>
    </g>
  </g>
  <g id="Group_4" data-name="Group 4">
    <g id="Group_3" data-name="Group 3">
      <path id="Path_4" data-name="Path 4" d="M22.106,0A22.106,22.106,0,1,0,44.212,22.106,22.131,22.131,0,0,0,22.106,0Zm0,40.345A18.239,18.239,0,1,1,40.345,22.106,18.26,18.26,0,0,1,22.106,40.345Z" fill="#02dccc"/>
    </g>
  </g>
  <g id="Group_6" data-name="Group 6" transform="translate(34.416 34.416)">
    <g id="Group_5" data-name="Group 5">
      <path id="Path_5" data-name="Path 5" d="M354.059,351.326l-14.05-14.05a1.933,1.933,0,1,0-2.734,2.734l14.05,14.05a1.933,1.933,0,0,0,2.734-2.734Z" transform="translate(-336.708 -336.71)" fill="#02dccc"/>
    </g>
  </g>
</svg>
