<svg id="undraw_online_payments_re_y8f2" xmlns="http://www.w3.org/2000/svg" width="243.496" height="157.887" viewBox="0 0 243.496 157.887">
  <path id="Path_1467" data-name="Path 1467" d="M175.888,528.389c1.207-12.317,8.5-24.612,20.1-28.913a57.022,57.022,0,0,0,1.023,39.136c1.926,4.82,4.57,9.98,3.006,14.929a12.746,12.746,0,0,1-6.33,7.017,37.852,37.852,0,0,1-9.157,3.079l-.608.53C178.622,552.985,174.681,540.706,175.888,528.389Z" transform="translate(-168.171 -407.211)" fill="#f0f0f0"/>
  <path id="Path_1468" data-name="Path 1468" d="M217.727,499a48.738,48.738,0,0,0-11.4,27.736,20.987,20.987,0,0,0,.41,6.563,12.037,12.037,0,0,0,3.138,5.5,24.916,24.916,0,0,1,3.986,4.525,7.371,7.371,0,0,1,.517,6.006,19.151,19.151,0,0,1-4.077,6.438c-1.844,2.149-3.794,4.352-4.528,7.157-.089.34-.611.182-.522-.157,1.278-4.88,5.908-7.753,8.036-12.174a7.464,7.464,0,0,0,.334-6.56c-.907-1.857-2.542-3.219-3.96-4.671a12.845,12.845,0,0,1-3.269-5.267,19.4,19.4,0,0,1-.661-6.523,47.286,47.286,0,0,1,3.078-14.455,49.6,49.6,0,0,1,8.544-14.521c.226-.267.6.134.371.4Z" transform="translate(-189.782 -406.51)" fill="#fff"/>
  <path id="Path_1469" data-name="Path 1469" d="M193.834,569.986a7.312,7.312,0,0,1-5.764-7.512.273.273,0,0,1,.545.013,6.771,6.771,0,0,0,5.376,6.977c.343.072.184.594-.157.522Z" transform="translate(-177.226 -453.06)" fill="#fff"/>
  <path id="Path_1470" data-name="Path 1470" d="M219.127,622.8a14.093,14.093,0,0,0,6.08-8.278c.09-.339.612-.182.522.158a14.659,14.659,0,0,1-6.344,8.6C219.087,623.465,218.83,622.983,219.127,622.8Z" transform="translate(-199.831 -491.141)" fill="#fff"/>
  <path id="Path_1471" data-name="Path 1471" d="M226.9,534.053a4.139,4.139,0,0,0,3.916-.3c.3-.191.551.291.258.481a4.638,4.638,0,0,1-4.331.343.282.282,0,0,1-.182-.34.274.274,0,0,1,.34-.182Z" transform="translate(-205.353 -432.226)" fill="#fff"/>
  <path id="Path_1472" data-name="Path 1472" d="M253.987,574.486c-.181.125-.362.249-.543.378a54.506,54.506,0,0,0-6.826,5.621c-.166.156-.333.317-.494.478a57.467,57.467,0,0,0-12.031,17.4,55.811,55.811,0,0,0-2.85,7.986c-1.03,3.771-1.847,7.941-4,11.06a9.589,9.589,0,0,1-.722.94l-20.171.526c-.046-.022-.093-.039-.14-.061l-.8.058c.029-.143.061-.292.09-.435.016-.083.037-.167.053-.25.012-.056.025-.111.033-.162,0-.018.008-.037.012-.051.008-.051.021-.1.029-.143q.271-1.244.561-2.488s0,0,0-.009a82.053,82.053,0,0,1,6.431-18.3c.088-.173.175-.35.272-.523a53.249,53.249,0,0,1,4.592-7.378,47.074,47.074,0,0,1,3.041-3.667,39.148,39.148,0,0,1,9.6-7.591c7.135-4.008,15.472-5.69,23.265-3.558C253.593,574.372,253.788,574.426,253.987,574.486Z" transform="translate(-189.903 -461.223)" fill="#f0f0f0"/>
  <path id="Path_1473" data-name="Path 1473" d="M254.167,576.928a48.738,48.738,0,0,0-25.8,15.284,20.987,20.987,0,0,0-3.624,5.487,12.038,12.038,0,0,0-.808,6.284,24.914,24.914,0,0,1,.458,6.013,7.371,7.371,0,0,1-3.2,5.106,19.152,19.152,0,0,1-7.131,2.686c-2.766.606-5.649,1.191-7.925,2.988-.276.218-.6-.223-.322-.44,3.958-3.127,9.385-2.634,13.746-4.882a7.464,7.464,0,0,0,4.216-5.037c.394-2.028-.092-4.1-.349-6.114a12.845,12.845,0,0,1,.561-6.174,19.4,19.4,0,0,1,3.4-5.606,47.286,47.286,0,0,1,11.16-9.688,49.6,49.6,0,0,1,15.564-6.45c.342-.077.4.466.056.543Z" transform="translate(-190.121 -463.407)" fill="#fff"/>
  <path id="Path_1474" data-name="Path 1474" d="M292.607,599.562a7.312,7.312,0,0,1-.079-9.468c.226-.268.654.07.428.339a6.771,6.771,0,0,0,.092,8.807C293.278,599.5,292.836,599.825,292.607,599.562Z" transform="translate(-252.323 -473.358)" fill="#fff"/>
  <path id="Path_1475" data-name="Path 1475" d="M271.634,667.052a14.094,14.094,0,0,0,9.839-2.949c.276-.217.6.224.322.44a14.659,14.659,0,0,1-10.244,3.048C271.2,667.561,271.286,667.023,271.634,667.052Z" transform="translate(-238.073 -527.47)" fill="#fff"/>
  <path id="Path_1476" data-name="Path 1476" d="M344.523,591.491a4.139,4.139,0,0,0,3.308,2.117c.351.025.265.564-.083.539a4.638,4.638,0,0,1-3.665-2.334.282.282,0,0,1,.059-.381.274.274,0,0,1,.381.059Z" transform="translate(-291.203 -474.371)" fill="#fff"/>
  <path id="Path_1477" data-name="Path 1477" d="M818.709,168.126c-.3-.889-4.078-3.912-1.763-4.42l1.9,2.531,8.725-8.725.878.878Z" transform="translate(-636.24 -157.319)" fill="#02dccc"/>
  <path id="Path_1478" data-name="Path 1478" d="M818.709,278.32c-.3-.889-4.078-3.912-1.763-4.42l1.9,2.531,8.725-8.725.878.878Z" transform="translate(-636.24 -237.843)" fill="#02dccc"/>
  <path id="Path_1479" data-name="Path 1479" d="M818.709,390.088c-.3-.889-4.078-3.912-1.763-4.42l1.9,2.531,8.725-8.725.878.878Z" transform="translate(-636.24 -319.518)" fill="#02dccc"/>
  <circle id="Ellipse_166" data-name="Ellipse 166" cx="2.692" cy="2.692" r="2.692" transform="translate(171.742 40.855)" fill="#3f3d56"/>
  <circle id="Ellipse_167" data-name="Ellipse 167" cx="2.692" cy="2.692" r="2.692" transform="translate(171.742 11.507)" fill="#3f3d56"/>
  <rect id="Rectangle_427" data-name="Rectangle 427" width="43.349" height="0.538" transform="translate(200.147 8.007)" fill="#3f3d56"/>
  <circle id="Ellipse_168" data-name="Ellipse 168" cx="2.692" cy="2.692" r="2.692" transform="translate(173.088 72.14)" fill="#3f3d56"/>
  <rect id="Rectangle_428" data-name="Rectangle 428" width="43.349" height="0.538" transform="translate(200.147 37.676)" fill="#3f3d56"/>
  <rect id="Rectangle_429" data-name="Rectangle 429" width="43.349" height="0.538" transform="translate(200.147 67.769)" fill="#3f3d56"/>
  <path id="Path_1480" data-name="Path 1480" d="M666.422,239.732H652.96V226h9.154v.539H653.5v12.655h12.385V233h.539Z" transform="translate(-477.153 -165.15)" fill="#3f3d56"/>
  <path id="Path_1481" data-name="Path 1481" d="M666.422,127.732H652.96V114h9.154v.538H653.5v12.655h12.385V121h.539Z" transform="translate(-477.153 -83.306)" fill="#3f3d56"/>
  <path id="Path_1482" data-name="Path 1482" d="M666.422,13.732H652.96V0h9.154V.538H653.5V13.193h12.385V7h.539Z" transform="translate(-477.153)" fill="#3f3d56"/>
  <path id="Path_1483" data-name="Path 1483" d="M520.562,321.209s-3.6,15.191.8,15.191,14.791-17.19,14.791-17.19l-3.6-4.4-6.458,8.966-.338-4.568Z" transform="translate(-419.19 -272.268)" fill="#a0616a"/>
  <circle id="Ellipse_169" data-name="Ellipse 169" cx="3.5" cy="3.5" r="3.5" transform="translate(112.504 40.603)" fill="#a0616a"/>
  <path id="Path_1484" data-name="Path 1484" d="M365.172,517.272h4.659l2.217-17.971h-6.877Z" transform="translate(-266.85 -364.866)" fill="#a0616a"/>
  <path id="Path_1485" data-name="Path 1485" d="M512.384,719.88h14.327V719.7a5.577,5.577,0,0,0-5.576-5.576h0l-2.617-1.985-4.883,1.986h-1.251Z" transform="translate(-414.226 -562.613)" fill="#2f2e41"/>
  <path id="Path_1486" data-name="Path 1486" d="M179.038,500.816l4.169,2.08,10.008-15.09-6.153-3.07Z" transform="translate(-130.833 -354.223)" fill="#a0616a"/>
  <path id="Path_1487" data-name="Path 1487" d="M318.25,703.153l12.82,6.4.081-.162a5.577,5.577,0,0,0-2.5-7.48h0l-1.455-2.945-5.256-.4L320.821,698Z" transform="translate(-272.362 -552.284)" fill="#2f2e41"/>
  <rect id="Rectangle_430" data-name="Rectangle 430" width="153.43" height="0.603" transform="translate(0 157.284)" fill="#ccc"/>
  <path id="Path_1488" data-name="Path 1488" d="M351.829,434.416s-1.862,22.387-2.262,27.185a34.116,34.116,0,0,1-2,8.795,8.271,8.271,0,0,0-.8,3.2l-9.061,16.468s-2.769,2.035-2.369,3.634-1.669,2.558-1.669,2.558l9.542,1.839a1.238,1.238,0,0,1,.8-1.6c1.2-.4,2.154-3.867,2.154-3.867l13.4-21.832,9.595-19.988s5.6,17.99,6.8,19.988c0,0,4.4,22.387,5.2,24.386s1.2,2,.8,2.8a1.784,1.784,0,0,0,0,2c.4.4,8,0,8,0l-2-28.384-3.6-33.98-18.389-5.6Z" transform="translate(-283.63 -357.916)" fill="#2f2e41"/>
  <circle id="Ellipse_170" data-name="Ellipse 170" cx="8.395" cy="8.395" r="8.395" transform="translate(77.809 6.266)" fill="#a0616a"/>
  <path id="Path_1489" data-name="Path 1489" d="M433.328,259.7l-9.994-6.055s-.277-3.76-3.124-3.937c-1.43-.089-3.575-.225-6.794-.432-.68-.044-1.14,3.678-1.919,3.628l-10.549,2.8,1.6,27.184s-2.4,10.794-1.6,12.793-2,2.8-1.2,3.2,0,3.2,0,3.2,15.591,8,32.781,2l-1.6-5.2a4.2,4.2,0,0,0-.8-4,3.537,3.537,0,0,0-.4-4.4s.8-3.6-1.2-5.2l-.4-5.6,1.2-2.8Z" transform="translate(-331.81 -224.378)" fill="#e6e6e6"/>
  <path id="Path_1490" data-name="Path 1490" d="M436.345,187.295l-.235-.545c-.03-.07-3-7.089-.368-11.418,1.218-2,3.433-3.136,6.584-3.363,4.929-.356,8.3.813,10.03,3.473a2.982,2.982,0,0,1-2.513,4.594h-.066l-.906-1.176-.053.114a1.871,1.871,0,0,1-1.963,1.013c-.15-.011-.283.119-.39.4a.7.7,0,0,1-.527.488c-.652.127-1.581-.694-2-1.1a.667.667,0,0,1-.311.458c-.438.253-1.12-.077-1.316-.183-1.559.331-2.569.243-3-.263-.293,2.074-.922,5.808-1.677,6.015a.377.377,0,0,1-.412-.18c-.182-.236-.344-.353-.445-.32-.245.078-.39.886-.411,1.408Z" transform="translate(-357.426 -167.838)" fill="#2f2e41"/>
  <path id="Path_1491" data-name="Path 1491" d="M498.764,287.722l3.988-.648a19.47,19.47,0,0,1,5.607,10.242c1.2,6.4,1.6,7.6,1.6,7.6l-9.594,2.4-5.2-9.994Z" transform="translate(-401.644 -251.997)" fill="#e6e6e6"/>
  <rect id="Rectangle_431" data-name="Rectangle 431" width="31.339" height="63.087" transform="translate(76.959 75.286) rotate(-85.49)" fill="#fff"/>
  <path id="Path_1492" data-name="Path 1492" d="M456.255,326.21a7.373,7.373,0,0,0-4.24-1.163,6.366,6.366,0,0,0,6.714,4.8A7.378,7.378,0,0,0,456.255,326.21Z" transform="translate(-370.112 -279.745)" fill="#02dccc"/>
  <path id="Path_1493" data-name="Path 1493" d="M456.232,401.023l-10.1-.8a2.279,2.279,0,0,0-.358,4.544h0l10.1.8a2.279,2.279,0,1,0,.358-4.544Z" transform="translate(-364.017 -334.678)" fill="#02dccc"/>
  <path id="Path_1494" data-name="Path 1494" d="M492.878,315.361l-56.62-4.467a5.03,5.03,0,0,0-5.41,4.62L428.671,343.1a5.033,5.033,0,0,0,4.621,5.412l56.62,4.467a5.03,5.03,0,0,0,5.41-4.62l2.069-26.218.042-.536.066-.833A5.03,5.03,0,0,0,492.878,315.361Zm-1.672,24-.359,4.544a3.047,3.047,0,0,1-3.269,2.79L480,346.1a3.047,3.047,0,0,1-2.79-3.269l.359-4.545a3.048,3.048,0,0,1,3.269-2.789l7.572.6a3.05,3.05,0,0,1,2.792,3.268Zm-59-2.37a2.786,2.786,0,0,1,2.992-2.555l10.1.8a2.785,2.785,0,1,1-.433,5.552h-.005l-10.1-.8a2.782,2.782,0,0,1-2.554-3Zm2.162-22.477-.069-.282.29-.027a6.944,6.944,0,0,1,7.651,5.464l.066.283-.29.029a7.655,7.655,0,0,1-1.236-.008,7.306,7.306,0,0,1-3.656-1.235,7.933,7.933,0,0,1-2.758-4.225Z" transform="translate(-353.041 -269.393)" fill="#b8e6e2"/>
  <path id="Path_1495" data-name="Path 1495" d="M617.919,427.149l-3.282-.259a.886.886,0,1,0-.139,1.767l3.282.259a.886.886,0,1,0,.139-1.767Z" transform="translate(-488.25 -354.166)" fill="#0a1f30"/>
  <path id="Path_1496" data-name="Path 1496" d="M640.424,428.924l-3.282-.259a.886.886,0,0,0-.139,1.767l3.282.259a.886.886,0,0,0,.139-1.767Z" transform="translate(-504.695 -355.464)" fill="#0a1f30"/>
  <path id="Path_1497" data-name="Path 1497" d="M618.585,418.71l-3.282-.259a.886.886,0,1,0-.139,1.767l3.282.259a.886.886,0,1,0,.139-1.767Z" transform="translate(-488.736 -348)" fill="#0a1f30"/>
  <path id="Path_1498" data-name="Path 1498" d="M641.089,420.485l-3.282-.259a.886.886,0,1,0-.139,1.767l3.282.259a.886.886,0,1,0,.139-1.767Z" transform="translate(-505.181 -349.297)" fill="#0a1f30"/>
  <path id="Path_1499" data-name="Path 1499" d="M619.251,410.271l-3.282-.259a.886.886,0,0,0-.139,1.767l3.282.259a.886.886,0,1,0,.139-1.767Z" transform="translate(-489.223 -341.833)" fill="#0a1f30"/>
  <path id="Path_1500" data-name="Path 1500" d="M641.755,412.046l-3.282-.259a.886.886,0,0,0-.139,1.767l3.282.259a.886.886,0,0,0,.139-1.767Z" transform="translate(-505.668 -343.13)" fill="#0a1f30"/>
  <rect id="Rectangle_432" data-name="Rectangle 432" width="0.539" height="66.669" transform="translate(76.923 55.362) rotate(-85.509)" fill="#fff"/>
  <path id="Path_1501" data-name="Path 1501" d="M463,188.169l-.042.536-2.313-.181L436,186.587l.044-.536,24.642,1.936Z" transform="translate(-318.608 -135.957)" fill="#3f3d56"/>
  <path id="Path_1502" data-name="Path 1502" d="M378.562,312.209s-3.6,15.191.8,15.191,14.791-17.19,14.791-17.19l-3.6-4.4-6.458,8.966-.338-4.568Z" transform="translate(-315.423 -265.691)" fill="#a0616a"/>
  <circle id="Ellipse_171" data-name="Ellipse 171" cx="3.5" cy="3.5" r="3.5" transform="translate(74.272 38.179)" fill="#a0616a"/>
  <path id="Path_1503" data-name="Path 1503" d="M388.287,275.546l-2.4-2.4s-4.8,2.8-5.2,5.6-2.4,11.593-2.4,11.593l7.4.6,2.4-3.6Z" transform="translate(-316.239 -241.821)" fill="#e6e6e6"/>
</svg>
