<svg xmlns="http://www.w3.org/2000/svg" width="186.67" height="157.887" viewBox="0 0 186.67 157.887">
  <g id="undraw_active_support_re_b7sj" transform="translate(0.001 0)">
    <path id="Path_1534" data-name="Path 1534" d="M589.875,240.165c6.193-4.575,14.911-6.328,21.733-2.759a35.473,35.473,0,0,0-17.652,16.779c-1.424,2.9-2.706,6.27-5.644,7.609a7.93,7.93,0,0,1-5.879,0,23.55,23.55,0,0,1-5.237-2.947l-.5-.06C579.652,251.676,583.682,244.74,589.875,240.165Z" transform="translate(-490.036 -217.988)" fill="#f0f0f0"/>
    <path id="Path_1535" data-name="Path 1535" d="M611.821,241.833a30.32,30.32,0,0,0-17.561,6.292,13.06,13.06,0,0,0-2.861,2.924,7.489,7.489,0,0,0-1.235,3.743,15.5,15.5,0,0,1-.43,3.727,4.586,4.586,0,0,1-2.559,2.741,11.913,11.913,0,0,1-4.673.8,11.7,11.7,0,0,0-5.193.89c-.194.1-.339-.207-.145-.307,2.787-1.443,6.043-.5,8.972-1.36a4.644,4.644,0,0,0,3.17-2.579,12.023,12.023,0,0,0,.508-3.776,7.991,7.991,0,0,1,1.071-3.7,12.07,12.07,0,0,1,2.738-3.023,29.417,29.417,0,0,1,7.96-4.6,30.858,30.858,0,0,1,10.268-2.1C612.069,241.489,612.038,241.827,611.821,241.833Z" transform="translate(-490.305 -222.264)" fill="#fff"/>
    <path id="Path_1536" data-name="Path 1536" d="M640.994,245.405a4.549,4.549,0,0,1,1.069-5.793c.17-.137.391.12.221.257a4.212,4.212,0,0,0-.983,5.39c.11.189-.2.333-.307.145Z" transform="translate(-535.487 -220.893)" fill="#fff"/>
    <path id="Path_1537" data-name="Path 1537" d="M622.091,284.057a8.767,8.767,0,0,0,6.357-.641c.194-.1.339.207.145.307a9.12,9.12,0,0,1-6.617.653C621.766,284.317,621.881,284,622.091,284.057Z" transform="translate(-522.268 -252.165)" fill="#fff"/>
    <path id="Path_1538" data-name="Path 1538" d="M673.245,245.694a2.575,2.575,0,0,0,1.771,1.683c.211.057.1.376-.115.319a2.885,2.885,0,0,1-1.963-1.858.175.175,0,0,1,.081-.226A.171.171,0,0,1,673.245,245.694Z" transform="translate(-558.705 -225.191)" fill="#fff"/>
    <path id="Path_1539" data-name="Path 1539" d="M615.954,304.07c-.133-.032-.266-.063-.4-.093a33.908,33.908,0,0,0-5.441-.811c-.142-.012-.285-.021-.427-.029a35.75,35.75,0,0,0-13.052,1.694,34.719,34.719,0,0,0-4.876,2.011c-2.171,1.1-4.438,2.456-6.775,2.761a5.963,5.963,0,0,1-.735.058l-8.647-9.1c-.009-.031-.021-.059-.03-.09l-.362-.348.239-.14c.045-.027.093-.052.138-.08s.062-.035.089-.052l.029-.016c.027-.018.053-.031.078-.047q.688-.393,1.383-.777s0,0,.006,0a51.047,51.047,0,0,1,11.134-4.655c.116-.031.235-.065.355-.092a33.121,33.121,0,0,1,5.321-.952,29.288,29.288,0,0,1,2.961-.123,24.352,24.352,0,0,1,7.507,1.273,19.338,19.338,0,0,1,11.337,9.264C615.843,303.84,615.9,303.953,615.954,304.07Z" transform="translate(-488.974 -259.152)" fill="#f0f0f0"/>
    <path id="Path_1540" data-name="Path 1540" d="M616.345,316.82a30.319,30.319,0,0,0-17.81-5.55,13.056,13.056,0,0,0-4.045.612,7.489,7.489,0,0,0-3.239,2.245,15.494,15.494,0,0,1-2.587,2.717,4.585,4.585,0,0,1-3.694.648,11.915,11.915,0,0,1-4.212-2.175,11.7,11.7,0,0,0-4.682-2.416c-.215-.037-.146-.369.069-.332,3.094.526,5.127,3.238,7.983,4.316a4.644,4.644,0,0,0,4.084-.151,12.025,12.025,0,0,0,2.679-2.709,7.991,7.991,0,0,1,3.086-2.313,12.071,12.071,0,0,1,4.006-.765,29.415,29.415,0,0,1,9.125,1.119,30.857,30.857,0,0,1,9.465,4.5c.178.126-.051.377-.227.252Z" transform="translate(-489.5 -271.813)" fill="#fff"/>
    <path id="Path_1541" data-name="Path 1541" d="M661.981,301.7a4.549,4.549,0,0,1,4.341-3.982c.218-.008.24.331.022.339a4.212,4.212,0,0,0-4.03,3.712c-.026.217-.358.146-.332-.069Z" transform="translate(-550.895 -262.386)" fill="#fff"/>
    <path id="Path_1542" data-name="Path 1542" d="M629.833,320.071a8.768,8.768,0,0,0,5.462,3.316c.215.037.146.37-.069.332a9.119,9.119,0,0,1-5.676-3.462C629.417,320.083,629.7,319.9,629.833,320.071Z" transform="translate(-527.727 -278.287)" fill="#fff"/>
    <path id="Path_1543" data-name="Path 1543" d="M694.406,318.929a2.575,2.575,0,0,0,.4,2.41c.134.172-.15.357-.284.186a2.885,2.885,0,0,1-.449-2.665.175.175,0,0,1,.2-.132A.171.171,0,0,1,694.406,318.929Z" transform="translate(-573.693 -277.377)" fill="#fff"/>
    <path id="Path_1544" data-name="Path 1544" d="M465.472,203.327h-.67V184.97a10.625,10.625,0,0,0-10.625-10.625H415.284a10.625,10.625,0,0,0-10.625,10.625V285.681a10.625,10.625,0,0,0,10.625,10.625h38.893A10.625,10.625,0,0,0,464.8,285.681V216.395h.67Z" transform="translate(-367.267 -174.345)" fill="#3f3d56"/>
    <path id="Path_1545" data-name="Path 1545" d="M461.911,184h-5.077a3.77,3.77,0,0,1-3.49,5.193H431.063a3.77,3.77,0,0,1-3.49-5.193h-4.742a7.935,7.935,0,0,0-7.935,7.935V292.495a7.935,7.935,0,0,0,7.935,7.935h39.081a7.934,7.934,0,0,0,7.935-7.935h0V191.931A7.934,7.934,0,0,0,461.912,184Z" transform="translate(-374.573 -181.232)" fill="#fff"/>
    <path id="Path_1546" data-name="Path 1546" d="M458.863,368.57a21.911,21.911,0,1,1,21.613-18.331,21.888,21.888,0,0,1-21.613,18.331Zm0-42.958A20.818,20.818,0,0,0,449.3,327.9a21.066,21.066,0,1,0,9.559-2.293Z" transform="translate(-390.314 -281.678)" fill="#f0f0f0"/>
    <path id="Path_1547" data-name="Path 1547" d="M335.944,333.271a4.146,4.146,0,0,1,3.443,5.344l7.279,6.063L344.061,350,333.9,341.293a4.168,4.168,0,0,1,2.043-8.022Z" transform="translate(-314.867 -287.731)" fill="#ffb6b6"/>
    <path id="Path_1548" data-name="Path 1548" d="M415.035,374.868a21.826,21.826,0,0,0-1.262-5.434c-1.574-4.12-11.746-7.507-13.112-7.944l-.347-3.852-14.133-1.521-1.793,4.926-5.069,1.9a2.49,2.49,0,0,0-1.484,1.521h0l-4.548,1.315-4.488,1.3L353.21,356.093l-.736.481-4.92,3.21-.759.5,20.176,18.2,7.495-1.758L380.1,375.4l.481,1.953-1.246,6.862a21.472,21.472,0,0,0,27.768,2.219l3.2-2.841a21.448,21.448,0,0,0,4.814-8.457Z" transform="translate(-325.975 -304.043)" fill="#e4e4e4"/>
    <circle id="Ellipse_189" data-name="Ellipse 189" cx="10.176" cy="10.176" r="10.176" transform="translate(55.657 32.804) rotate(-18.319)" fill="#ffb6b6"/>
    <path id="Path_1549" data-name="Path 1549" d="M480.239,263.706a6.868,6.868,0,0,1,4.159-2.77,6.557,6.557,0,0,1,4.836.887,9.9,9.9,0,0,1,4.9-.834,5.223,5.223,0,0,1,4.04,2.658,7.265,7.265,0,0,0,.584,1.134c.674.9,1.927,1.016,3.034,1.059l-1.679.979,1.673.78-2.277.869c1.767,1.553,2.194,4.316,1.525,6.634a13.221,13.221,0,0,1-3.706,5.621,8.445,8.445,0,0,1,.263-3.68c.245-1.29.284-2.8-.62-3.711a4.212,4.212,0,0,0-2.347-.949,113.886,113.886,0,0,0-12.855-1.526,3.637,3.637,0,0,0-1.713.175c-1.049.466-1.47,1.746-1.774,2.881a22.847,22.847,0,0,1,.346-5.957A10.914,10.914,0,0,1,480.239,263.706Z" transform="translate(-419.761 -236.041)" fill="#2f2e41"/>
    <path id="Path_1550" data-name="Path 1550" d="M497.557,505.945H485.529a1.575,1.575,0,1,1,0-3.15h12.028a1.575,1.575,0,1,1,0,3.15Z" transform="translate(-423.853 -408.731)" fill="#02dccc"/>
    <path id="Path_1551" data-name="Path 1551" d="M308.328,213.735H275.244a1.151,1.151,0,1,1,0-2.3h33.085a1.151,1.151,0,1,1,0,2.3Z" transform="translate(-274.094 -200.812)" fill="#02dccc"/>
    <path id="Path_1552" data-name="Path 1552" d="M327.431,239.4H275.244a1.151,1.151,0,1,1,0-2.3h52.187a1.151,1.151,0,1,1,0,2.3Z" transform="translate(-274.094 -219.126)" fill="#02dccc"/>
    <path id="Path_1553" data-name="Path 1553" d="M317.4,263.576H275.245a1.151,1.151,0,0,1,0-2.3H317.4a1.151,1.151,0,0,1,0,2.3Z" transform="translate(-274.095 -236.379)" fill="#b8e6e2"/>
    <path id="Path_1554" data-name="Path 1554" d="M299.017,287.665H275.245a1.151,1.151,0,0,1,0-2.3h23.773a1.151,1.151,0,0,1,0,2.3Z" transform="translate(-274.095 -253.569)" fill="#02dccc"/>
    <path id="Path_1555" data-name="Path 1555" d="M312.149,311.751H275.244a1.151,1.151,0,1,1,0-2.3h36.905a1.151,1.151,0,0,1,0,2.3Z" transform="translate(-274.094 -270.757)" fill="#02dccc"/>
    <path id="Path_1556" data-name="Path 1556" d="M485.156,507.726h-2.965l-1.411-11.438h4.377Z" transform="translate(-343.092 -354.158)" fill="#9f616a"/>
    <path id="Path_1557" data-name="Path 1557" d="M746.017,709.654H734.7v-.143A4.407,4.407,0,0,1,739.1,705.1h0l2.068-1.569,3.858,1.569h.988Z" transform="translate(-602.786 -551.982)" fill="#2f2e41"/>
    <path id="Path_1558" data-name="Path 1558" d="M758.3,465.059l-1.308-15.946-1.027-5.985,5.752-1.27,1.909,8.194-1.663,15.45a2.661,2.661,0,1,1-3.663-.443Z" transform="translate(-617.965 -365.245)" fill="#9f616a"/>
    <path id="Path_1559" data-name="Path 1559" d="M430.156,507.726h-2.965l-1.411-11.438h4.377Z" transform="translate(-303.843 -354.158)" fill="#9f616a"/>
    <path id="Path_1560" data-name="Path 1560" d="M692.648,534.576l-1.315,2.274s-1.444.395-.972,5.1.492,32.6,2.777,36.038l.413,2.948,4.315.412.109-2.616,5.145-36.338s3.03,35.672,5.537,36.545l.905,2.972,3.954,0-.233-3.5.255-44.206Z" transform="translate(-571.081 -431.148)" fill="#2f2e41"/>
    <path id="Path_1561" data-name="Path 1561" d="M693.31,433.622l-.091-.023c2.713-10.148,1.931-23.29.015-37.4v-.058l6.926-6.344h6.014l5.962,3.848a9.521,9.521,0,0,1,4.739,6.049l.006.029-2.362,8.243L716.3,431.8l0,.028-.01.026c-.576,1.46-2.119,1.252-3.905,1.011s-8.356,1.958-10.371,1.958A40.768,40.768,0,0,1,693.31,433.622Z" transform="translate(-573.188 -328.093)" fill="#e4e4e4"/>
    <path id="Path_1562" data-name="Path 1562" d="M753.159,411.648l2.584-1.124,3.4,4.173,2.759,13.374-9.451-1.432Z" transform="translate(-615.459 -342.885)" fill="#e4e4e4"/>
    <path id="Path_1563" data-name="Path 1563" d="M607.779,462.516l11.811-10.793,4.1-4.475,4.525,3.772-5.312,6.524-13.237,8.139a2.661,2.661,0,1,1-1.892-3.168Z" transform="translate(-509.818 -369.092)" fill="#9f616a"/>
    <path id="Path_1564" data-name="Path 1564" d="M656.5,426.7l3.271-4.248c.027-.061,2.741-6.126,5.094-8.761,2.413-2.7,4.313-1.321,4.332-1.306l.047.036.131,9.982-9.058,10.823Z" transform="translate(-546.983 -343.953)" fill="#e4e4e4"/>
    <circle id="Ellipse_190" data-name="Ellipse 190" cx="5.513" cy="5.513" r="5.513" transform="translate(123.057 59.402) rotate(-80.783)" fill="#9f616a"/>
    <path id="Path_1565" data-name="Path 1565" d="M706.164,344.468a16.03,16.03,0,0,0-.289-2.8c-.245-.858-.735-1.593-.49-1.593s.367-.613.367-.613.245-.123.368,0,.245-.858.245-.858.122-.368.245-.122.122.122.245-.245.735-.613.735-.613,2.328.122,2.7-.368,4.533-.122,5.391.49,4.656,2.818,4.043,4.656A40.339,40.339,0,0,1,716.9,348.9c-.7.671-1.182.913-4.489,1.571-.647.129-3.95-1.984-3.95-2.351s.4-1.533-.242-1.693c-.967-.242-1.076.981-1.321.614A17.51,17.51,0,0,1,706.164,344.468Z" transform="translate(-581.822 -290.442)" fill="#2f2e41"/>
    <path id="Path_1566" data-name="Path 1566" d="M691.017,709.654H679.7v-.143A4.407,4.407,0,0,1,684.1,705.1h0l2.068-1.569,3.858,1.569h.988Z" transform="translate(-563.538 -551.982)" fill="#2f2e41"/>
    <path id="Path_1567" data-name="Path 1567" d="M461.948,723.956H276.572a.341.341,0,1,1,0-.682H461.948a.341.341,0,1,1,0,.682Z" transform="translate(-275.62 -566.068)" fill="#cacaca"/>
  </g>
</svg>
