<svg xmlns="http://www.w3.org/2000/svg" width="37.335" height="35.778" viewBox="0 0 37.335 35.778">
  <path id="star_2_" data-name="star (2)" d="M37.237,14.015a1.982,1.982,0,0,0-1.707-1.363l-10.777-.978L20.493,1.7a1.985,1.985,0,0,0-3.651,0l-4.259,9.972L1.8,12.652A1.987,1.987,0,0,0,.676,16.124l8.147,7.144-2.4,10.58a1.984,1.984,0,0,0,2.953,2.145l9.293-5.557,9.292,5.557a1.986,1.986,0,0,0,2.954-2.145l-2.4-10.58,8.147-7.144a1.987,1.987,0,0,0,.579-2.109ZM18.846,30.329" transform="translate(0 -0.496)" fill="#b9b9b9"/>
</svg>
