<svg id="undraw_social_sharing_re_pvmr" xmlns="http://www.w3.org/2000/svg" width="154.531" height="154.863" viewBox="0 0 154.531 154.863">
  <path id="Path_1781" data-name="Path 1781" d="M146.211,154.863H79a13.23,13.23,0,0,1-13.215-13.215V13.215A13.231,13.231,0,0,1,79,0h67.214a13.23,13.23,0,0,1,13.215,13.215V141.648a13.23,13.23,0,0,1-13.215,13.215Z" transform="translate(-47.393)" fill="#f2f2f2"/>
  <path id="Path_1782" data-name="Path 1782" d="M399.341,169a.56.56,0,0,0-.559.559v17.89a.559.559,0,0,0,1.118,0v-17.89A.56.56,0,0,0,399.341,169Z" transform="translate(-287.308 -121.758)" fill="#f2f2f2"/>
  <path id="Path_1783" data-name="Path 1783" d="M161.411,16.455v128.43a11.959,11.959,0,0,1-11.179,11.933h0c-.092.006-.184.011-.28.014-.165.008-.33.011-.5.011l-1.739-.129c-1.135-.084-2.787-.21-4.847-.375q-.927-.071-1.957-.157c-1.37-.112-2.874-.235-4.487-.375-.643-.053-1.308-.112-1.988-.171-3.472-.3-7.36-.649-11.461-1.045q-1.04-.1-2.1-.2c-.184-.02-.372-.036-.559-.056-2.924-.288-5.929-.6-8.945-.928l-.559-.059c-5.2-.573-10.413-1.2-15.293-1.867-3.754-.514-7.31-1.057-10.5-1.619q-1.56-.277-3-.556c-.187-.036-.375-.073-.559-.112-6.756-1.353-11.181-2.812-11.181-4.31V16.455A11.957,11.957,0,0,1,82.241,4.5H89.38a2.18,2.18,0,0,1,2.155,2.027c.008.075.017.151.031.226a2.429,2.429,0,0,0,2.418,1.94h43.725a2.429,2.429,0,0,0,2.418-1.94c.014-.075.022-.151.031-.226A2.18,2.18,0,0,1,142.313,4.5h7.139a11.957,11.957,0,0,1,11.959,11.959Z" transform="translate(-50.636 -3.239)" fill="#fff"/>
  <path id="Path_1784" data-name="Path 1784" d="M63.341,121a.56.56,0,0,0-.559.559v4.473a.559.559,0,0,0,1.118,0v-4.473A.56.56,0,0,0,63.341,121Z" transform="translate(-45.232 -87.176)" fill="#f2f2f2"/>
  <path id="Path_1785" data-name="Path 1785" d="M63.341,169a.56.56,0,0,0-.559.559v8.666a.559.559,0,0,0,1.118,0v-8.666A.56.56,0,0,0,63.341,169Z" transform="translate(-45.232 -121.758)" fill="#f2f2f2"/>
  <path id="Path_1786" data-name="Path 1786" d="M63.341,213a.56.56,0,0,0-.559.559v8.666a.559.559,0,0,0,1.118,0v-8.666A.56.56,0,0,0,63.341,213Z" transform="translate(-45.232 -153.459)" fill="#f2f2f2"/>
  <rect id="Rectangle_583" data-name="Rectangle 583" width="10.902" height="1.398" rx="0.699" transform="translate(27.753 3.215)" fill="#f2f2f2"/>
  <circle id="Ellipse_238" data-name="Ellipse 238" cx="1.118" cy="1.118" r="1.118" transform="translate(92.326 2.376)" fill="#f2f2f2"/>
  <circle id="Ellipse_239" data-name="Ellipse 239" cx="1.118" cy="1.118" r="1.118" transform="translate(95.401 2.376)" fill="#f2f2f2"/>
  <circle id="Ellipse_240" data-name="Ellipse 240" cx="1.118" cy="1.118" r="1.118" transform="translate(98.476 2.376)" fill="#f2f2f2"/>
  <ellipse id="Ellipse_241" data-name="Ellipse 241" cx="5.425" cy="5.311" rx="5.425" ry="5.311" transform="translate(27.753 33.384)" fill="#02dccc"/>
  <path id="Path_1787" data-name="Path 1787" d="M194.333,122.559h-29.2a1.817,1.817,0,0,1,0-3.634h29.2a1.817,1.817,0,1,1,0,3.634Z" transform="translate(-117.661 -85.681)" fill="#e6e6e6"/>
  <path id="Path_1788" data-name="Path 1788" d="M104.158,351.878a.845.845,0,1,0,0,1.691h30.587a.845.845,0,1,0,0-1.691Z" transform="translate(-74.433 -253.515)" fill="#f2f2f2"/>
  <path id="Path_1789" data-name="Path 1789" d="M217.124,144.559H165.13a1.817,1.817,0,1,1,0-3.634h51.994a1.817,1.817,0,1,1,0,3.634Z" transform="translate(-117.661 -101.531)" fill="#e6e6e6"/>
  <path id="Path_1790" data-name="Path 1790" d="M111.291,54.721H100.179a1.4,1.4,0,0,1,0-2.8h11.112a1.4,1.4,0,0,1,0,2.8Z" transform="translate(-71.168 -37.41)" fill="#e6e6e6"/>
  <rect id="Rectangle_584" data-name="Rectangle 584" width="13.627" height="2.516" rx="1.258" transform="translate(86.953 14.655)" fill="#02dccc"/>
  <path id="Path_1791" data-name="Path 1791" d="M266.072,54.721H254.961a1.4,1.4,0,0,1,0-2.8h11.112a1.4,1.4,0,0,1,0,2.8Z" transform="translate(-182.683 -37.41)" fill="#e6e6e6"/>
  <path id="Path_1792" data-name="Path 1792" d="M112.9,310.236H102.276a3.5,3.5,0,0,1-3.494-3.494v-3.471a3.5,3.5,0,0,1,3.494-3.494H112.9a3.5,3.5,0,0,1,3.494,3.494v3.471A3.5,3.5,0,0,1,112.9,310.236Z" transform="translate(-71.169 -215.978)" fill="#f2f2f2"/>
  <path id="Path_1793" data-name="Path 1793" d="M168.954,208.206H102.276a3.5,3.5,0,0,1-3.494-3.494V189.42a3.5,3.5,0,0,1,3.494-3.494h66.678a3.5,3.5,0,0,1,3.494,3.494v15.292a3.5,3.5,0,0,1-3.494,3.494Z" transform="translate(-71.169 -133.953)" fill="#02dccc"/>
  <path id="Path_1794" data-name="Path 1794" d="M311.9,310.236H301.276a3.5,3.5,0,0,1-3.494-3.494v-3.471a3.5,3.5,0,0,1,3.494-3.494H311.9a3.5,3.5,0,0,1,3.494,3.494v3.471A3.5,3.5,0,0,1,311.9,310.236Z" transform="translate(-214.541 -215.978)" fill="#f2f2f2"/>
  <path id="Path_1795" data-name="Path 1795" d="M211.43,310.236H200.807a3.5,3.5,0,0,1-3.494-3.494v-3.471a3.5,3.5,0,0,1,3.494-3.494H211.43a3.5,3.5,0,0,1,3.494,3.494v3.471A3.5,3.5,0,0,1,211.43,310.236Z" transform="translate(-142.157 -215.978)" fill="#f2f2f2"/>
  <g id="Group_295" data-name="Group 295" transform="translate(27.622 109.697)">
    <rect id="Rectangle_585" data-name="Rectangle 585" width="8.386" height="7.827" transform="translate(9.504)" fill="#f2f2f2"/>
    <rect id="Rectangle_586" data-name="Rectangle 586" width="4.752" height="7.827" transform="translate(13.138 11.181)" fill="#f2f2f2"/>
    <rect id="Rectangle_587" data-name="Rectangle 587" width="8.386" height="7.827" transform="translate(20.406 11.181)" fill="#f2f2f2"/>
    <rect id="Rectangle_588" data-name="Rectangle 588" width="8.386" height="7.827" transform="translate(20.406 22.363)" fill="#f2f2f2"/>
    <rect id="Rectangle_589" data-name="Rectangle 589" width="8.386" height="7.827" transform="translate(31.308 11.181)" fill="#f2f2f2"/>
    <rect id="Rectangle_590" data-name="Rectangle 590" width="8.386" height="7.827" transform="translate(20.406)" fill="#f2f2f2"/>
    <rect id="Rectangle_591" data-name="Rectangle 591" width="8.386" height="7.827" transform="translate(31.308)" fill="#f2f2f2"/>
    <rect id="Rectangle_592" data-name="Rectangle 592" width="8.386" height="7.827" transform="translate(53.112)" fill="#f2f2f2"/>
    <rect id="Rectangle_593" data-name="Rectangle 593" width="8.386" height="7.827" transform="translate(31.308 22.363)" fill="#f2f2f2"/>
    <rect id="Rectangle_594" data-name="Rectangle 594" width="8.386" height="7.827" transform="translate(42.21)" fill="#f2f2f2"/>
    <path id="Path_1796" data-name="Path 1796" d="M320.264,432.425h-5.451v7.827h5.451a1.4,1.4,0,0,0,1.4-1.4v-5.032A1.4,1.4,0,0,0,320.264,432.425Z" transform="translate(-254.433 -421.243)" fill="#f2f2f2"/>
    <path id="Path_1797" data-name="Path 1797" d="M154.888,472.425h-1.677a1.4,1.4,0,0,0-1.4,1.4v5.032a1.4,1.4,0,0,0,1.4,1.4h1.677Z" transform="translate(-136.998 -450.062)" fill="#f2f2f2"/>
    <rect id="Rectangle_595" data-name="Rectangle 595" width="8.386" height="7.827" transform="translate(42.21 22.363)" fill="#f2f2f2"/>
    <path id="Path_1798" data-name="Path 1798" d="M335.919,392.425h-8.107v7.827h8.107a1.4,1.4,0,0,0,1.4-1.4v-5.032A1.4,1.4,0,0,0,335.919,392.425Z" transform="translate(-263.799 -392.425)" fill="#f2f2f2"/>
    <path id="Path_1799" data-name="Path 1799" d="M293.565,472.544a1.391,1.391,0,0,0-.559-.118h-4.193v7.827h4.193a1.39,1.39,0,0,0,.559-.118Z" transform="translate(-235.701 -450.063)" fill="#f2f2f2"/>
    <rect id="Rectangle_596" data-name="Rectangle 596" width="8.386" height="7.827" transform="translate(42.21 11.181)" fill="#f2f2f2"/>
    <rect id="Rectangle_597" data-name="Rectangle 597" width="4.752" height="7.827" transform="translate(53.112 11.181)" fill="#f2f2f2"/>
    <path id="Path_1800" data-name="Path 1800" d="M125.646,432.425h-2.935a1.4,1.4,0,0,0-1.4,1.4v5.032a1.4,1.4,0,0,0,1.4,1.4h2.935Z" transform="translate(-115.023 -421.243)" fill="#f2f2f2"/>
    <path id="Path_1801" data-name="Path 1801" d="M105.8,392.425h-5.591a1.4,1.4,0,0,0-1.4,1.4v5.032a1.4,1.4,0,0,0,1.4,1.4H105.8Z" transform="translate(-98.813 -392.425)" fill="#f2f2f2"/>
  </g>
  <g id="Group_300" data-name="Group 300" transform="translate(77.141 14.755)">
    <g id="Group_296" data-name="Group 296" transform="translate(3.853 127.422)">
      <path id="Path_1802" data-name="Path 1802" d="M307.353,518.221h-2.49l-1.185-9.606h3.676Z" transform="translate(-299.782 -508.615)" fill="#ffb6b6"/>
      <path id="Path_1803" data-name="Path 1803" d="M297.4,541.606h-7.658v-.1a2.981,2.981,0,0,1,2.981-2.981h0l1.4-1.061,2.61,1.062h.669Z" transform="translate(-289.742 -529.401)" fill="#2f2e41"/>
    </g>
    <g id="Group_297" data-name="Group 297" transform="translate(19.357 127.422)">
      <path id="Path_1804" data-name="Path 1804" d="M362.818,518.221h-2.491l-1.185-9.606h3.676Z" transform="translate(-355.247 -508.615)" fill="#ffb6b6"/>
      <path id="Path_1805" data-name="Path 1805" d="M352.866,541.606h-7.658v-.1a2.981,2.981,0,0,1,2.981-2.981h0l1.4-1.061,2.61,1.062h.669Z" transform="translate(-345.207 -529.401)" fill="#2f2e41"/>
    </g>
    <path id="Path_1806" data-name="Path 1806" d="M326.851,279.824H305.462l-2.6,8.021-.627,34.11.11,26.616,4.871.018,4.29-28.61s-.477-2.814.363-2.423-.58-3.062.41-2.733,1.953-13.024,1.953-13.024l2.36,20.156,1.516,26.616H322.5l3.684-41.053s-1.157-2.485.371-4.134,1.371-15.281,1.371-15.281l-1.08-8.279Z" transform="translate(-294.893 -216.357)" fill="#2f2e41"/>
    <path id="Path_1807" data-name="Path 1807" d="M329.8,176.778s2.051,2.921.262,7.5c-2.973,7.6-22.7,1.209-23.908-3.529-1.856-.641,1.238-1.578.327-3.131-.056-.095.511,2.013.062-.319-.721-3.744.517-15.246.517-15.246l.409-6.826a28.481,28.481,0,0,1,7.6-17.723h10.271l4.458,7.236.462,18.135-.462,13.908Z" transform="translate(-297.277 -113.818)" fill="#3f3d56"/>
    <g id="Group_298" data-name="Group 298" transform="translate(0 25.232)">
      <path id="Path_1808" data-name="Path 1808" d="M277.172,268.036l3.185-4.828,2.777,1.6-3.533,4.974a2.17,2.17,0,0,1-.045.586,1.823,1.823,0,0,1-2.194,1.48,2.007,2.007,0,0,1-1.354-2.4,1.936,1.936,0,0,1,1.164-1.418Z" transform="translate(-275.959 -229.618)" fill="#ffb6b6"/>
      <path id="Path_1809" data-name="Path 1809" d="M300.714,143.046h0a6.668,6.668,0,0,0-6.661,6.372l-.681,15.355s-.005.853-.321.6-.342.641-.342.641-.014,1.366-.312.584-.338.633-.338.633l-4.333,7.456c.582,1.2.13,2.693-.014,3.905h0l3.116,2.868s-.027-.861.644-.846c4.117.089,8.332-11.032,8.261-15.145-.081-4.693.982-22.422.982-22.422Z" transform="translate(-284.426 -143.046)" fill="#3f3d56"/>
    </g>
    <g id="Group_299" data-name="Group 299" transform="translate(16.538)">
      <path id="Path_1810" data-name="Path 1810" d="M336.335,56.652l3.185,4.828,2.777-1.6L338.764,54.9a2.169,2.169,0,0,0-.045-.586,1.823,1.823,0,0,0-2.194-1.48,2.007,2.007,0,0,0-1.354,2.4,1.936,1.936,0,0,0,1.164,1.418Z" transform="translate(-335.122 -52.783)" fill="#ffb6b6"/>
      <path id="Path_1811" data-name="Path 1811" d="M356.478,104.822h0a6.668,6.668,0,0,1-6.661-6.372l-.681-15.355s-.005-.853-.321-.6-.342-.641-.342-.641-.014-1.366-.312-.584-.338-.633-.338-.633l-5.666-10.609.322-1.384,3.1-2.326a4.272,4.272,0,0,1,1.656.936c2.033,2.711,8.186,11.228,8.261,15.145C355.586,87.093,356.478,104.822,356.478,104.822Z" transform="translate(-340.19 -62.535)" fill="#3f3d56"/>
    </g>
    <path id="Path_1812" data-name="Path 1812" d="M335.193,98.212c.152.035.3.065.456.089a6.333,6.333,0,0,0,1.4.072,6.629,6.629,0,1,0-6.773-8.282c-.014.054-.028.105-.04.159a6.632,6.632,0,0,0,4.952,7.962Z" transform="translate(-314.942 -76.082)" fill="#ffb6b6"/>
    <path id="Path_1813" data-name="Path 1813" d="M342.34,89.286a6.892,6.892,0,0,1-5.876,4.494,2.509,2.509,0,0,1-1.3-.227,1.183,1.183,0,0,1-.667-1.075c.07-.876,1.261-1.212,1.6-2.026a1.165,1.165,0,0,0-2.08-1.036,2.268,2.268,0,0,0-.46-2.7,6.625,6.625,0,0,0-2.566-1.424l-.021-.351a1.4,1.4,0,0,1-1.651-.907,5.369,5.369,0,0,0,.742-1.364,2.8,2.8,0,0,1-.894.416c.018-.569-.835-.84-.69-1.4.2-.775,1.367-1.935.984-2.638a1.47,1.47,0,0,1,.977,1.747q.384-1.047.767-2.1.3.729.6,1.455a8.92,8.92,0,0,1,3.114-1.419,3.046,3.046,0,0,1,3.067,1.1,2.128,2.128,0,0,1,2.194.14,4.55,4.55,0,0,1,1.47,1.757,9.285,9.285,0,0,1,.693,7.561Z" transform="translate(-313.782 -71.44)" fill="#2f2e41"/>
  </g>
  <g id="Group_301" data-name="Group 301" transform="translate(0 126.686)">
    <path id="Path_1814" data-name="Path 1814" d="M497.424,476.522a.634.634,0,0,0,.46-1.1l-.043-.173.017-.041a1.7,1.7,0,0,1,3.142.012,15.126,15.126,0,0,1,1.329,3.787,5.039,5.039,0,0,1-.088,1.733,20.2,20.2,0,0,0,1.838-8.392,19.51,19.51,0,0,0-.121-2.176q-.1-.888-.278-1.764a20.44,20.44,0,0,0-4.053-8.663,5.439,5.439,0,0,1-2.262-2.347,4.148,4.148,0,0,1-.377-1.134,5.12,5.12,0,0,0,.332-1.766c.154-.233.428-.349.6-.576.834-1.13,1.982-.933,2.582.6,1.281.646,1.293,1.719.507,2.75-.5.656-.569,1.544-1.007,2.246.045.058.092.114.137.172a20.57,20.57,0,0,1,2.147,3.4,8.552,8.552,0,0,1,.511-3.972A14.326,14.326,0,0,1,505,455.932a1.755,1.755,0,0,1,3.126.862l0,.045q-.18.1-.352.215a.861.861,0,0,0,.347,1.566l.018,0a8.57,8.57,0,0,1-.226,1.28c1.035,4-1.2,5.459-4.389,5.525-.07.036-.139.072-.209.107a20.994,20.994,0,0,1,1.13,5.319,19.909,19.909,0,0,1-.014,3.216l.005-.038a5.262,5.262,0,0,1,1.8-3.039c1.382-1.136,3.336-1.554,4.827-2.467a.988.988,0,0,1,1.513.961l-.006.04a5.774,5.774,0,0,0-.648.312q-.18.1-.352.215a.86.86,0,0,0,.347,1.566l.018,0,.036.005A8.568,8.568,0,0,1,510.4,474.1c-.647,3.493-3.426,3.825-6.4,2.807h0a20.992,20.992,0,0,1-1.41,4.117h-5.037c-.018-.056-.034-.114-.051-.17a5.724,5.724,0,0,0,1.394-.083c-.374-.459-.747-.921-1.121-1.379a.32.32,0,0,1-.023-.027c-.19-.235-.381-.468-.571-.7h0a8.386,8.386,0,0,1,.246-2.136h0Z" transform="translate(-358.061 -453.202)" fill="#f2f2f2"/>
    <path id="Path_1815" data-name="Path 1815" d="M0,551.912a.332.332,0,0,0,.333.333H154.159a.333.333,0,1,0,0-.665H.333A.332.332,0,0,0,0,551.912Z" transform="translate(0 -524.079)" fill="#ccc"/>
  </g>
</svg>
