<svg xmlns="http://www.w3.org/2000/svg" width="41.383" height="49.602" viewBox="0 0 41.383 49.602">
  <g id="user_1_" data-name="user (1)" transform="translate(0 0)">
    <path id="Path_1938" data-name="Path 1938" d="M98.979,23.894a11.56,11.56,0,0,0,8.447-3.5,11.561,11.561,0,0,0,3.5-8.447,11.561,11.561,0,0,0-3.5-8.447,11.944,11.944,0,0,0-16.894,0,11.56,11.56,0,0,0-3.5,8.447,11.561,11.561,0,0,0,3.5,8.447A11.564,11.564,0,0,0,98.979,23.894ZM92.587,5.555a9.037,9.037,0,0,1,12.783,0,8.637,8.637,0,0,1,2.649,6.391,8.637,8.637,0,0,1-2.649,6.392,9.036,9.036,0,0,1-12.783,0,8.635,8.635,0,0,1-2.649-6.392,8.636,8.636,0,0,1,2.649-6.391Zm0,0" transform="translate(-78.6 0)" fill="#fff"/>
    <path id="Path_1939" data-name="Path 1939" d="M41.283,261.5a29.508,29.508,0,0,0-.4-3.134,24.693,24.693,0,0,0-.771-3.151,15.567,15.567,0,0,0-1.3-2.939,11.077,11.077,0,0,0-1.953-2.546,8.612,8.612,0,0,0-2.806-1.763,9.7,9.7,0,0,0-3.582-.648,3.636,3.636,0,0,0-1.942.823c-.582.38-1.263.819-2.023,1.3a11.59,11.59,0,0,1-2.617,1.153,10.163,10.163,0,0,1-6.4,0,11.554,11.554,0,0,1-2.615-1.153c-.753-.481-1.434-.92-2.025-1.3a3.632,3.632,0,0,0-1.941-.823,9.685,9.685,0,0,0-3.582.649,8.605,8.605,0,0,0-2.806,1.763,11.081,11.081,0,0,0-1.953,2.545,15.6,15.6,0,0,0-1.3,2.939,24.75,24.75,0,0,0-.77,3.151A29.308,29.308,0,0,0,.1,261.5c-.066.947-.1,1.933-.1,2.929a8.236,8.236,0,0,0,2.446,6.231,8.805,8.805,0,0,0,6.3,2.3H32.633a8.806,8.806,0,0,0,6.3-2.3,8.233,8.233,0,0,0,2.447-6.232c0-1-.034-1.985-.1-2.93Zm-4.35,7.055a5.928,5.928,0,0,1-4.3,1.5H8.75a5.929,5.929,0,0,1-4.3-1.5,5.378,5.378,0,0,1-1.544-4.126c0-.929.031-1.847.092-2.728a26.437,26.437,0,0,1,.363-2.823A21.829,21.829,0,0,1,4.04,256.1a12.7,12.7,0,0,1,1.054-2.39,8.213,8.213,0,0,1,1.435-1.881A5.713,5.713,0,0,1,8.4,250.668a6.689,6.689,0,0,1,2.289-.442c.1.054.283.157.577.349.6.389,1.286.834,2.048,1.32a14.4,14.4,0,0,0,3.285,1.468,13.068,13.068,0,0,0,8.19,0,14.419,14.419,0,0,0,3.287-1.469c.779-.5,1.449-.929,2.046-1.319.294-.191.475-.295.577-.349a6.693,6.693,0,0,1,2.29.442,5.721,5.721,0,0,1,1.866,1.161,8.191,8.191,0,0,1,1.435,1.882,12.655,12.655,0,0,1,1.055,2.389,21.779,21.779,0,0,1,.678,2.778,26.655,26.655,0,0,1,.363,2.823h0c.062.878.093,1.795.093,2.727a5.378,5.378,0,0,1-1.544,4.125Zm0,0" transform="translate(0 -223.356)" fill="#fff"/>
  </g>
</svg>
