<svg xmlns="http://www.w3.org/2000/svg" width="74.704" height="74.87" viewBox="0 0 74.704 74.87">
  <g id="user_10_" data-name="user (10)" transform="translate(0 0.195)">
    <path id="Path_9" data-name="Path 9" d="M158.852-479.5a18.747,18.747,0,0,0-14.6,14.9,23.307,23.307,0,0,0,.067,7.223,18.611,18.611,0,0,0,14.612,14.612,21.811,21.811,0,0,0,7.506,0,18.659,18.659,0,0,0,14.445-13.778,14.367,14.367,0,0,0,.4-4.587,15.241,15.241,0,0,0-.367-4.52,19.073,19.073,0,0,0-13.628-13.695A25.613,25.613,0,0,0,158.852-479.5Zm7.089,5.521a17.965,17.965,0,0,1,5.154,2.636,14.03,14.03,0,0,1,4.437,7.106,15.067,15.067,0,0,1,.067,5.988,16.5,16.5,0,0,1-2.719,5.538,13.078,13.078,0,0,1-10.259,4.771,12.521,12.521,0,0,1-5.855-1.418,12.8,12.8,0,0,1-6.055-6.272,11.982,11.982,0,0,1-1.2-5.555A13.25,13.25,0,0,1,165.941-473.981Z" transform="translate(-125.348 479.783)" fill="#02dccc" stroke="#707070" stroke-width="0.1"/>
    <path id="Path_10" data-name="Path 10" d="M52.119-223.5a23.68,23.68,0,0,0-13.144,6.689,22.822,22.822,0,0,0-4.537,6.389,20.888,20.888,0,0,0-2.285,10.259,7.025,7.025,0,0,0,.467,3.169,9.123,9.123,0,0,0,4.837,4.854l.917.4,30.826.05c30.726.033,30.809.033,31.86-.3a10.227,10.227,0,0,0,3.853-2.569,9.4,9.4,0,0,0,1.718-3.253,21.86,21.86,0,0,0-.35-7.79,23.384,23.384,0,0,0-6.305-11.226,23.9,23.9,0,0,0-11.209-6.322l-1.685-.434-17.014-.033C60.71-223.633,52.636-223.583,52.119-223.5Zm34.8,5.6a18.371,18.371,0,0,1,9.158,4.988,17.767,17.767,0,0,1,5.271,12.21c0,1.735-.384,2.552-1.535,3.2l-.717.417H39.876l-.717-.417c-1.151-.651-1.535-1.468-1.535-3.2,0-7.957,6.255-15.48,14.262-17.148,1.985-.417,3.887-.467,18.6-.434C84.913-218.245,85.464-218.228,86.915-217.895Z" transform="translate(-32.143 266.35)" fill="#02dccc"/>
    <path id="Path_1835" data-name="Path 1835" d="M6925.627,3874.657l7.152,5.563s3.815,4.132,3.974,5.563.636,8.424,0,9.219-3.974,5.721-3.974,5.721-8.264,3.815-9.059,3.815-10.173.953-11.6,0-5.563-5.563-5.563-5.563-3.655-10.649-3.5-12.079.954-5.4,2.225-6.676,6.835-3.974,6.835-3.974,5.881-1.43,7.152-1.589S6925.627,3874.657,6925.627,3874.657Z" transform="translate(-6883.159 -3870.44)" fill="none" stroke="#02dccc" stroke-width="1"/>
  </g>
</svg>
