<svg xmlns="http://www.w3.org/2000/svg" width="224.237" height="103.447" viewBox="0 0 224.237 103.447">
  <g id="undraw_vault_re_s4my" transform="translate(0 0)">
    <path id="Path_2048" data-name="Path 2048" d="M301.747,591.244c-5.369-3.5-9.273-9.788-8.474-16.147a29.526,29.526,0,0,0,18.22,8.886c2.674.268,5.677.287,7.576,2.189a6.6,6.6,0,0,1,1.71,4.585A19.6,19.6,0,0,1,320,595.7l.1.406C313.7,595.868,307.116,594.743,301.747,591.244Z" transform="translate(-254.193 -493.553)" fill="#f0f0f0"/>
    <path id="Path_2049" data-name="Path 2049" d="M293.264,574.792a25.238,25.238,0,0,0,10.015,11.866,10.868,10.868,0,0,0,3.113,1.381,6.233,6.233,0,0,0,3.278-.126,12.905,12.905,0,0,1,3.032-.749,3.816,3.816,0,0,1,2.882,1.2,9.916,9.916,0,0,1,1.983,3.412,9.737,9.737,0,0,0,2.2,3.791c.135.122-.062.324-.2.2-1.936-1.754-2.149-4.567-3.67-6.6a3.865,3.865,0,0,0-2.934-1.722,10.01,10.01,0,0,0-3.092.7,6.651,6.651,0,0,1-3.2.242,10.046,10.046,0,0,1-3.154-1.256,24.484,24.484,0,0,1-5.9-4.869,25.683,25.683,0,0,1-4.627-7.4c-.069-.168.2-.242.272-.075Z" transform="translate(-254.049 -493.249)" fill="#fff"/>
    <path id="Path_2050" data-name="Path 2050" d="M314.23,620.654a3.786,3.786,0,0,1-4.828.851c-.156-.092-.02-.34.136-.247a3.506,3.506,0,0,0,4.49-.8c.115-.14.317.057.2.2Z" transform="translate(-266.503 -528.063)" fill="#fff"/>
    <path id="Path_2051" data-name="Path 2051" d="M353.306,615.019a7.3,7.3,0,0,0-2.349-4.772c-.134-.123.063-.325.2-.2a7.592,7.592,0,0,1,2.434,4.971C353.6,615.2,353.321,615.2,353.306,615.019Z" transform="translate(-298.171 -520.141)" fill="#fff"/>
    <path id="Path_2052" data-name="Path 2052" d="M305.61,590.362a2.143,2.143,0,0,0,.8-1.871c-.017-.181.265-.184.282,0a2.4,2.4,0,0,1-.878,2.071.146.146,0,0,1-.2,0A.142.142,0,0,1,305.61,590.362Z" transform="translate(-263.637 -503.649)" fill="#fff"/>
    <path id="Path_2053" data-name="Path 2053" d="M357.152,526.285c.014.113.028.226.044.34a28.222,28.222,0,0,0,.95,4.479c.032.114.066.229.1.341a29.755,29.755,0,0,0,5.118,9.687,28.9,28.9,0,0,0,2.987,3.218c1.486,1.375,3.206,2.747,4.124,4.481a4.967,4.967,0,0,1,.259.556l-4.581,9.391-.061.05-.166.383-.178-.145-.1-.084c-.023-.019-.045-.038-.067-.054l-.02-.018c-.021-.016-.04-.033-.059-.047q-.506-.422-1.008-.853s0,0,0,0a42.483,42.483,0,0,1-6.869-7.329c-.058-.081-.119-.164-.175-.25a27.584,27.584,0,0,1-2.291-3.873,24.394,24.394,0,0,1-.957-2.273A20.272,20.272,0,0,1,353,538.054a16.1,16.1,0,0,1,3.927-11.537C357.005,526.439,357.077,526.362,357.152,526.285Z" transform="translate(-299.757 -456.377)" fill="#f0f0f0"/>
    <path id="Path_2054" data-name="Path 2054" d="M367.342,526a25.237,25.237,0,0,0,.852,15.5,10.866,10.866,0,0,0,1.654,2.976,6.233,6.233,0,0,0,2.693,1.873,12.9,12.9,0,0,1,2.871,1.227,3.816,3.816,0,0,1,1.58,2.692,9.916,9.916,0,0,1-.471,3.918,9.737,9.737,0,0,0-.522,4.354c.034.179-.245.221-.279.043-.49-2.566,1.034-4.94,1.044-7.481a3.865,3.865,0,0,0-1.306-3.141,10.006,10.006,0,0,0-2.892-1.3,6.651,6.651,0,0,1-2.7-1.733,10.045,10.045,0,0,1-1.762-2.9,24.481,24.481,0,0,1-1.782-7.442,25.684,25.684,0,0,1,.758-8.691c.046-.175.309-.07.263.1Z" transform="translate(-309.838 -456.01)" fill="#fff"/>
    <path id="Path_2055" data-name="Path 2055" d="M357.5,577.375a3.786,3.786,0,0,1-4.368-2.227c-.069-.168.188-.284.258-.115a3.506,3.506,0,0,0,4.067,2.063C357.638,577.053,357.68,577.332,357.5,577.375Z" transform="translate(-299.856 -493.441)" fill="#fff"/>
    <path id="Path_2056" data-name="Path 2056" d="M390.459,594.3a7.3,7.3,0,0,0,1-5.224c-.033-.179.246-.221.279-.043a7.591,7.591,0,0,1-1.049,5.434C390.589,594.619,390.362,594.451,390.459,594.3Z" transform="translate(-328.273 -504.079)" fill="#fff"/>
    <path id="Path_2057" data-name="Path 2057" d="M366.687,547.462a2.143,2.143,0,0,0,1.763-1.013c.1-.155.322.013.228.167a2.4,2.4,0,0,1-1.948,1.125.146.146,0,0,1-.161-.118A.142.142,0,0,1,366.687,547.462Z" transform="translate(-310.095 -471.687)" fill="#fff"/>
    <path id="Path_2058" data-name="Path 2058" d="M955.688,591.244c5.369-3.5,9.273-9.788,8.474-16.147a29.527,29.527,0,0,1-18.221,8.886c-2.674.268-5.677.287-7.576,2.189a6.6,6.6,0,0,0-1.71,4.585,19.6,19.6,0,0,0,.775,4.942l-.1.406C943.737,595.868,950.32,594.743,955.688,591.244Z" transform="translate(-744.285 -493.553)" fill="#f0f0f0"/>
    <path id="Path_2059" data-name="Path 2059" d="M966.646,574.792a25.237,25.237,0,0,1-10.015,11.866,10.869,10.869,0,0,1-3.113,1.381,6.234,6.234,0,0,1-3.278-.126,12.9,12.9,0,0,0-3.031-.749,3.816,3.816,0,0,0-2.882,1.2,9.914,9.914,0,0,0-1.982,3.412,9.738,9.738,0,0,1-2.2,3.791c-.135.122.063.324.2.2,1.936-1.754,2.149-4.567,3.67-6.6a3.865,3.865,0,0,1,2.934-1.722,10.006,10.006,0,0,1,3.092.7,6.652,6.652,0,0,0,3.2.242,10.048,10.048,0,0,0,3.154-1.256,24.48,24.48,0,0,0,5.9-4.869,25.68,25.68,0,0,0,4.627-7.4c.069-.168-.2-.242-.272-.075Z" transform="translate(-746.905 -493.249)" fill="#fff"/>
    <path id="Path_2060" data-name="Path 2060" d="M1015.671,620.654a3.786,3.786,0,0,0,4.828.851c.156-.092.02-.34-.136-.247a3.506,3.506,0,0,1-4.49-.8C1015.758,620.317,1015.556,620.514,1015.671,620.654Z" transform="translate(-804.44 -528.063)" fill="#fff"/>
    <path id="Path_2061" data-name="Path 2061" d="M983.795,615.019a7.3,7.3,0,0,1,2.349-4.772c.134-.123-.063-.325-.2-.2a7.591,7.591,0,0,0-2.434,4.971C983.5,615.2,983.78,615.2,983.795,615.019Z" transform="translate(-779.973 -520.141)" fill="#fff"/>
    <path id="Path_2062" data-name="Path 2062" d="M1036.44,590.362a2.143,2.143,0,0,1-.8-1.871c.017-.181-.265-.184-.282,0a2.4,2.4,0,0,0,.878,2.071.146.146,0,0,0,.2,0A.142.142,0,0,0,1036.44,590.362Z" transform="translate(-819.454 -503.649)" fill="#fff"/>
    <path id="Path_2063" data-name="Path 2063" d="M931.823,526.285c-.014.113-.028.226-.044.34a28.212,28.212,0,0,1-.95,4.479c-.032.114-.066.229-.1.341a29.752,29.752,0,0,1-5.118,9.687,28.9,28.9,0,0,1-2.987,3.218c-1.486,1.375-3.206,2.747-4.124,4.481a4.979,4.979,0,0,0-.259.556l4.581,9.391c.021.016.04.033.061.05l.166.383.178-.146c.034-.027.068-.057.1-.084s.045-.038.067-.054l.02-.018c.021-.016.04-.033.059-.047q.506-.422,1.008-.853s0,0,0,0a42.493,42.493,0,0,0,6.869-7.329c.058-.082.119-.164.175-.25a27.582,27.582,0,0,0,2.291-3.873,24.432,24.432,0,0,0,.957-2.273,20.271,20.271,0,0,0,1.191-6.225,16.1,16.1,0,0,0-3.927-11.537C931.97,526.439,931.9,526.362,931.823,526.285Z" transform="translate(-730.26 -456.377)" fill="#f0f0f0"/>
    <path id="Path_2064" data-name="Path 2064" d="M943.758,526a25.237,25.237,0,0,1-.852,15.5,10.867,10.867,0,0,1-1.654,2.976,6.233,6.233,0,0,1-2.693,1.873,12.9,12.9,0,0,0-2.872,1.227,3.816,3.816,0,0,0-1.58,2.692,9.912,9.912,0,0,0,.471,3.918,9.738,9.738,0,0,1,.522,4.354c-.034.179.245.221.279.043.49-2.566-1.034-4.94-1.044-7.481a3.865,3.865,0,0,1,1.306-3.141,10.006,10.006,0,0,1,2.892-1.3,6.651,6.651,0,0,0,2.7-1.733,10.048,10.048,0,0,0,1.762-2.9,24.485,24.485,0,0,0,1.782-7.442,25.681,25.681,0,0,0-.758-8.691c-.046-.175-.309-.07-.263.1Z" transform="translate(-742.305 -456.01)" fill="#fff"/>
    <path id="Path_2065" data-name="Path 2065" d="M973.8,577.375a3.787,3.787,0,0,0,4.368-2.227c.069-.168-.189-.284-.258-.115a3.506,3.506,0,0,1-4.067,2.063C973.663,577.053,973.621,577.332,973.8,577.375Z" transform="translate(-772.488 -493.441)" fill="#fff"/>
    <path id="Path_2066" data-name="Path 2066" d="M950.638,594.3a7.3,7.3,0,0,1-1-5.224c.033-.179-.246-.221-.279-.043a7.59,7.59,0,0,0,1.049,5.434C950.508,594.619,950.735,594.451,950.638,594.3Z" transform="translate(-753.867 -504.079)" fill="#fff"/>
    <path id="Path_2067" data-name="Path 2067" d="M972.15,547.462a2.143,2.143,0,0,1-1.763-1.013c-.1-.155-.323.013-.228.167a2.4,2.4,0,0,0,1.948,1.125.146.146,0,0,0,.161-.118A.142.142,0,0,0,972.15,547.462Z" transform="translate(-769.786 -471.686)" fill="#fff"/>
    <path id="Path_2068" data-name="Path 2068" d="M363.16,489.551a1.622,1.622,0,0,1-.385-2.457l-2.856-5.006,2.989.193,2.254,4.724a1.631,1.631,0,0,1-2,2.546Z" transform="translate(-305.031 -422.716)" fill="#ffb6b6"/>
    <path id="Path_2069" data-name="Path 2069" d="M151.622,399.161H153.6l.941-7.626h-2.918Z" transform="translate(-115.479 -298.201)" fill="#ffb6b6"/>
    <path id="Path_2070" data-name="Path 2070" d="M279.17,653.839h3.894a2.482,2.482,0,0,1,2.481,2.481v.081H279.17Z" transform="translate(-243.531 -553.524)" fill="#2f2e41"/>
    <path id="Path_2071" data-name="Path 2071" d="M208.452,399.161h1.977l.941-7.626h-2.918Z" transform="translate(-158.762 -298.201)" fill="#ffb6b6"/>
    <path id="Path_2072" data-name="Path 2072" d="M336,653.839h3.894a2.482,2.482,0,0,1,2.481,2.481v.081H336Z" transform="translate(-286.814 -553.524)" fill="#2f2e41"/>
    <path id="Path_2073" data-name="Path 2073" d="M298.466,482.991s.544,7.745-.527,11.645-1.262,27.488-1.262,27.488h-3.59l-3.112-32.107L282.8,522.237l-3.42-.235,1.875-37.968Z" transform="translate(-243.691 -423.403)" fill="#2f2e41"/>
    <path id="Path_2074" data-name="Path 2074" d="M281.772,367.074l2.745-2,4.6,1,1.245,2.958,2.145,1.064a4.863,4.863,0,0,1,2.652,3.66l3.065,21.163-17.935-.693L278.117,369.3a1.954,1.954,0,0,1,1.833-2.12Z" transform="translate(-242.723 -333.593)" fill="#3f3d56"/>
    <path id="Path_2075" data-name="Path 2075" d="M213.6,160.059l1.656,2.233,7.215,22.005-3.382,1.354L213.674,175.4Z" transform="translate(-162.682 -121.904)" fill="#3f3d56"/>
    <circle id="Ellipse_327" data-name="Ellipse 327" cx="4.006" cy="4.006" r="4.006" transform="translate(40.907 22.421)" fill="#ffb9b9"/>
    <path id="Path_2076" data-name="Path 2076" d="M151.778,180l6.537,9.092,7.307,4.765Z" transform="translate(-115.597 -137.089)" opacity="0.1"/>
    <path id="Path_2077" data-name="Path 2077" d="M300.421,330.373a2.966,2.966,0,0,1-.459-1.775c.107-.613.81-1.147,1.353-.843a1.858,1.858,0,0,1,2.062-1.076c.839.094,1.612.5,2.439.673a2.136,2.136,0,0,0,2.277-.681l-1.069-.019,1.113-1.291-1.29-.1a1.4,1.4,0,0,0-.1-1.8,3.182,3.182,0,0,0-1.73-.878,9.634,9.634,0,0,0-3.9-.09,5.061,5.061,0,0,0-1.731.6,3.442,3.442,0,0,0-1.21,1.255,4.143,4.143,0,0,0-.492,1.888,5.279,5.279,0,0,0,2.326,4.49" transform="translate(-257.63 -301.051)" fill="#2f2e41"/>
    <path id="Path_2078" data-name="Path 2078" d="M522.231,336H397.919a4.834,4.834,0,0,1-4.829-4.829V237.848a4.834,4.834,0,0,1,4.829-4.829H522.231a4.834,4.834,0,0,1,4.829,4.829V331.17A4.834,4.834,0,0,1,522.231,336Z" transform="translate(-330.295 -233.019)" fill="#e4e4e4"/>
    <path id="Path_2079" data-name="Path 2079" d="M730.851,389.92h-19.19a3.576,3.576,0,1,1,0-7.151h19.19a3.576,3.576,0,0,1,0,7.151Z" transform="translate(-570.202 -347.072)" fill="#fff"/>
    <path id="Path_2080" data-name="Path 2080" d="M714.427,445.391H709.9a1.311,1.311,0,0,1,0-2.622h4.529a1.311,1.311,0,1,1,0,2.622Z" transform="translate(-570.584 -392.769)" fill="#fff"/>
    <path id="Path_2081" data-name="Path 2081" d="M793.427,445.391H788.9a1.311,1.311,0,0,1,0-2.622h4.529a1.311,1.311,0,1,1,0,2.622Z" transform="translate(-630.752 -392.769)" fill="#fff"/>
    <path id="Path_2082" data-name="Path 2082" d="M753.427,445.391H748.9a1.311,1.311,0,0,1,0-2.622h4.529a1.311,1.311,0,1,1,0,2.622Z" transform="translate(-600.287 -392.769)" fill="#fff"/>
    <path id="Path_2083" data-name="Path 2083" d="M714.427,466.391H709.9a1.311,1.311,0,1,1,0-2.622h4.529a1.311,1.311,0,1,1,0,2.622Z" transform="translate(-570.584 -408.763)" fill="#fff"/>
    <path id="Path_2084" data-name="Path 2084" d="M793.427,466.391H788.9a1.311,1.311,0,1,1,0-2.622h4.529a1.311,1.311,0,1,1,0,2.622Z" transform="translate(-630.752 -408.763)" fill="#fff"/>
    <path id="Path_2085" data-name="Path 2085" d="M753.427,466.391H748.9a1.311,1.311,0,0,1,0-2.622h4.529a1.311,1.311,0,1,1,0,2.622Z" transform="translate(-600.287 -408.763)" fill="#fff"/>
    <path id="Path_2086" data-name="Path 2086" d="M714.427,487.391H709.9a1.311,1.311,0,1,1,0-2.622h4.529a1.311,1.311,0,1,1,0,2.622Z" transform="translate(-570.584 -424.757)" fill="#fff"/>
    <path id="Path_2087" data-name="Path 2087" d="M793.427,487.391H788.9a1.311,1.311,0,1,1,0-2.622h4.529a1.311,1.311,0,1,1,0,2.622Z" transform="translate(-630.752 -424.757)" fill="#fff"/>
    <path id="Path_2088" data-name="Path 2088" d="M753.427,487.391H748.9a1.311,1.311,0,0,1,0-2.622h4.529a1.311,1.311,0,1,1,0,2.622Z" transform="translate(-600.287 -424.757)" fill="#fff"/>
    <path id="Path_2089" data-name="Path 2089" d="M714.427,508.391H709.9a1.311,1.311,0,1,1,0-2.622h4.529a1.311,1.311,0,1,1,0,2.622Z" transform="translate(-570.584 -440.751)" fill="#fff"/>
    <path id="Path_2090" data-name="Path 2090" d="M793.427,508.391H788.9a1.311,1.311,0,1,1,0-2.622h4.529a1.311,1.311,0,1,1,0,2.622Z" transform="translate(-630.752 -440.751)" fill="#fff"/>
    <path id="Path_2091" data-name="Path 2091" d="M753.427,508.391H748.9a1.311,1.311,0,0,1,0-2.622h4.529a1.311,1.311,0,1,1,0,2.622Z" transform="translate(-600.287 -440.751)" fill="#fff"/>
    <circle id="Ellipse_328" data-name="Ellipse 328" cx="12.157" cy="12.157" r="12.157" transform="translate(101.054 38.081)" fill="#cacaca"/>
    <path id="Path_2092" data-name="Path 2092" d="M593.163,411.066a3.58,3.58,0,0,1-3.576-3.576V384.845a3.576,3.576,0,1,1,7.151,0v22.646A3.58,3.58,0,0,1,593.163,411.066Z" transform="translate(-479.951 -345.929)" fill="#fff"/>
    <path id="Path_2093" data-name="Path 2093" d="M725.637,403.282H722.3a.477.477,0,0,1,0-.954h3.337a.477.477,0,0,1,0,.954Z" transform="translate(-580.665 -361.968)" fill="#e4e4e4"/>
    <path id="Path_2094" data-name="Path 2094" d="M747.637,403.781H744.3a.477.477,0,0,1,0-.954h3.337a.477.477,0,1,1,0,.954Z" transform="translate(-597.42 -362.349)" fill="#e4e4e4"/>
    <path id="Path_2095" data-name="Path 2095" d="M769.637,404.282H766.3a.477.477,0,0,1,0-.954h3.337a.477.477,0,1,1,0,.954Z" transform="translate(-614.176 -362.73)" fill="#e4e4e4"/>
    <path id="Path_2096" data-name="Path 2096" d="M791.637,404.781H788.3a.477.477,0,0,1,0-.954h3.337a.477.477,0,1,1,0,.954Z" transform="translate(-630.932 -363.111)" fill="#e4e4e4"/>
    <path id="Path_2097" data-name="Path 2097" d="M443.4,355.977a4.456,4.456,0,0,0,1.325,3.173h-1.969a4.424,4.424,0,0,1-4.424-4.424V283a4.424,4.424,0,0,1,4.424-4.424h2.866a4.468,4.468,0,0,0-2.222,3.862Z" transform="translate(-364.748 -267.718)" fill="#cacaca"/>
    <path id="Path_2098" data-name="Path 2098" d="M353.616,665.167H129.946a.284.284,0,0,1,0-.568H353.615a.284.284,0,0,1,0,.568Z" transform="translate(-129.662 -561.72)" fill="#cacaca"/>
    <path id="Path_2099" data-name="Path 2099" d="M370.173,353.6q-2.26-.633-4.536-1.173a129.586,129.586,0,0,0-15.754-2.746,3.525,3.525,0,0,0-4.3,2.482l-2.648,9.774a3.522,3.522,0,0,0,2.477,4.317l.036.007c3.5.4,7.042.951,10.56,1.657.315.062.627.126.942.193q1.691.35,3.373.749c.491.114.98.234,1.471.355q1.981.493,3.964,1.051,2.206.622,4.415,1.328c.16.048.32.1.477.15V353.739C370.492,353.691,370.332,353.646,370.173,353.6Z" transform="translate(-292.003 -321.784)" fill="#fff"/>
    <path id="Path_2100" data-name="Path 2100" d="M370.173,353.6q-2.26-.633-4.536-1.173a129.586,129.586,0,0,0-15.754-2.746,3.525,3.525,0,0,0-4.3,2.482l-2.648,9.774a3.522,3.522,0,0,0,2.477,4.317l.036.007c3.5.4,7.042.951,10.56,1.657.315.062.627.126.942.193q1.691.35,3.373.749c.491.114.98.234,1.471.355q1.981.493,3.964,1.051,2.206.622,4.415,1.328c.16.048.32.1.477.15v-.5l-.477-.15q-2.031-.647-4.057-1.218-.758-.218-1.516-.422-1.366-.368-2.725-.706-.722-.182-1.442-.35c-.036-.01-.074-.017-.11-.026q-1.226-.29-2.458-.553c-.315-.067-.629-.133-.944-.2-3.795-.787-7.619-1.4-11.4-1.828a3.046,3.046,0,0,1-2.124-3.726l2.648-9.776a3.043,3.043,0,0,1,3.731-2.138l.036,0a129.153,129.153,0,0,1,15.557,2.7c.052.014.1.026.157.038q2.332.558,4.648,1.206c.157.043.317.088.477.136v-.5C370.492,353.691,370.332,353.646,370.173,353.6Z" transform="translate(-292.003 -321.784)" fill="#02dccc"/>
    <path id="Path_2101" data-name="Path 2101" d="M425.488,363.873V381.38c-.16-.052-.317-.1-.477-.152q-2.113-.676-4.241-1.273-2.042-.579-4.1-1.089c-.486-.119-.97-.236-1.457-.35-.019-.086-.038-.172-.055-.257-.088-.41-.157-.825-.21-1.242-.024-.16-.04-.319-.057-.482a16.464,16.464,0,0,1,5.311-13.793c.069-.067.141-.131.212-.193q2.31.551,4.593,1.192C425.171,363.78,425.331,363.826,425.488,363.873Z" transform="translate(-346.841 -331.671)" fill="#02dccc"/>
    <path id="Path_2102" data-name="Path 2102" d="M365.612,395.64l-6.629-.782a1.788,1.788,0,1,0-.419,3.552l6.629.782a1.788,1.788,0,0,0,.42-3.552Zm1.092,1.931a1.312,1.312,0,0,1-1.457,1.147l-6.629-.782a1.311,1.311,0,1,1,.308-2.6l6.629.782a1.316,1.316,0,0,1,1.149,1.456Z" transform="translate(-302.796 -356.269)" fill="#b8e6e2"/>
    <path id="Path_2103" data-name="Path 2103" d="M436.425,383.188v8.3a3.883,3.883,0,0,1-.477.243,4.807,4.807,0,0,1-5.206-.844c-.067-.06-.134-.124-.2-.191s-.126-.134-.186-.2a4.812,4.812,0,0,1,5.59-7.554A4.989,4.989,0,0,1,436.425,383.188Z" transform="translate(-357.778 -346.886)" fill="#fff"/>
    <path id="Path_2104" data-name="Path 2104" d="M376.265,410.206q-2.814.586-5.59,1.3-1.037.265-2.067.548-1.23.34-2.46.7-1.57.465-3.135.973l-.913.3c-2.9.968-5.783,2.04-8.617,3.211a3.525,3.525,0,0,0-2.572,4.246l2.391,9.84a3.523,3.523,0,0,0,4.25,2.589l.033-.012a127.248,127.248,0,0,1,14.286-4.892q2.174-.6,4.393-1.139c.16-.038.317-.076.477-.112V410.108C376.582,410.137,376.425,410.17,376.265,410.206Z" transform="translate(-298.095 -367.894)" fill="#fff"/>
    <path id="Path_2105" data-name="Path 2105" d="M376.265,410.206q-2.814.586-5.59,1.3-1.037.265-2.067.548-1.23.34-2.46.7-1.57.465-3.135.973l-.913.3c-2.9.968-5.783,2.041-8.617,3.211a3.525,3.525,0,0,0-2.572,4.245l2.391,9.84a3.523,3.523,0,0,0,4.25,2.589l.033-.012a127.248,127.248,0,0,1,14.286-4.892q2.174-.6,4.393-1.139c.16-.038.317-.076.477-.112v-.491l-.477.114-.36.086q-2.1.511-4.16,1.082l-.11.031a127.152,127.152,0,0,0-14.215,4.875,3.048,3.048,0,0,1-3.657-2.243l-2.389-9.84a3.045,3.045,0,0,1,2.236-3.673l.036-.012c3.087-1.278,6.229-2.436,9.395-3.466.305-.1.61-.2.915-.3q1.123-.354,2.248-.689,1.187-.354,2.372-.682l.157-.043q1.159-.318,2.324-.615,2.585-.658,5.206-1.209c.157-.033.317-.067.477-.1v-.484C376.582,410.137,376.425,410.17,376.265,410.206Z" transform="translate(-298.095 -367.894)" fill="#02dccc"/>
    <path id="Path_2106" data-name="Path 2106" d="M430.656,411.118v17.166c-.157.036-.317.071-.477.11q-2.238.544-4.458,1.159-.089-.1-.172-.2A16.477,16.477,0,0,1,421.8,416.1c.012-.079.026-.16.041-.238s.026-.155.04-.231a16.317,16.317,0,0,1,.61-2.3c.031-.091.062-.181.1-.272q1.09-.3,2.188-.577,2.685-.694,5.4-1.261C430.337,411.18,430.5,411.149,430.656,411.118Z" transform="translate(-352.009 -368.663)" fill="#02dccc"/>
    <path id="Path_2107" data-name="Path 2107" d="M382.346,472.784a1.79,1.79,0,0,0-2.329-.984l-6.186,2.508a1.788,1.788,0,0,0,1.344,3.313l6.186-2.508A1.792,1.792,0,0,0,382.346,472.784Zm-1.163,1.886L375,477.18a1.312,1.312,0,0,1-.987-2.431l6.186-2.508a1.311,1.311,0,1,1,.987,2.429Z" transform="translate(-314.776 -414.779)" fill="#b8e6e2"/>
    <path id="Path_2108" data-name="Path 2108" d="M440.539,429.06v9.347a4.675,4.675,0,0,1-.477.1,4.817,4.817,0,0,1-4.415-7.8c.055-.069.112-.136.174-.2s.119-.131.184-.193a4.814,4.814,0,0,1,4.057-1.344A4.1,4.1,0,0,1,440.539,429.06Z" transform="translate(-361.892 -382.222)" fill="#fff"/>
    <path id="Path_2109" data-name="Path 2109" d="M457.587,294.821v23.793c.16-.052.319-.1.477-.15V295.038C457.9,294.964,457.746,294.893,457.587,294.821Zm0,0v23.793c.16-.052.319-.1.477-.15V295.038C457.9,294.964,457.746,294.893,457.587,294.821Zm0,0v23.793c.16-.052.319-.1.477-.15V295.038C457.9,294.964,457.746,294.893,457.587,294.821Zm0,1.738v27.416c.16-.038.319-.074.477-.11v-27.17C457.9,296.647,457.744,296.6,457.587,296.559Zm0,0v27.416c.16-.038.319-.074.477-.11v-27.17C457.9,296.647,457.744,296.6,457.587,296.559Zm0,0v27.416c.16-.038.319-.074.477-.11v-27.17C457.9,296.647,457.744,296.6,457.587,296.559Zm0,0v27.416c.16-.038.319-.074.477-.11v-27.17C457.9,296.647,457.744,296.6,457.587,296.559Zm0,0v27.664c.16-.038.317-.076.477-.112V296.695C457.9,296.647,457.744,296.6,457.587,296.559Zm103.993-22.541H462.535a4.957,4.957,0,0,0-4.949,4.949V352.5a4.955,4.955,0,0,0,4.949,4.946h99.044a4.952,4.952,0,0,0,4.946-4.946V278.967A4.953,4.953,0,0,0,561.579,274.018Zm4.47,78.486a4.474,4.474,0,0,1-4.47,4.47H462.535a4.476,4.476,0,0,1-4.472-4.47V278.967a4.479,4.479,0,0,1,4.472-4.472h99.044a4.475,4.475,0,0,1,4.47,4.472ZM457.587,296.559v27.175l.477-.114V296.695C457.9,296.647,457.744,296.6,457.587,296.559Zm0,0v27.416c.16-.038.319-.074.477-.11v-27.17C457.9,296.647,457.744,296.6,457.587,296.559Zm0,0v27.416c.16-.038.319-.074.477-.11v-27.17C457.9,296.647,457.744,296.6,457.587,296.559Zm0,0v27.416c.16-.038.319-.074.477-.11v-27.17C457.9,296.647,457.744,296.6,457.587,296.559Zm0-1.738v23.793c.16-.052.319-.1.477-.15V295.038C457.9,294.964,457.746,294.893,457.587,294.821Zm0,0v23.793c.16-.052.319-.1.477-.15V295.038C457.9,294.964,457.746,294.893,457.587,294.821Z" transform="translate(-379.417 -264.245)" fill="#2f2e41"/>
    <path id="Path_2110" data-name="Path 2110" d="M345.613,453.387a1.622,1.622,0,0,0-2.381-.716l-4.57-3.511-.216,2.987,4.373,2.876a1.631,1.631,0,0,0,2.795-1.636Z" transform="translate(-288.677 -397.636)" fill="#ffb6b6"/>
    <path id="Path_2111" data-name="Path 2111" d="M281.447,375.724l-1.5-.711s-2.423.681-1.246,3.885l7.123,13.269,8.7,5.091,2.711-2.4-8.7-6.885Z" transform="translate(-242.925 -341.165)" fill="#3f3d56"/>
  </g>
</svg>
